<?xml version="1.0" encoding="UTF-8" standalone="no"?>
<!DOCTYPE svg PUBLIC "-//W3C//DTD SVG 1.1//EN" "http://www.w3.org/Graphics/SVG/1.1/DTD/svg11.dtd">
<svg xmlns="http://www.w3.org/2000/svg" xmlns:xlink="http://www.w3.org/1999/xlink" version="1.1" width="68.437pt" height="70.651pt" viewBox="0 0 68.437 70.651">
<g enable-background="new">
<path transform="matrix(1,0,0,-1,.199,56.892004)" stroke-width=".3985" stroke-linecap="butt" stroke-miterlimit="10" stroke-linejoin="miter" fill="none" stroke="#000000" d="M 0 0 L 56.69362 0 "/>
<text xml:space="preserve" transform="matrix(1 0 -0 1 0 70.651)" font-size="9.9626" font-family="CMR10"><tspan y="-3.321" x="23.841 28.543347">??</tspan></text>
<path transform="matrix(1,0,0,-1,.199,56.892004)" stroke-width=".3985" stroke-linecap="butt" stroke-miterlimit="10" stroke-linejoin="miter" fill="none" stroke="#000000" d="M 56.69362 0 L 56.69362 56.69362 "/>
<text xml:space="preserve" transform="matrix(1 0 -0 1 .0000038146974 70.651)" font-size="9.9626" font-family="CMR10"><tspan y="-38.646" x="60.412">?</tspan></text>
<path transform="matrix(1,0,0,-1,.199,56.892004)" stroke-width=".3985" stroke-linecap="butt" stroke-miterlimit="10" stroke-linejoin="miter" fill="none" stroke="#000000" d="M 0 0 L 56.69362 56.69362 "/>
<text xml:space="preserve" transform="matrix(1 0 -0 1 0 70.651)" font-size="4.9813" font-family="CMR5"><tspan y="-45.625" x="21.636">1</tspan></text>
<path transform="matrix(1,0,0,-1,.199,56.892004)" stroke-width=".3985" stroke-linecap="butt" stroke-miterlimit="10" stroke-linejoin="miter" fill="none" stroke="#000000" d="M 5.66927 0 L 5.66927 0 "/>
<text xml:space="preserve" transform="matrix(1 0 -0 1 .0000009536743 70.651)" font-size="4.9813" font-family="CMMI5" font-style="italic"><tspan y="-17.279" x="9.388">&#x03b8;</tspan></text>
</g>
</svg>
