<?xml version="1.0" encoding="UTF-8" standalone="no"?>
<svg
   xmlns:dc="http://purl.org/dc/elements/1.1/"
   xmlns:cc="http://creativecommons.org/ns#"
   xmlns:rdf="http://www.w3.org/1999/02/22-rdf-syntax-ns#"
   xmlns:svg="http://www.w3.org/2000/svg"
   xmlns="http://www.w3.org/2000/svg"
   viewBox="0 0 340.42267 189.24133"
   height="189.24133"
   width="340.42267"
   xml:space="preserve"
   id="svg2"
   version="1.1"><metadata
     id="metadata8"><rdf:RDF><cc:Work
         rdf:about=""><dc:format>image/svg+xml</dc:format><dc:type
           rdf:resource="http://purl.org/dc/dcmitype/StillImage" /></cc:Work></rdf:RDF></metadata><defs
     id="defs6" /><g
     transform="matrix(1.3333333,0,0,-1.3333333,0,189.24133)"
     id="g10"><g
       transform="translate(127.659,70.966)"
       id="g12"><g
         id="g14"><g
           id="g16"><g
             id="g18"><path
               id="path20"
               style="fill:none;stroke:#bfbfbf;stroke-width:0.19925;stroke-linecap:butt;stroke-linejoin:miter;stroke-miterlimit:10;stroke-dasharray:none;stroke-opacity:1"
               d="M -127.56062,-56.69362 H 127.56062 M -127.56062,-28.3468 H 127.56062 M -127.56062,0 H 127.56062 M -127.56062,28.3468 H 127.56062 M -127.56062,56.69362 H 127.56062 M -113.38724,-70.867 V 70.867 M -85.04042,-70.867 V 70.867 m 28.3468,-141.734 V 70.867 M -28.3468,-70.867 V 70.867 M 0,-70.867 V 70.867 M 28.3468,-70.867 V 70.867 M 56.69362,-70.867 V 70.867 M 85.04042,-70.867 V 70.867 M 113.38724,-70.867 V 70.867" /></g><g
             id="g22"><path
               id="path24"
               style="fill:none;stroke:#000000;stroke-width:1.19553006;stroke-linecap:butt;stroke-linejoin:miter;stroke-miterlimit:10;stroke-dasharray:none;stroke-opacity:1"
               d="M -113.38724,0 H 112.43082" /><g
               transform="translate(112.43082)"
               id="g26"><g
                 id="g28"><path
                   id="path30"
                   style="fill:none;stroke:#000000;stroke-width:0.95639998;stroke-linecap:round;stroke-linejoin:round;stroke-miterlimit:10;stroke-dasharray:none;stroke-opacity:1"
                   d="M -1.91284,2.55046 C -1.75343,1.59402 0,0.15938 0.4782,0 0,-0.15938 -1.75343,-1.59402 -1.91284,-2.55046" /></g></g><g
               id="g32"><g
                 transform="translate(117.304,-6.063)"
                 id="g34"><g
                   id="g36"><g
                     transform="translate(-244.963,-64.903)"
                     id="g38"><text
                       id="text42"
                       style="font-variant:normal;font-weight:normal;font-size:4.98129988px;font-family:CMMI5;-inkscape-font-specification:CMMI5;writing-mode:lr-tb;fill:#000000;fill-opacity:1;fill-rule:nonzero;stroke:none"
                       transform="matrix(1,0,0,-1,244.963,64.903)"><tspan
                         id="tspan40"
                         y="0"
                         x="0">x</tspan></text>
<g
                       transform="translate(244.963,64.903)"
                       id="g44" /></g></g><g
                   transform="translate(-117.304,6.063)"
                   id="g46" /></g></g></g><g
             id="g48"><path
               id="path50"
               style="fill:none;stroke:#000000;stroke-width:1.19553006;stroke-linecap:butt;stroke-linejoin:miter;stroke-miterlimit:10;stroke-dasharray:none;stroke-opacity:1"
               d="M 0,-56.69362 V 55.7372" /><g
               transform="rotate(90,-27.8686,27.8686)"
               id="g52"><g
                 id="g54"><path
                   id="path56"
                   style="fill:none;stroke:#000000;stroke-width:0.95639998;stroke-linecap:round;stroke-linejoin:round;stroke-miterlimit:10;stroke-dasharray:none;stroke-opacity:1"
                   d="M -1.91284,2.55046 C -1.75343,1.59402 0,0.15938 0.4782,0 0,-0.15938 -1.75343,-1.59402 -1.91284,-2.55046" /></g></g><g
               id="g58"><g
                 transform="translate(-7.737,61.579)"
                 id="g60"><g
                   id="g62"><g
                     transform="translate(-119.922,-132.545)"
                     id="g64"><text
                       id="text68"
                       style="font-variant:normal;font-weight:normal;font-size:4.98129988px;font-family:CMMI5;-inkscape-font-specification:CMMI5;writing-mode:lr-tb;fill:#000000;fill-opacity:1;fill-rule:nonzero;stroke:none"
                       transform="matrix(1,0,0,-1,119.922,132.545)"><tspan
                         id="tspan66"
                         y="0"
                         x="0">y</tspan></text>
<g
                       transform="translate(119.922,132.545)"
                       id="g70" /></g></g><g
                   transform="translate(7.737,-61.579)"
                   id="g72" /></g></g></g><path
             id="path74"
             style="fill:none;stroke:#000000;stroke-width:0.3985;stroke-linecap:butt;stroke-linejoin:miter;stroke-miterlimit:10;stroke-dasharray:none;stroke-opacity:1"
             d="M -113.38728,0.99628 V -0.99628" /><g
             id="g76"><g
               transform="translate(-117.973,-7.837)"
               id="g78"><g
                 id="g80"><g
                   transform="translate(-9.686,-63.129)"
                   id="g82"><text
                     id="text86"
                     style="font-variant:normal;font-weight:normal;font-size:4.98129988px;font-family:CMSY5;-inkscape-font-specification:CMSY5;writing-mode:lr-tb;fill:#000000;fill-opacity:1;fill-rule:nonzero;stroke:none"
                     transform="matrix(1,0,0,-1,9.686,63.129)"><tspan
                       id="tspan84"
                       y="0"
                       x="0">−</tspan></text>
<text
                     id="text90"
                     style="font-variant:normal;font-weight:normal;font-size:4.98129988px;font-family:CMBX5;-inkscape-font-specification:CMBX5;writing-mode:lr-tb;fill:#000000;fill-opacity:1;fill-rule:nonzero;stroke:none"
                     transform="matrix(1,0,0,-1,15.082,63.129)"><tspan
                       id="tspan88"
                       y="0"
                       x="0">4</tspan></text>
<g
                     transform="translate(9.686,63.129)"
                     id="g92" /></g></g><g
                 transform="translate(117.973,7.837)"
                 id="g94" /></g></g><path
             id="path96"
             style="fill:none;stroke:#000000;stroke-width:0.3985;stroke-linecap:butt;stroke-linejoin:miter;stroke-miterlimit:10;stroke-dasharray:none;stroke-opacity:1"
             d="M -85.04045,0.99628 V -0.99628" /><g
             id="g98"><g
               transform="translate(-89.627,-7.837)"
               id="g100"><g
                 id="g102"><g
                   transform="translate(-38.032,-63.129)"
                   id="g104"><text
                     id="text108"
                     style="font-variant:normal;font-weight:normal;font-size:4.98129988px;font-family:CMSY5;-inkscape-font-specification:CMSY5;writing-mode:lr-tb;fill:#000000;fill-opacity:1;fill-rule:nonzero;stroke:none"
                     transform="matrix(1,0,0,-1,38.032,63.129)"><tspan
                       id="tspan106"
                       y="0"
                       x="0">−</tspan></text>
<text
                     id="text112"
                     style="font-variant:normal;font-weight:normal;font-size:4.98129988px;font-family:CMBX5;-inkscape-font-specification:CMBX5;writing-mode:lr-tb;fill:#000000;fill-opacity:1;fill-rule:nonzero;stroke:none"
                     transform="matrix(1,0,0,-1,43.429,63.129)"><tspan
                       id="tspan110"
                       y="0"
                       x="0">3</tspan></text>
<g
                     transform="translate(38.032,63.129)"
                     id="g114" /></g></g><g
                 transform="translate(89.627,7.837)"
                 id="g116" /></g></g><path
             id="path118"
             style="fill:none;stroke:#000000;stroke-width:0.3985;stroke-linecap:butt;stroke-linejoin:miter;stroke-miterlimit:10;stroke-dasharray:none;stroke-opacity:1"
             d="M -56.69363,0.99628 V -0.99628" /><g
             id="g120"><g
               transform="translate(-61.28,-7.837)"
               id="g122"><g
                 id="g124"><g
                   transform="translate(-66.379,-63.129)"
                   id="g126"><text
                     id="text130"
                     style="font-variant:normal;font-weight:normal;font-size:4.98129988px;font-family:CMSY5;-inkscape-font-specification:CMSY5;writing-mode:lr-tb;fill:#000000;fill-opacity:1;fill-rule:nonzero;stroke:none"
                     transform="matrix(1,0,0,-1,66.379,63.129)"><tspan
                       id="tspan128"
                       y="0"
                       x="0">−</tspan></text>
<text
                     id="text134"
                     style="font-variant:normal;font-weight:normal;font-size:4.98129988px;font-family:CMBX5;-inkscape-font-specification:CMBX5;writing-mode:lr-tb;fill:#000000;fill-opacity:1;fill-rule:nonzero;stroke:none"
                     transform="matrix(1,0,0,-1,71.775,63.129)"><tspan
                       id="tspan132"
                       y="0"
                       x="0">2</tspan></text>
<g
                     transform="translate(66.379,63.129)"
                     id="g136" /></g></g><g
                 transform="translate(61.28,7.837)"
                 id="g138" /></g></g><path
             id="path140"
             style="fill:none;stroke:#000000;stroke-width:0.3985;stroke-linecap:butt;stroke-linejoin:miter;stroke-miterlimit:10;stroke-dasharray:none;stroke-opacity:1"
             d="M -28.3468,0.99628 V -0.99628" /><g
             id="g142"><g
               transform="translate(-32.934,-7.837)"
               id="g144"><g
                 id="g146"><g
                   transform="translate(-94.725,-63.129)"
                   id="g148"><text
                     id="text152"
                     style="font-variant:normal;font-weight:normal;font-size:4.98129988px;font-family:CMSY5;-inkscape-font-specification:CMSY5;writing-mode:lr-tb;fill:#000000;fill-opacity:1;fill-rule:nonzero;stroke:none"
                     transform="matrix(1,0,0,-1,94.725,63.129)"><tspan
                       id="tspan150"
                       y="0"
                       x="0">−</tspan></text>
<text
                     id="text156"
                     style="font-variant:normal;font-weight:normal;font-size:4.98129988px;font-family:CMBX5;-inkscape-font-specification:CMBX5;writing-mode:lr-tb;fill:#000000;fill-opacity:1;fill-rule:nonzero;stroke:none"
                     transform="matrix(1,0,0,-1,100.122,63.129)"><tspan
                       id="tspan154"
                       y="0"
                       x="0">1</tspan></text>
<g
                     transform="translate(94.725,63.129)"
                     id="g158" /></g></g><g
                 transform="translate(32.934,7.837)"
                 id="g160" /></g></g><path
             id="path162"
             style="fill:none;stroke:#000000;stroke-width:0.3985;stroke-linecap:butt;stroke-linejoin:miter;stroke-miterlimit:10;stroke-dasharray:none;stroke-opacity:1"
             d="M 0,0.99628 V -0.99628" /><g
             id="g164"><g
               transform="translate(-1.889,-7.726)"
               id="g166"><g
                 id="g168"><g
                   transform="translate(-125.77,-63.24)"
                   id="g170"><text
                     id="text174"
                     style="font-variant:normal;font-weight:normal;font-size:4.98129988px;font-family:CMBX5;-inkscape-font-specification:CMBX5;writing-mode:lr-tb;fill:#000000;fill-opacity:1;fill-rule:nonzero;stroke:none"
                     transform="matrix(1,0,0,-1,125.77,63.24)"><tspan
                       id="tspan172"
                       y="0"
                       x="0">0</tspan></text>
<g
                     transform="translate(125.77,63.24)"
                     id="g176" /></g></g><g
                 transform="translate(1.889,7.726)"
                 id="g178" /></g></g><path
             id="path180"
             style="fill:none;stroke:#000000;stroke-width:0.3985;stroke-linecap:butt;stroke-linejoin:miter;stroke-miterlimit:10;stroke-dasharray:none;stroke-opacity:1"
             d="M 28.3468,0.99628 V -0.99628" /><g
             id="g182"><g
               transform="translate(26.457,-7.726)"
               id="g184"><g
                 id="g186"><g
                   transform="translate(-154.116,-63.24)"
                   id="g188"><text
                     id="text192"
                     style="font-variant:normal;font-weight:normal;font-size:4.98129988px;font-family:CMBX5;-inkscape-font-specification:CMBX5;writing-mode:lr-tb;fill:#000000;fill-opacity:1;fill-rule:nonzero;stroke:none"
                     transform="matrix(1,0,0,-1,154.116,63.24)"><tspan
                       id="tspan190"
                       y="0"
                       x="0">1</tspan></text>
<g
                     transform="translate(154.116,63.24)"
                     id="g194" /></g></g><g
                 transform="translate(-26.457,7.726)"
                 id="g196" /></g></g><path
             id="path198"
             style="fill:none;stroke:#000000;stroke-width:0.3985;stroke-linecap:butt;stroke-linejoin:miter;stroke-miterlimit:10;stroke-dasharray:none;stroke-opacity:1"
             d="M 56.69363,0.99628 V -0.99628" /><g
             id="g200"><g
               transform="translate(54.804,-7.726)"
               id="g202"><g
                 id="g204"><g
                   transform="translate(-182.463,-63.24)"
                   id="g206"><text
                     id="text210"
                     style="font-variant:normal;font-weight:normal;font-size:4.98129988px;font-family:CMBX5;-inkscape-font-specification:CMBX5;writing-mode:lr-tb;fill:#000000;fill-opacity:1;fill-rule:nonzero;stroke:none"
                     transform="matrix(1,0,0,-1,182.463,63.24)"><tspan
                       id="tspan208"
                       y="0"
                       x="0">2</tspan></text>
<g
                     transform="translate(182.463,63.24)"
                     id="g212" /></g></g><g
                 transform="translate(-54.804,7.726)"
                 id="g214" /></g></g><path
             id="path216"
             style="fill:none;stroke:#000000;stroke-width:0.3985;stroke-linecap:butt;stroke-linejoin:miter;stroke-miterlimit:10;stroke-dasharray:none;stroke-opacity:1"
             d="M 85.04045,0.99628 V -0.99628" /><g
             id="g218"><g
               transform="translate(83.15,-7.726)"
               id="g220"><g
                 id="g222"><g
                   transform="translate(-210.809,-63.24)"
                   id="g224"><text
                     id="text228"
                     style="font-variant:normal;font-weight:normal;font-size:4.98129988px;font-family:CMBX5;-inkscape-font-specification:CMBX5;writing-mode:lr-tb;fill:#000000;fill-opacity:1;fill-rule:nonzero;stroke:none"
                     transform="matrix(1,0,0,-1,210.809,63.24)"><tspan
                       id="tspan226"
                       y="0"
                       x="0">3</tspan></text>
<g
                     transform="translate(210.809,63.24)"
                     id="g230" /></g></g><g
                 transform="translate(-83.15,7.726)"
                 id="g232" /></g></g><path
             id="path234"
             style="fill:none;stroke:#000000;stroke-width:0.3985;stroke-linecap:butt;stroke-linejoin:miter;stroke-miterlimit:10;stroke-dasharray:none;stroke-opacity:1"
             d="M 113.38728,0.99628 V -0.99628" /><g
             id="g236"><g
               transform="translate(111.497,-7.726)"
               id="g238"><g
                 id="g240"><g
                   transform="translate(-239.156,-63.24)"
                   id="g242"><text
                     id="text246"
                     style="font-variant:normal;font-weight:normal;font-size:4.98129988px;font-family:CMBX5;-inkscape-font-specification:CMBX5;writing-mode:lr-tb;fill:#000000;fill-opacity:1;fill-rule:nonzero;stroke:none"
                     transform="matrix(1,0,0,-1,239.156,63.24)"><tspan
                       id="tspan244"
                       y="0"
                       x="0">4</tspan></text>
<g
                     transform="translate(239.156,63.24)"
                     id="g248" /></g></g><g
                 transform="translate(-111.497,7.726)"
                 id="g250" /></g></g><path
             id="path252"
             style="fill:none;stroke:#000000;stroke-width:0.3985;stroke-linecap:butt;stroke-linejoin:miter;stroke-miterlimit:10;stroke-dasharray:none;stroke-opacity:1"
             d="M 0.99628,-56.69363 H -0.99628" /><g
             id="g254"><g
               transform="translate(-13.69,-57.938)"
               id="g256"><g
                 id="g258"><g
                   transform="translate(-113.969,-13.028)"
                   id="g260"><text
                     id="text264"
                     style="font-variant:normal;font-weight:normal;font-size:4.98129988px;font-family:CMSY5;-inkscape-font-specification:CMSY5;writing-mode:lr-tb;fill:#000000;fill-opacity:1;fill-rule:nonzero;stroke:none"
                     transform="matrix(1,0,0,-1,113.969,13.028)"><tspan
                       id="tspan262"
                       y="0"
                       x="0">−</tspan></text>
<text
                     id="text268"
                     style="font-variant:normal;font-weight:normal;font-size:4.98129988px;font-family:CMBX5;-inkscape-font-specification:CMBX5;writing-mode:lr-tb;fill:#000000;fill-opacity:1;fill-rule:nonzero;stroke:none"
                     transform="matrix(1,0,0,-1,119.365,13.028)"><tspan
                       id="tspan266"
                       y="0"
                       x="0">2</tspan></text>
<g
                     transform="translate(113.969,13.028)"
                     id="g270" /></g></g><g
                 transform="translate(13.69,57.938)"
                 id="g272" /></g></g><path
             id="path274"
             style="fill:none;stroke:#000000;stroke-width:0.3985;stroke-linecap:butt;stroke-linejoin:miter;stroke-miterlimit:10;stroke-dasharray:none;stroke-opacity:1"
             d="M 0.99628,-28.3468 H -0.99628" /><g
             id="g276"><g
               transform="translate(-13.69,-29.592)"
               id="g278"><g
                 id="g280"><g
                   transform="translate(-113.969,-41.374)"
                   id="g282"><text
                     id="text286"
                     style="font-variant:normal;font-weight:normal;font-size:4.98129988px;font-family:CMSY5;-inkscape-font-specification:CMSY5;writing-mode:lr-tb;fill:#000000;fill-opacity:1;fill-rule:nonzero;stroke:none"
                     transform="matrix(1,0,0,-1,113.969,41.374)"><tspan
                       id="tspan284"
                       y="0"
                       x="0">−</tspan></text>
<text
                     id="text290"
                     style="font-variant:normal;font-weight:normal;font-size:4.98129988px;font-family:CMBX5;-inkscape-font-specification:CMBX5;writing-mode:lr-tb;fill:#000000;fill-opacity:1;fill-rule:nonzero;stroke:none"
                     transform="matrix(1,0,0,-1,119.365,41.374)"><tspan
                       id="tspan288"
                       y="0"
                       x="0">1</tspan></text>
<g
                     transform="translate(113.969,41.374)"
                     id="g292" /></g></g><g
                 transform="translate(13.69,29.592)"
                 id="g294" /></g></g><path
             id="path296"
             style="fill:none;stroke:#000000;stroke-width:0.3985;stroke-linecap:butt;stroke-linejoin:miter;stroke-miterlimit:10;stroke-dasharray:none;stroke-opacity:1"
             d="M 0.99628,0 H -0.99628" /><g
             id="g298"><g
               transform="translate(-8.294,-1.605)"
               id="g300"><g
                 id="g302"><g
                   transform="translate(-119.365,-69.361)"
                   id="g304"><text
                     id="text308"
                     style="font-variant:normal;font-weight:normal;font-size:4.98129988px;font-family:CMBX5;-inkscape-font-specification:CMBX5;writing-mode:lr-tb;fill:#000000;fill-opacity:1;fill-rule:nonzero;stroke:none"
                     transform="matrix(1,0,0,-1,119.365,69.361)"><tspan
                       id="tspan306"
                       y="0"
                       x="0">0</tspan></text>
<g
                     transform="translate(119.365,69.361)"
                     id="g310" /></g></g><g
                 transform="translate(8.294,1.605)"
                 id="g312" /></g></g><path
             id="path314"
             style="fill:none;stroke:#000000;stroke-width:0.3985;stroke-linecap:butt;stroke-linejoin:miter;stroke-miterlimit:10;stroke-dasharray:none;stroke-opacity:1"
             d="M 0.99628,28.3468 H -0.99628" /><g
             id="g316"><g
               transform="translate(-8.294,26.741)"
               id="g318"><g
                 id="g320"><g
                   transform="translate(-119.365,-97.707)"
                   id="g322"><text
                     id="text326"
                     style="font-variant:normal;font-weight:normal;font-size:4.98129988px;font-family:CMBX5;-inkscape-font-specification:CMBX5;writing-mode:lr-tb;fill:#000000;fill-opacity:1;fill-rule:nonzero;stroke:none"
                     transform="matrix(1,0,0,-1,119.365,97.707)"><tspan
                       id="tspan324"
                       y="0"
                       x="0">1</tspan></text>
<g
                     transform="translate(119.365,97.707)"
                     id="g328" /></g></g><g
                 transform="translate(8.294,-26.741)"
                 id="g330" /></g></g><path
             id="path332"
             style="fill:none;stroke:#000000;stroke-width:0.3985;stroke-linecap:butt;stroke-linejoin:miter;stroke-miterlimit:10;stroke-dasharray:none;stroke-opacity:1"
             d="M 0.99628,56.69363 H -0.99628" /><g
             id="g334"><g
               transform="translate(-8.294,55.088)"
               id="g336"><g
                 id="g338"><g
                   transform="translate(-119.365,-126.054)"
                   id="g340"><text
                     id="text344"
                     style="font-variant:normal;font-weight:normal;font-size:4.98129988px;font-family:CMBX5;-inkscape-font-specification:CMBX5;writing-mode:lr-tb;fill:#000000;fill-opacity:1;fill-rule:nonzero;stroke:none"
                     transform="matrix(1,0,0,-1,119.365,126.054)"><tspan
                       id="tspan342"
                       y="0"
                       x="0">2</tspan></text>
<g
                     transform="translate(119.365,126.054)"
                     id="g346" /></g></g><g
                 transform="translate(8.294,-55.088)"
                 id="g348" /></g></g><g
             id="g350"><path
               id="path352"
               style="fill:none;stroke:#0000ff;stroke-width:0.3985;stroke-linecap:butt;stroke-linejoin:miter;stroke-miterlimit:10;stroke-dasharray:none;stroke-opacity:1"
               d="m -113.38724,-37.7956 2.2903,6.68748 2.2903,6.32414 2.29028,5.96945 2.2903,5.6217 2.29028,5.28129 2.29028,4.94866 2.29029,4.62338 2.2903,4.30547 2.29028,3.99581 2.29029,3.69256 2.29029,3.39716 2.29029,3.10951 2.29028,2.82879 2.2903,2.55631 2.2903,2.29073 2.29028,2.03293 2.29028,1.78205 2.29029,1.5394 2.2903,1.30367 2.29028,1.07573 2.29028,0.85512 2.2903,0.64231 2.29028,0.43601 2.29029,0.23833 2.29028,0.04757 2.2903,-0.1358 2.2903,-0.31143 2.29028,-0.47927 2.2903,-0.64057 2.29028,-0.79372 2.29028,-0.93947 2.29029,-1.07788 2.29029,-1.20894 2.29029,-1.33223 2.29028,-1.44813 2.29029,-1.55671 2.29029,-1.65748 2.29029,-1.75092 2.2903,-1.83699 2.29029,-1.91571 2.29029,-1.98665 2.29028,-2.05023 2.29028,-2.10646 2.2903,-2.15533 2.29029,-2.19599 2.29028,-2.23018 2.2903,-2.2561 2.29028,-2.27472 2.29028,-2.28641 2.29026,-2.28939 2.29031,-2.2864 2.29028,-2.27515 2.29029,-2.25654 2.29028,-2.23018 2.2903,-2.19684 2.29028,-2.15579 2.29029,-2.10731 2.2903,-2.05154 2.29028,-1.9875 2.29028,-1.91702 2.29028,-1.83827 2.2903,-1.75221 2.29028,-1.65923 2.2903,-1.558 2.2903,-1.4503 2.29028,-1.33395 2.29029,-1.21067 2.29028,-1.08005 2.2903,-0.94163 2.29028,-0.79631 2.29029,-0.64275 2.29028,-0.48226 2.2903,-0.31403 2.29028,-0.13842 2.29028,0.04456 2.29032,0.23487 2.29028,0.43339 2.29028,0.63886 2.29029,0.85167 2.2903,1.07226 2.29028,1.29978 2.29028,1.53551 2.29029,1.77859 2.2903,2.02861 2.29028,2.28682 2.29028,2.55197 2.2903,2.82449 2.2903,3.10518 2.29028,3.39282 2.29028,3.68782 2.2903,3.99105 2.29028,4.30072 2.29029,4.61773 2.2903,4.94391 2.29028,5.27609 2.29028,5.6161 2.29029,5.96382 2.2903,6.31895 2.29028,6.68141" /></g></g></g></g></g></svg>