<?xml version="1.0" encoding="UTF-8" standalone="no"?>
<!DOCTYPE svg PUBLIC "-//W3C//DTD SVG 1.1//EN" "http://www.w3.org/Graphics/SVG/1.1/DTD/svg11.dtd">
<svg xmlns="http://www.w3.org/2000/svg" xmlns:xlink="http://www.w3.org/1999/xlink" version="1.1" width="198.624pt" height="198.624pt" viewBox="0 0 198.624 198.624">
<g enable-background="new">
<path transform="matrix(1,0,0,-1,99.312,156.00499)" stroke-width=".19925" stroke-linecap="butt" stroke-miterlimit="10" stroke-linejoin="miter" fill="none" stroke="#cbcbcb" d="M -99.21382 -28.3468 L 99.21382 -28.3468 M -99.21382 0 L 99.21382 0 M -99.21382 28.3468 L 99.21382 28.3468 M -99.21382 56.69362 L 99.21382 56.69362 M -99.21382 85.04042 L 99.21382 85.04042 M -99.21382 113.38724 L 99.21382 113.38724 M -99.21382 141.73404 L 99.21382 141.73404 M -85.04042 -42.5202 L -85.04042 155.90744 M -56.69362 -42.5202 L -56.69362 155.90744 M -28.3468 -42.5202 L -28.3468 155.90744 M 0 -42.5202 L 0 155.90744 M 28.3468 -42.5202 L 28.3468 155.90744 M 56.69362 -42.5202 L 56.69362 155.90744 M 85.04042 -42.5202 L 85.04042 155.90744 M 99.21382 155.90744 "/>
<path transform="matrix(1,0,0,-1,99.312,156.00499)" stroke-width=".79701" stroke-linecap="butt" stroke-miterlimit="10" stroke-linejoin="miter" fill="none" stroke="#000000" d="M -85.04042 0 L 85.04042 0 "/>
<path transform="matrix(1,0,0,-1,99.312,156.00499)" stroke-width=".3985" stroke-linecap="butt" stroke-miterlimit="10" stroke-linejoin="miter" fill="none" stroke="#0000ff" d="M 70.867 70.867 C 70.867 110.00629 39.13927 141.73403 0 141.73403 C -39.13927 141.73403 -70.867 110.00629 -70.867 70.867 C -70.867 31.72774 -39.13927 0 0 0 C 39.13927 0 70.867 31.72774 70.867 70.867 Z M 0 70.867 "/>
<path transform="matrix(1,0,0,-1,99.312,156.00499)" d="M 1.99255 0 C 1.99255 1.10046 1.10046 1.99255 0 1.99255 C -1.10046 1.99255 -1.99255 1.10046 -1.99255 0 C -1.99255 -1.10046 -1.10046 -1.99255 0 -1.99255 C 1.10046 -1.99255 1.99255 -1.10046 1.99255 0 Z M 0 0 "/>
<path transform="matrix(1,0,0,-1,99.312,156.00499)" stroke-width=".3985" stroke-linecap="butt" stroke-miterlimit="10" stroke-linejoin="miter" fill="none" stroke="#000000" d="M 1.99255 0 C 1.99255 1.10046 1.10046 1.99255 0 1.99255 C -1.10046 1.99255 -1.99255 1.10046 -1.99255 0 C -1.99255 -1.10046 -1.10046 -1.99255 0 -1.99255 C 1.10046 -1.99255 1.99255 -1.10046 1.99255 0 Z M 0 0 "/>
<text xml:space="preserve" transform="matrix(1 0 -0 1 -.0000076293949 198.624)" font-size="4.9813" font-family="CMMI5" font-style="italic"><tspan y="-35.696" x="96.731">A</tspan></text>
<path transform="matrix(1,0,0,-1,99.312,156.00499)" d="M 52.1012 20.75836 C 52.1012 21.85883 51.20912 22.75092 50.10864 22.75092 C 49.00818 22.75092 48.11609 21.85883 48.11609 20.75836 C 48.11609 19.65788 49.00818 18.76581 50.10864 18.76581 C 51.20912 18.76581 52.1012 19.65788 52.1012 20.75836 Z M 50.10864 20.75836 "/>
<path transform="matrix(1,0,0,-1,99.312,156.00499)" stroke-width=".3985" stroke-linecap="butt" stroke-miterlimit="10" stroke-linejoin="miter" fill="none" stroke="#000000" d="M 52.1012 20.75836 C 52.1012 21.85883 51.20912 22.75092 50.10864 22.75092 C 49.00818 22.75092 48.11609 21.85883 48.11609 20.75836 C 48.11609 19.65788 49.00818 18.76581 50.10864 18.76581 C 51.20912 18.76581 52.1012 19.65788 52.1012 20.75836 Z M 50.10864 20.75836 "/>
<text xml:space="preserve" transform="matrix(1 0 -0 1 0 198.62398)" font-size="4.9813" font-family="CMMI5" font-style="italic"><tspan y="-56.454" x="152.94">B</tspan></text>
<path transform="matrix(1,0,0,-1,99.312,156.00499)" d="M 72.85956 70.867 C 72.85956 71.96748 71.96748 72.85956 70.867 72.85956 C 69.76654 72.85956 68.87445 71.96748 68.87445 70.867 C 68.87445 69.76654 69.76654 68.87445 70.867 68.87445 C 71.96748 68.87445 72.85956 69.76654 72.85956 70.867 Z M 70.867 70.867 "/>
<path transform="matrix(1,0,0,-1,99.312,156.00499)" stroke-width=".3985" stroke-linecap="butt" stroke-miterlimit="10" stroke-linejoin="miter" fill="none" stroke="#000000" d="M 72.85956 70.867 C 72.85956 71.96748 71.96748 72.85956 70.867 72.85956 C 69.76654 72.85956 68.87445 71.96748 68.87445 70.867 C 68.87445 69.76654 69.76654 68.87445 70.867 68.87445 C 71.96748 68.87445 72.85956 69.76654 72.85956 70.867 Z M 70.867 70.867 "/>
<text xml:space="preserve" transform="matrix(1 0 -0 1 0 198.624)" font-size="4.9813" font-family="CMMI5" font-style="italic"><tspan y="-111.783" x="173.698">C</tspan></text>
<path transform="matrix(1,0,0,-1,99.312,156.00499)" d="M 52.1012 120.97566 C 52.1012 122.07614 51.20912 122.96822 50.10864 122.96822 C 49.00818 122.96822 48.11609 122.07614 48.11609 120.97566 C 48.11609 119.8752 49.00818 118.98311 50.10864 118.98311 C 51.20912 118.98311 52.1012 119.8752 52.1012 120.97566 Z M 50.10864 120.97566 "/>
<path transform="matrix(1,0,0,-1,99.312,156.00499)" stroke-width=".3985" stroke-linecap="butt" stroke-miterlimit="10" stroke-linejoin="miter" fill="none" stroke="#000000" d="M 52.1012 120.97566 C 52.1012 122.07614 51.20912 122.96822 50.10864 122.96822 C 49.00818 122.96822 48.11609 122.07614 48.11609 120.97566 C 48.11609 119.8752 49.00818 118.98311 50.10864 118.98311 C 51.20912 118.98311 52.1012 119.8752 52.1012 120.97566 Z M 50.10864 120.97566 "/>
<text xml:space="preserve" transform="matrix(1 0 -0 1 0 198.624)" font-size="4.9813" font-family="CMMI5" font-style="italic"><tspan y="-167.113" x="152.94">D</tspan></text>
<path transform="matrix(1,0,0,-1,99.312,156.00499)" d="M 1.99255 141.73404 C 1.99255 142.83452 1.10046 143.7266 0 143.7266 C -1.10046 143.7266 -1.99255 142.83452 -1.99255 141.73404 C -1.99255 140.63358 -1.10046 139.74149 0 139.74149 C 1.10046 139.74149 1.99255 140.63358 1.99255 141.73404 Z M 0 141.73404 "/>
<path transform="matrix(1,0,0,-1,99.312,156.00499)" stroke-width=".3985" stroke-linecap="butt" stroke-miterlimit="10" stroke-linejoin="miter" fill="none" stroke="#000000" d="M 1.99255 141.73404 C 1.99255 142.83452 1.10046 143.7266 0 143.7266 C -1.10046 143.7266 -1.99255 142.83452 -1.99255 141.73404 C -1.99255 140.63358 -1.10046 139.74149 0 139.74149 C 1.10046 139.74149 1.99255 140.63358 1.99255 141.73404 Z M 0 141.73404 "/>
<text xml:space="preserve" transform="matrix(1 0 -0 1 -.0000076293949 198.624)" font-size="4.9813" font-family="CMMI5" font-style="italic"><tspan y="-187.871" x="96.676">E</tspan></text>
</g>
</svg>
