<?xml version="1.0" encoding="UTF-8" standalone="no"?>
<!DOCTYPE svg PUBLIC "-//W3C//DTD SVG 1.1//EN" "http://www.w3.org/Graphics/SVG/1.1/DTD/svg11.dtd">
<svg xmlns="http://www.w3.org/2000/svg" xmlns:xlink="http://www.w3.org/1999/xlink" version="1.1" width="45.182pt" height="56.542pt" viewBox="0 0 45.182 56.542">
<g enable-background="new">
<path transform="matrix(1,0,0,-1,-8.881,45.412)" d="M 14.17339 0 L 14.17339 10.63004 L 14.45929 10.98904 L 14.74521 11.35065 L 15.03111 11.71442 L 15.31702 12.0812 L 15.60292 12.44972 L 15.88884 12.81998 L 16.17474 13.19283 L 16.46065 13.56654 L 16.74655 13.94241 L 17.03247 14.31917 L 17.31837 14.69719 L 17.60428 15.0761 L 17.89018 15.45586 L 18.1761 15.8365 L 18.462 16.21713 L 18.74791 16.59819 L 19.03381 16.97969 L 19.31973 17.36076 L 19.60564 17.7414 L 19.89154 18.12202 L 20.17746 18.5018 L 20.46336 18.88069 L 20.74927 19.25917 L 21.03517 19.63591 L 21.32109 20.01135 L 21.607 20.38594 L 21.8929 20.75836 L 22.1788 21.12904 L 22.46472 21.49754 L 22.75063 21.86392 L 23.03653 22.22812 L 23.32243 22.5897 L 23.60835 22.94872 L 23.89426 23.3047 L 24.18015 23.65808 L 24.46605 24.00758 L 24.75197 24.35403 L 25.03787 24.69704 L 25.32378 25.03572 L 25.6097 25.37094 L 25.8956 25.70226 L 26.1815 26.02882 L 26.4674 26.35107 L 26.75333 26.66898 L 27.03923 26.9817 L 27.32513 27.28967 L 27.61104 27.59245 L 27.89696 27.89047 L 28.18286 28.18199 L 28.46877 28.46834 L 28.75467 28.74907 L 29.04059 29.02328 L 29.32649 29.29146 L 29.6124 29.55357 L 29.8983 29.80878 L 30.18422 30.05748 L 30.47012 30.29971 L 30.75603 30.5337 L 31.04195 30.76123 L 31.32785 30.98183 L 31.61375 31.19376 L 31.89966 31.39922 L 32.18558 31.59558 L 32.47148 31.7846 L 32.75739 31.96498 L 33.04329 32.13669 L 33.32921 32.29976 L 33.61511 32.4546 L 33.90102 32.5995 L 34.18692 32.73619 L 34.47284 32.86336 L 34.75874 32.98058 L 35.04465 33.08871 L 35.33055 33.18646 L 35.61647 33.27426 L 35.90237 33.35213 L 36.18828 33.4196 L 36.4742 33.47583 L 36.7601 33.52213 L 37.04599 33.55714 L 37.3319 33.58138 L 37.61781 33.59435 L 37.90372 33.59566 L 38.18962 33.5857 L 38.47552 33.5632 L 38.76144 33.52946 L 39.04735 33.48361 L 39.33325 33.42522 L 39.61916 33.3543 L 39.90508 33.27124 L 40.19098 33.17436 L 40.47688 33.06534 L 40.7628 32.94293 L 41.0487 32.80713 L 41.33461 32.6579 L 41.62051 32.49483 L 41.90643 32.31792 L 42.19234 32.12717 L 42.47824 31.9217 L 42.5202 0 L 14.17339 0 " fill="#0000ff" fill-opacity=".3"/>
<path transform="matrix(1,0,0,-1,-8.881,45.412)" stroke-width=".3985" stroke-linecap="butt" stroke-miterlimit="10" stroke-linejoin="miter" fill="none" stroke="#0000ff" d="M 14.17339 0 L 14.17339 10.63004 L 14.45929 10.98904 L 14.74521 11.35065 L 15.03111 11.71442 L 15.31702 12.0812 L 15.60292 12.44972 L 15.88884 12.81998 L 16.17474 13.19283 L 16.46065 13.56654 L 16.74655 13.94241 L 17.03247 14.31917 L 17.31837 14.69719 L 17.60428 15.0761 L 17.89018 15.45586 L 18.1761 15.8365 L 18.462 16.21713 L 18.74791 16.59819 L 19.03381 16.97969 L 19.31973 17.36076 L 19.60564 17.7414 L 19.89154 18.12202 L 20.17746 18.5018 L 20.46336 18.88069 L 20.74927 19.25917 L 21.03517 19.63591 L 21.32109 20.01135 L 21.607 20.38594 L 21.8929 20.75836 L 22.1788 21.12904 L 22.46472 21.49754 L 22.75063 21.86392 L 23.03653 22.22812 L 23.32243 22.5897 L 23.60835 22.94872 L 23.89426 23.3047 L 24.18015 23.65808 L 24.46605 24.00758 L 24.75197 24.35403 L 25.03787 24.69704 L 25.32378 25.03572 L 25.6097 25.37094 L 25.8956 25.70226 L 26.1815 26.02882 L 26.4674 26.35107 L 26.75333 26.66898 L 27.03923 26.9817 L 27.32513 27.28967 L 27.61104 27.59245 L 27.89696 27.89047 L 28.18286 28.18199 L 28.46877 28.46834 L 28.75467 28.74907 L 29.04059 29.02328 L 29.32649 29.29146 L 29.6124 29.55357 L 29.8983 29.80878 L 30.18422 30.05748 L 30.47012 30.29971 L 30.75603 30.5337 L 31.04195 30.76123 L 31.32785 30.98183 L 31.61375 31.19376 L 31.89966 31.39922 L 32.18558 31.59558 L 32.47148 31.7846 L 32.75739 31.96498 L 33.04329 32.13669 L 33.32921 32.29976 L 33.61511 32.4546 L 33.90102 32.5995 L 34.18692 32.73619 L 34.47284 32.86336 L 34.75874 32.98058 L 35.04465 33.08871 L 35.33055 33.18646 L 35.61647 33.27426 L 35.90237 33.35213 L 36.18828 33.4196 L 36.4742 33.47583 L 36.7601 33.52213 L 37.04599 33.55714 L 37.3319 33.58138 L 37.61781 33.59435 L 37.90372 33.59566 L 38.18962 33.5857 L 38.47552 33.5632 L 38.76144 33.52946 L 39.04735 33.48361 L 39.33325 33.42522 L 39.61916 33.3543 L 39.90508 33.27124 L 40.19098 33.17436 L 40.47688 33.06534 L 40.7628 32.94293 L 41.0487 32.80713 L 41.33461 32.6579 L 41.62051 32.49483 L 41.90643 32.31792 L 42.19234 32.12717 L 42.47824 31.9217 L 42.5202 0 L 14.17339 0 "/>
<path transform="matrix(1,0,0,-1,-8.881,45.412)" stroke-width=".3985" stroke-linecap="butt" stroke-miterlimit="10" stroke-linejoin="miter" fill="none" stroke="#000000" d="M 14.17339 0 L 14.17339 0 "/>
<text xml:space="preserve" transform="matrix(1 0 -0 1 .00000071525576 56.542)" font-size="4.9813" font-family="CMMI5" font-style="italic"><tspan y="-5.465" x="3.32">x</tspan></text>
<path transform="matrix(1,0,0,-1,-8.881,45.412)" stroke-width=".3985" stroke-linecap="butt" stroke-miterlimit="10" stroke-linejoin="miter" fill="none" stroke="#000000" d="M 42.5202 0 L 42.5202 0 "/>
<text xml:space="preserve" transform="matrix(1 0 -0 1 0 56.542)" font-size="4.9813" font-family="CMMI5" font-style="italic"><tspan y="-4.151" x="25.416">x</tspan></text>
<text xml:space="preserve" transform="matrix(1 0 -0 1 0 56.542)" font-size="4.9813" font-family="CMR5"><tspan y="-4.151" x="30.989">+</tspan></text>
<text xml:space="preserve" transform="matrix(1 0 -0 1 0 56.542)" font-size="4.9813" font-family="CMMI5" font-style="italic"><tspan y="-4.151" x="37.739">h</tspan></text>
<path transform="matrix(1,0,0,-1,-8.881,45.412)" stroke-width=".3985" stroke-linecap="butt" stroke-dasharray="2.98883,2.98883" stroke-miterlimit="10" stroke-linejoin="miter" fill="none" stroke="#008080" d="M 14.17339 33.5909 L 42.5202 33.5909 "/>
<text fill="#008080" xml:space="preserve" transform="matrix(1 0 -0 1 .0000009536743 56.542)" font-size="4.9813" font-family="CMMI5" font-style="italic"><tspan y="-49.485" x="11.236">M</tspan></text>
<text fill="#008080" xml:space="preserve" transform="matrix(1 0 -0 1 .0000009536743 56.542)" font-size="4.9813" font-family="CMR5"><tspan y="-49.485" x="18.176">(</tspan></text>
<text fill="#008080" xml:space="preserve" transform="matrix(1 0 -0 1 .0000009536743 56.542)" font-size="4.9813" font-family="CMMI5" font-style="italic"><tspan y="-49.485" x="20.874">h</tspan></text>
<text fill="#008080" xml:space="preserve" transform="matrix(1 0 -0 1 .0000009536743 56.542)" font-size="4.9813" font-family="CMR5"><tspan y="-49.485" x="24.996">)</tspan></text>
<path transform="matrix(1,0,0,-1,-8.881,45.412)" stroke-width=".3985" stroke-linecap="butt" stroke-dasharray="2.98883,2.98883" stroke-miterlimit="10" stroke-linejoin="miter" fill="none" stroke="#ff8000" d="M 14.17339 10.63004 L 42.5202 10.63004 "/>
<text fill="#ff8000" xml:space="preserve" transform="matrix(1 0 -0 1 0 56.542)" font-size="4.9813" font-family="CMMI5" font-style="italic"><tspan y="-14.504" x="11.647">m</tspan></text>
<text fill="#ff8000" xml:space="preserve" transform="matrix(1 0 -0 1 0 56.542)" font-size="4.9813" font-family="CMR5"><tspan y="-14.504" x="17.765">(</tspan></text>
<text fill="#ff8000" xml:space="preserve" transform="matrix(1 0 -0 1 0 56.542)" font-size="4.9813" font-family="CMMI5" font-style="italic"><tspan y="-14.504" x="20.463">h</tspan></text>
<text fill="#ff8000" xml:space="preserve" transform="matrix(1 0 -0 1 0 56.542)" font-size="4.9813" font-family="CMR5"><tspan y="-14.504" x="24.585">)</tspan></text>
<path transform="matrix(1,0,0,-1,-8.881,45.412)" d="M 14.17339 0 L 14.17339 33.5909 L 42.5202 33.5909 L 42.5202 0 L 14.17339 0 " fill="#008080" fill-opacity=".2"/>
<path transform="matrix(1,0,0,-1,-8.881,45.412)" stroke-width=".3985" stroke-linecap="butt" stroke-dasharray="2.98883,2.98883" stroke-miterlimit="10" stroke-linejoin="miter" fill="none" stroke="#008080" d="M 14.17339 0 L 14.17339 33.5909 L 42.5202 33.5909 L 42.5202 0 L 14.17339 0 "/>
<path transform="matrix(1,0,0,-1,-8.881,45.412)" d="M 14.17339 0 L 14.17339 10.63004 L 42.5202 10.63004 L 42.5202 0 L 14.17339 0 " fill="#ff8000" fill-opacity=".2"/>
<path transform="matrix(1,0,0,-1,-8.881,45.412)" stroke-width=".3985" stroke-linecap="butt" stroke-dasharray="2.98883,2.98883" stroke-miterlimit="10" stroke-linejoin="miter" fill="none" stroke="#ff8000" d="M 14.17339 0 L 14.17339 10.63004 L 42.5202 10.63004 L 42.5202 0 L 14.17339 0 "/>
</g>
</svg>
