<?xml version="1.0" standalone="no"?>
<!DOCTYPE svg PUBLIC "-//W3C//DTD SVG 20010904//EN"
 "http://www.w3.org/TR/2001/REC-SVG-20010904/DTD/svg10.dtd">
<svg version="1.0" xmlns="http://www.w3.org/2000/svg"
 width="800.000000pt" height="800.000000pt" viewBox="0 0 800.000000 800.000000"
 preserveAspectRatio="xMidYMid meet">

<g transform="translate(0.000000,800.000000) scale(0.100000,-0.100000)"
fill="#000000" stroke="none">
<path d="M3494 7803 c4 -109 9 -272 11 -363 39 -1293 122 -2049 270 -2430 53
-139 145 -301 201 -358 12 -11 14 -71 12 -325 l-3 -312 -1989 -2 c-1094 -2
-1991 -5 -1994 -8 -3 -3 -3 -7 0 -10 3 -3 900 -6 1994 -8 l1989 -2 2 -1989 c2
-1094 5 -1991 8 -1994 3 -3 7 -3 10 0 3 3 6 900 8 1994 l2 1989 893 2 c490 1
892 -1 892 -5 0 -7 -16 -114 -25 -170 -4 -19 -10 -30 -16 -26 -7 4 -7 10 0 17
15 15 14 50 -1 65 -27 27 -108 3 -108 -31 0 -14 29 -7 38 9 13 23 46 13 50
-14 3 -17 -2 -25 -17 -29 -27 -7 -27 -16 2 -28 27 -12 30 -53 4 -69 -15 -9
-22 -7 -37 12 -20 25 -40 29 -40 9 0 -27 37 -49 74 -45 32 4 34 2 30 -22 -10
-56 -36 -219 -45 -285 -123 -843 -240 -1321 -326 -1333 -45 -7 -108 141 -168
393 -27 114 -31 155 -15 155 15 0 43 61 42 92 -2 61 -69 114 -131 102 -35 -7
-76 -49 -85 -86 -12 -52 40 -128 88 -128 17 0 26 -25 62 -180 33 -141 76 -268
115 -337 25 -44 36 -53 65 -59 47 -9 78 7 107 53 106 170 210 682 362 1773 9
63 18 127 21 142 l6 28 426 -3 427 -2 42 -290 c23 -159 44 -308 47 -330 3 -22
12 -80 21 -130 8 -49 20 -128 25 -175 6 -47 15 -101 20 -120 5 -19 21 -100 35
-180 72 -407 148 -667 220 -744 30 -32 85 -36 115 -6 70 70 154 349 224 745
38 213 93 550 103 625 3 25 24 171 47 325 l41 280 178 3 c107 1 177 6 177 12
0 6 -68 10 -175 10 -101 0 -175 4 -175 9 0 9 64 448 110 750 76 503 169 949
225 1086 19 44 20 95 1 95 -35 0 -105 -235 -182 -615 -19 -96 -105 -631 -148
-932 -30 -205 -57 -377 -61 -382 -4 -7 -149 -10 -425 -10 l-419 0 -5 27 c-3
15 -26 171 -51 347 -34 247 -113 746 -149 950 -12 65 -81 360 -102 433 -13 48
-41 121 -62 162 -30 60 -44 79 -74 93 -33 16 -40 17 -66 3 -77 -40 -162 -304
-247 -771 -27 -151 -93 -555 -101 -620 -3 -22 -24 -170 -48 -330 l-42 -290
-892 -2 c-711 -2 -894 0 -897 10 -3 7 -4 142 -3 300 l3 288 60 -51 c179 -151
457 -258 829 -317 78 -12 110 -22 113 -33 20 -62 80 -104 136 -93 40 8 84 54
92 95 21 114 -118 181 -198 95 -35 -37 -45 -37 -222 -1 -374 77 -604 177 -759
330 l-56 54 0 1652 c0 908 -2 1653 -5 1656 -3 3 -7 3 -10 0 -3 -3 -5 -739 -5
-1637 0 -897 -4 -1631 -8 -1631 -11 0 -96 143 -131 220 -26 60 -80 217 -95
283 l-6 27 71 0 c52 0 70 3 67 13 -3 6 -24 14 -47 17 l-42 5 36 35 c49 47 60
76 40 106 -27 42 -115 25 -115 -22 0 -21 27 -17 33 6 6 24 39 27 57 5 16 -19
14 -23 -51 -93 l-56 -60 -21 112 c-94 489 -138 1078 -178 2394 l-7 222 -25 0
-24 0 6 -197z m2831 -1867 c54 -92 117 -324 179 -661 35 -189 44 -245 92 -550
22 -140 104 -702 104 -711 0 -7 -839 -3 -843 4 -2 4 18 153 44 332 77 523 90
600 175 1065 33 178 98 412 137 490 43 88 73 97 112 31z m-1139 -1672 c39 -59
-45 -126 -98 -77 -18 16 -24 58 -10 80 11 17 53 31 75 25 10 -2 25 -15 33 -28z
m2404 -294 c0 -11 -22 -174 -50 -362 -43 -298 -64 -429 -135 -838 -7 -41 -16
-93 -20 -115 -13 -83 -76 -345 -100 -416 -35 -107 -51 -143 -81 -178 l-27 -32
-25 23 c-55 51 -127 283 -187 603 -3 17 -15 77 -26 135 -32 171 -78 460 -83
527 -2 34 -7 66 -10 71 -7 11 -46 261 -46 293 0 18 3 20 12 11 19 -19 73 -14
93 8 23 25 24 76 2 97 -9 9 -30 16 -46 15 -24 0 -31 4 -31 18 0 15 9 19 42 22
65 5 61 28 -5 28 l-55 0 -7 -51 c-8 -58 -5 -65 23 -50 31 16 50 13 62 -9 26
-48 -28 -92 -61 -51 -9 11 -22 21 -28 21 -5 0 -13 15 -16 33 -15 92 -25 165
-25 189 l0 27 415 0 c404 1 415 0 415 -19z"/>
<path d="M6260 5350 c0 -5 5 -10 10 -10 6 0 10 5 10 10 0 6 -4 10 -10 10 -5 0
-10 -4 -10 -10z"/>
<path d="M6260 4670 c0 -5 5 -10 10 -10 6 0 10 5 10 10 0 6 -4 10 -10 10 -5 0
-10 -4 -10 -10z"/>
<path d="M7381 3854 c-33 -42 -26 -141 13 -166 20 -14 63 -8 79 10 22 24 22
76 0 97 -11 11 -28 15 -50 13 -35 -4 -39 2 -23 33 13 23 48 25 56 4 4 -8 12
-15 20 -15 17 0 17 5 4 31 -16 30 -73 26 -99 -7z m65 -72 c32 -22 18 -85 -18
-80 -29 4 -47 50 -28 72 14 17 29 20 46 8z"/>
<path d="M7400 3350 c0 -5 5 -10 10 -10 6 0 10 5 10 10 0 6 -4 10 -10 10 -5 0
-10 -4 -10 -10z"/>
<path d="M3775 7896 c-21 -32 -22 -119 -1 -151 33 -51 116 -22 116 40 0 51
-65 86 -98 53 -18 -18 -16 12 4 40 18 26 31 28 56 5 22 -19 37 -9 22 15 -6 10
-27 18 -47 20 -29 3 -39 -2 -52 -22z m73 -78 c30 -30 -2 -93 -36 -71 -21 13
-27 50 -12 69 15 17 32 18 48 2z"/>
<path d="M3776 7443 c-3 -10 -8 -35 -12 -55 -7 -41 2 -47 36 -26 25 16 54 1
58 -31 7 -46 -47 -70 -68 -31 -12 23 -30 27 -30 6 0 -44 75 -61 110 -26 43 43
12 114 -49 112 -24 0 -28 3 -24 19 4 15 14 19 44 19 28 0 39 4 39 15 0 23 -97
21 -104 -2z"/>
<path d="M2 7334 c3 -24 52 -56 438 -281 239 -139 482 -282 540 -316 58 -34
127 -75 155 -90 27 -16 166 -97 309 -180 142 -84 284 -166 315 -183 31 -18
133 -77 226 -132 l170 -100 7 -48 c10 -67 51 -107 110 -107 24 0 55 7 69 16
25 17 29 14 494 -258 434 -253 470 -276 467 -299 -8 -75 70 -145 140 -125 74
20 112 91 82 154 -32 68 -89 93 -149 64 -21 -11 -43 -19 -49 -19 -6 0 -218
121 -471 269 l-460 269 -1 34 c-1 43 -29 92 -62 110 -34 18 -99 14 -122 -7
-19 -17 -27 -13 -252 119 -128 75 -240 141 -248 146 -22 13 -463 270 -610 355
-407 235 -1047 610 -1061 621 -25 22 -41 17 -37 -12z m2321 -1282 c37 -32 5
-104 -46 -104 -49 0 -75 39 -57 86 16 44 63 52 103 18z m1120 -653 c28 -15 37
-28 37 -56 0 -29 -33 -63 -62 -63 -55 0 -81 83 -36 114 27 19 33 19 61 5z"/>
<path d="M560 7350 c0 -5 5 -10 10 -10 6 0 10 5 10 10 0 6 -4 10 -10 10 -5 0
-10 -4 -10 -10z"/>
<path d="M1120 7350 c0 -5 5 -10 10 -10 6 0 10 5 10 10 0 6 -4 10 -10 10 -5 0
-10 -4 -10 -10z"/>
<path d="M1700 7350 c0 -5 5 -10 10 -10 6 0 10 5 10 10 0 6 -4 10 -10 10 -5 0
-10 -4 -10 -10z"/>
<path d="M2260 7350 c0 -5 5 -10 10 -10 6 0 10 5 10 10 0 6 -4 10 -10 10 -5 0
-10 -4 -10 -10z"/>
<path d="M2840 7350 c0 -5 5 -10 10 -10 6 0 10 5 10 10 0 6 -4 10 -10 10 -5 0
-10 -4 -10 -10z"/>
<path d="M3400 7350 c0 -5 5 -10 10 -10 6 0 10 5 10 10 0 6 -4 10 -10 10 -5 0
-10 -4 -10 -10z"/>
<path d="M4560 7350 c0 -5 5 -10 10 -10 6 0 10 5 10 10 0 6 -4 10 -10 10 -5 0
-10 -4 -10 -10z"/>
<path d="M5120 7350 c0 -5 5 -10 10 -10 6 0 10 5 10 10 0 6 -4 10 -10 10 -5 0
-10 -4 -10 -10z"/>
<path d="M5700 7350 c0 -5 5 -10 10 -10 6 0 10 5 10 10 0 6 -4 10 -10 10 -5 0
-10 -4 -10 -10z"/>
<path d="M6260 7350 c0 -5 5 -10 10 -10 6 0 10 5 10 10 0 6 -4 10 -10 10 -5 0
-10 -4 -10 -10z"/>
<path d="M6840 7350 c0 -5 5 -10 10 -10 6 0 10 5 10 10 0 6 -4 10 -10 10 -5 0
-10 -4 -10 -10z"/>
<path d="M7400 7350 c0 -5 5 -10 10 -10 6 0 10 5 10 10 0 6 -4 10 -10 10 -5 0
-10 -4 -10 -10z"/>
<path d="M3792 6727 c-23 -34 -42 -68 -42 -75 0 -7 15 -12 40 -12 36 0 40 -2
40 -25 0 -16 6 -25 15 -25 9 0 15 9 15 25 0 16 6 25 15 25 8 0 15 5 15 10 0 6
-7 10 -15 10 -12 0 -15 14 -15 65 0 46 -4 65 -13 65 -6 0 -31 -28 -55 -63z
m38 -32 c0 -31 -3 -35 -25 -35 -14 0 -25 3 -25 6 0 8 40 64 46 64 2 0 4 -16 4
-35z"/>
<path d="M560 6670 c0 -5 5 -10 10 -10 6 0 10 5 10 10 0 6 -4 10 -10 10 -5 0
-10 -4 -10 -10z"/>
<path d="M1700 6670 c0 -5 5 -10 10 -10 6 0 10 5 10 10 0 6 -4 10 -10 10 -5 0
-10 -4 -10 -10z"/>
<path d="M2260 6670 c0 -5 5 -10 10 -10 6 0 10 5 10 10 0 6 -4 10 -10 10 -5 0
-10 -4 -10 -10z"/>
<path d="M2840 6670 c0 -5 5 -10 10 -10 6 0 10 5 10 10 0 6 -4 10 -10 10 -5 0
-10 -4 -10 -10z"/>
<path d="M3400 6670 c0 -5 5 -10 10 -10 6 0 10 5 10 10 0 6 -4 10 -10 10 -5 0
-10 -4 -10 -10z"/>
<path d="M4560 6670 c0 -5 5 -10 10 -10 6 0 10 5 10 10 0 6 -4 10 -10 10 -5 0
-10 -4 -10 -10z"/>
<path d="M5120 6670 c0 -5 5 -10 10 -10 6 0 10 5 10 10 0 6 -4 10 -10 10 -5 0
-10 -4 -10 -10z"/>
<path d="M5700 6670 c0 -5 5 -10 10 -10 6 0 10 5 10 10 0 6 -4 10 -10 10 -5 0
-10 -4 -10 -10z"/>
<path d="M6260 6670 c0 -5 5 -10 10 -10 6 0 10 5 10 10 0 6 -4 10 -10 10 -5 0
-10 -4 -10 -10z"/>
<path d="M6840 6670 c0 -5 5 -10 10 -10 6 0 10 5 10 10 0 6 -4 10 -10 10 -5 0
-10 -4 -10 -10z"/>
<path d="M7400 6670 c0 -5 5 -10 10 -10 6 0 10 5 10 10 0 6 -4 10 -10 10 -5 0
-10 -4 -10 -10z"/>
<path d="M3776 6104 c-9 -8 -16 -20 -16 -25 0 -15 27 -10 34 7 9 23 50 14 54
-12 2 -14 -6 -24 -25 -34 l-28 -13 24 -6 c33 -9 49 -36 35 -58 -17 -27 -45
-28 -65 -2 -20 27 -34 21 -24 -10 13 -43 97 -39 117 5 10 21 9 31 -4 55 -10
16 -13 31 -7 34 15 10 10 41 -9 58 -23 21 -66 22 -86 1z"/>
<path d="M560 6010 c0 -5 5 -10 10 -10 6 0 10 5 10 10 0 6 -4 10 -10 10 -5 0
-10 -4 -10 -10z"/>
<path d="M1120 6010 c0 -5 5 -10 10 -10 6 0 10 5 10 10 0 6 -4 10 -10 10 -5 0
-10 -4 -10 -10z"/>
<path d="M1700 6010 c0 -5 5 -10 10 -10 6 0 10 5 10 10 0 6 -4 10 -10 10 -5 0
-10 -4 -10 -10z"/>
<path d="M2840 6010 c0 -5 5 -10 10 -10 6 0 10 5 10 10 0 6 -4 10 -10 10 -5 0
-10 -4 -10 -10z"/>
<path d="M3400 6010 c0 -5 5 -10 10 -10 6 0 10 5 10 10 0 6 -4 10 -10 10 -5 0
-10 -4 -10 -10z"/>
<path d="M4560 6010 c0 -5 5 -10 10 -10 6 0 10 5 10 10 0 6 -4 10 -10 10 -5 0
-10 -4 -10 -10z"/>
<path d="M5120 6010 c0 -5 5 -10 10 -10 6 0 10 5 10 10 0 6 -4 10 -10 10 -5 0
-10 -4 -10 -10z"/>
<path d="M5700 6010 c0 -5 5 -10 10 -10 6 0 10 5 10 10 0 6 -4 10 -10 10 -5 0
-10 -4 -10 -10z"/>
<path d="M6840 6010 c0 -5 5 -10 10 -10 6 0 10 5 10 10 0 6 -4 10 -10 10 -5 0
-10 -4 -10 -10z"/>
<path d="M7400 6010 c0 -5 5 -10 10 -10 6 0 10 5 10 10 0 6 -4 10 -10 10 -5 0
-10 -4 -10 -10z"/>
<path d="M560 5350 c0 -5 5 -10 10 -10 6 0 10 5 10 10 0 6 -4 10 -10 10 -5 0
-10 -4 -10 -10z"/>
<path d="M1120 5350 c0 -5 5 -10 10 -10 6 0 10 5 10 10 0 6 -4 10 -10 10 -5 0
-10 -4 -10 -10z"/>
<path d="M1700 5350 c0 -5 5 -10 10 -10 6 0 10 5 10 10 0 6 -4 10 -10 10 -5 0
-10 -4 -10 -10z"/>
<path d="M2260 5350 c0 -5 5 -10 10 -10 6 0 10 5 10 10 0 6 -4 10 -10 10 -5 0
-10 -4 -10 -10z"/>
<path d="M2840 5350 c0 -5 5 -10 10 -10 6 0 10 5 10 10 0 6 -4 10 -10 10 -5 0
-10 -4 -10 -10z"/>
<path d="M4560 5350 c0 -5 5 -10 10 -10 6 0 10 5 10 10 0 6 -4 10 -10 10 -5 0
-10 -4 -10 -10z"/>
<path d="M5120 5350 c0 -5 5 -10 10 -10 6 0 10 5 10 10 0 6 -4 10 -10 10 -5 0
-10 -4 -10 -10z"/>
<path d="M5700 5350 c0 -5 5 -10 10 -10 6 0 10 5 10 10 0 6 -4 10 -10 10 -5 0
-10 -4 -10 -10z"/>
<path d="M6840 5350 c0 -5 5 -10 10 -10 6 0 10 5 10 10 0 6 -4 10 -10 10 -5 0
-10 -4 -10 -10z"/>
<path d="M7400 5350 c0 -5 5 -10 10 -10 6 0 10 5 10 10 0 6 -4 10 -10 10 -5 0
-10 -4 -10 -10z"/>
<path d="M2235 4776 c-84 -37 -91 -151 -13 -192 41 -21 79 -21 114 2 106 70
15 241 -101 190z"/>
<path d="M3800 4761 c-36 -31 -37 -51 -1 -31 20 10 21 9 21 -65 0 -60 3 -75
15 -75 12 0 15 18 15 100 0 55 -3 100 -7 100 -5 0 -24 -14 -43 -29z"/>
<path d="M560 4670 c0 -5 5 -10 10 -10 6 0 10 5 10 10 0 6 -4 10 -10 10 -5 0
-10 -4 -10 -10z"/>
<path d="M1120 4670 c0 -5 5 -10 10 -10 6 0 10 5 10 10 0 6 -4 10 -10 10 -5 0
-10 -4 -10 -10z"/>
<path d="M1700 4670 c0 -5 5 -10 10 -10 6 0 10 5 10 10 0 6 -4 10 -10 10 -5 0
-10 -4 -10 -10z"/>
<path d="M2840 4670 c0 -5 5 -10 10 -10 6 0 10 5 10 10 0 6 -4 10 -10 10 -5 0
-10 -4 -10 -10z"/>
<path d="M3400 4670 c0 -5 5 -10 10 -10 6 0 10 5 10 10 0 6 -4 10 -10 10 -5 0
-10 -4 -10 -10z"/>
<path d="M4560 4670 c0 -5 5 -10 10 -10 6 0 10 5 10 10 0 6 -4 10 -10 10 -5 0
-10 -4 -10 -10z"/>
<path d="M5120 4670 c0 -5 5 -10 10 -10 6 0 10 5 10 10 0 6 -4 10 -10 10 -5 0
-10 -4 -10 -10z"/>
<path d="M5700 4670 c0 -5 5 -10 10 -10 6 0 10 5 10 10 0 6 -4 10 -10 10 -5 0
-10 -4 -10 -10z"/>
<path d="M6840 4670 c0 -5 5 -10 10 -10 6 0 10 5 10 10 0 6 -4 10 -10 10 -5 0
-10 -4 -10 -10z"/>
<path d="M7400 4670 c0 -5 5 -10 10 -10 6 0 10 5 10 10 0 6 -4 10 -10 10 -5 0
-10 -4 -10 -10z"/>
<path d="M162 3868 c3 -7 24 -14 47 -16 23 -2 41 -6 39 -10 -22 -41 -47 -104
-53 -130 -5 -25 -3 -32 8 -32 9 0 19 18 26 48 7 26 26 68 42 93 16 25 29 49
29 52 0 4 -32 7 -71 7 -52 0 -70 -3 -67 -12z"/>
<path d="M523 3853 c-25 -38 -24 -124 1 -152 58 -64 149 30 94 96 -13 16 -60
17 -76 1 -9 -9 -12 -7 -12 8 0 22 29 54 49 54 6 0 14 -7 17 -15 7 -18 34 -20
34 -2 0 22 -23 37 -57 37 -24 0 -37 -7 -50 -27z m78 -87 c13 -27 -2 -66 -26
-66 -13 0 -45 36 -45 52 0 12 31 38 46 38 8 0 19 -11 25 -24z"/>
<path d="M1096 3863 c-3 -10 -8 -35 -12 -55 -7 -41 2 -47 36 -26 25 16 54 1
58 -31 7 -46 -47 -70 -68 -31 -12 23 -30 27 -30 6 0 -44 75 -61 110 -26 43 43
12 114 -49 112 -24 0 -28 3 -24 19 4 15 14 19 44 19 28 0 39 4 39 15 0 23 -97
21 -104 -2z"/>
<path d="M1685 3818 c-25 -34 -45 -68 -45 -75 0 -9 15 -13 45 -13 41 0 45 -2
45 -25 0 -14 5 -25 10 -25 6 0 10 9 10 20 0 10 8 24 18 30 16 10 16 10 0 20
-14 9 -18 24 -18 70 0 33 -4 60 -10 60 -5 0 -30 -28 -55 -62z m37 -60 c-5 -5
-19 -8 -31 -6 -21 3 -21 4 6 43 l28 40 3 -34 c2 -18 -1 -38 -6 -43z"/>
<path d="M2237 3862 c-10 -10 -17 -22 -17 -25 0 -14 29 -7 38 9 13 23 46 13
50 -14 3 -17 -2 -25 -17 -29 -27 -7 -27 -16 2 -28 27 -12 30 -53 4 -69 -15 -9
-22 -7 -37 12 -20 25 -40 29 -40 9 0 -42 83 -63 113 -29 21 23 22 66 2 82 -11
9 -13 16 -5 24 14 14 13 49 -2 64 -18 18 -73 14 -91 -6z"/>
<path d="M2806 3858 c-9 -12 -16 -26 -16 -30 0 -16 26 -7 38 13 18 29 56 22
60 -11 2 -19 -9 -36 -48 -73 -69 -65 -67 -77 15 -77 51 0 65 3 65 15 0 11 -12
15 -46 15 l-47 0 47 43 c49 47 59 82 30 111 -24 24 -80 20 -98 -6z"/>
<path d="M3408 3855 c-28 -24 -36 -45 -19 -45 6 0 13 5 16 10 16 26 25 3 25
-65 0 -60 3 -75 15 -75 12 0 15 18 15 100 0 110 -5 117 -52 75z"/>
<path d="M3776 3858 c-10 -14 -16 -44 -16 -78 0 -68 19 -100 60 -100 16 0 35
7 44 15 32 33 32 137 0 170 -23 23 -70 19 -88 -7z m74 -17 c14 -28 12 -104 -4
-126 -30 -41 -73 19 -61 85 11 59 44 80 65 41z"/>
<path d="M4548 3855 c-40 -35 -38 -56 3 -35 18 10 19 7 19 -65 0 -60 3 -75 15
-75 12 0 15 18 15 100 0 110 -5 117 -52 75z"/>
<path d="M5096 3864 c-9 -8 -16 -22 -16 -30 0 -22 27 -17 33 7 7 25 44 23 61
-3 8 -14 0 -28 -47 -77 -31 -33 -57 -64 -57 -70 0 -7 27 -11 71 -11 52 0 70 3
67 13 -3 6 -24 14 -47 17 l-42 5 36 35 c49 47 60 76 40 106 -18 29 -75 33 -99
8z"/>
<path d="M6255 3818 c-25 -34 -45 -68 -45 -75 0 -9 15 -13 45 -13 41 0 45 -2
45 -25 0 -14 5 -25 10 -25 6 0 10 9 10 20 0 10 8 24 18 30 16 10 16 10 0 20
-14 9 -18 24 -18 70 0 33 -4 60 -10 60 -5 0 -30 -28 -55 -62z m37 -60 c-5 -5
-19 -8 -31 -6 -21 3 -21 4 6 43 l28 40 3 -34 c2 -18 -1 -38 -6 -43z"/>
<path d="M7800 3865 c0 -11 11 -15 43 -15 l44 0 -29 -56 c-28 -57 -37 -114
-18 -114 6 0 12 6 14 13 2 6 9 30 15 53 6 23 22 58 36 78 14 20 25 41 25 46 0
6 -29 10 -65 10 -51 0 -65 -3 -65 -15z"/>
<path d="M70 3756 c0 -12 11 -16 41 -16 52 0 48 24 -4 28 -28 2 -37 -1 -37
-12z"/>
<path d="M410 3756 c0 -12 11 -16 41 -16 52 0 48 24 -4 28 -28 2 -37 -1 -37
-12z"/>
<path d="M980 3755 c0 -11 11 -15 40 -15 29 0 40 4 40 15 0 11 -11 15 -40 15
-29 0 -40 -4 -40 -15z"/>
<path d="M1550 3755 c0 -11 11 -15 40 -15 29 0 40 4 40 15 0 11 -11 15 -40 15
-29 0 -40 -4 -40 -15z"/>
<path d="M2120 3755 c0 -11 11 -15 40 -15 29 0 40 4 40 15 0 11 -11 15 -40 15
-29 0 -40 -4 -40 -15z"/>
<path d="M2690 3755 c0 -11 11 -15 40 -15 29 0 40 4 40 15 0 11 -11 15 -40 15
-29 0 -40 -4 -40 -15z"/>
<path d="M3270 3755 c0 -10 11 -15 35 -15 24 0 35 5 35 15 0 10 -11 15 -35 15
-24 0 -35 -5 -35 -15z"/>
<path d="M3800 3431 c-36 -31 -37 -51 -1 -31 20 10 21 9 21 -65 0 -60 3 -75
15 -75 12 0 15 18 15 100 0 55 -3 100 -7 100 -5 0 -24 -14 -43 -29z"/>
<path d="M560 3350 c0 -5 5 -10 10 -10 6 0 10 5 10 10 0 6 -4 10 -10 10 -5 0
-10 -4 -10 -10z"/>
<path d="M1120 3350 c0 -5 5 -10 10 -10 6 0 10 5 10 10 0 6 -4 10 -10 10 -5 0
-10 -4 -10 -10z"/>
<path d="M1700 3350 c0 -5 5 -10 10 -10 6 0 10 5 10 10 0 6 -4 10 -10 10 -5 0
-10 -4 -10 -10z"/>
<path d="M2260 3350 c0 -5 5 -10 10 -10 6 0 10 5 10 10 0 6 -4 10 -10 10 -5 0
-10 -4 -10 -10z"/>
<path d="M2840 3350 c0 -5 5 -10 10 -10 6 0 10 5 10 10 0 6 -4 10 -10 10 -5 0
-10 -4 -10 -10z"/>
<path d="M3400 3350 c0 -5 5 -10 10 -10 6 0 10 5 10 10 0 6 -4 10 -10 10 -5 0
-10 -4 -10 -10z"/>
<path d="M4560 3350 c0 -5 5 -10 10 -10 6 0 10 5 10 10 0 6 -4 10 -10 10 -5 0
-10 -4 -10 -10z"/>
<path d="M5120 3350 c0 -5 5 -10 10 -10 6 0 10 5 10 10 0 6 -4 10 -10 10 -5 0
-10 -4 -10 -10z"/>
<path d="M6260 3350 c0 -5 5 -10 10 -10 6 0 10 5 10 10 0 6 -4 10 -10 10 -5 0
-10 -4 -10 -10z"/>
<path d="M3660 3336 c0 -12 11 -16 41 -16 52 0 48 24 -4 28 -28 2 -37 -1 -37
-12z"/>
<path d="M3776 2774 c-9 -8 -16 -22 -16 -30 0 -22 27 -17 33 7 7 25 44 23 61
-3 8 -14 0 -28 -47 -77 -31 -33 -57 -64 -57 -70 0 -7 27 -11 71 -11 52 0 70 3
67 13 -3 6 -24 14 -47 17 l-42 5 36 35 c49 47 60 76 40 106 -18 29 -75 33 -99
8z"/>
<path d="M560 2670 c0 -5 5 -10 10 -10 6 0 10 5 10 10 0 6 -4 10 -10 10 -5 0
-10 -4 -10 -10z"/>
<path d="M1120 2670 c0 -5 5 -10 10 -10 6 0 10 5 10 10 0 6 -4 10 -10 10 -5 0
-10 -4 -10 -10z"/>
<path d="M1700 2670 c0 -5 5 -10 10 -10 6 0 10 5 10 10 0 6 -4 10 -10 10 -5 0
-10 -4 -10 -10z"/>
<path d="M2260 2670 c0 -5 5 -10 10 -10 6 0 10 5 10 10 0 6 -4 10 -10 10 -5 0
-10 -4 -10 -10z"/>
<path d="M2840 2670 c0 -5 5 -10 10 -10 6 0 10 5 10 10 0 6 -4 10 -10 10 -5 0
-10 -4 -10 -10z"/>
<path d="M3400 2670 c0 -5 5 -10 10 -10 6 0 10 5 10 10 0 6 -4 10 -10 10 -5 0
-10 -4 -10 -10z"/>
<path d="M3660 2666 c0 -12 11 -16 41 -16 52 0 48 24 -4 28 -28 2 -37 -1 -37
-12z"/>
<path d="M4560 2670 c0 -5 5 -10 10 -10 6 0 10 5 10 10 0 6 -4 10 -10 10 -5 0
-10 -4 -10 -10z"/>
<path d="M5700 2670 c0 -5 5 -10 10 -10 6 0 10 5 10 10 0 6 -4 10 -10 10 -5 0
-10 -4 -10 -10z"/>
<path d="M6260 2670 c0 -5 5 -10 10 -10 6 0 10 5 10 10 0 6 -4 10 -10 10 -5 0
-10 -4 -10 -10z"/>
<path d="M6840 2670 c0 -5 5 -10 10 -10 6 0 10 5 10 10 0 6 -4 10 -10 10 -5 0
-10 -4 -10 -10z"/>
<path d="M3776 2104 c-9 -8 -16 -20 -16 -25 0 -15 27 -10 34 7 9 23 50 14 54
-12 2 -14 -6 -24 -25 -34 l-28 -13 24 -6 c33 -9 49 -36 35 -58 -17 -27 -45
-28 -65 -2 -20 27 -34 21 -24 -10 13 -43 97 -39 117 5 10 21 9 31 -4 55 -10
16 -13 31 -7 34 15 10 10 41 -9 58 -23 21 -66 22 -86 1z"/>
<path d="M560 2010 c0 -5 5 -10 10 -10 6 0 10 5 10 10 0 6 -4 10 -10 10 -5 0
-10 -4 -10 -10z"/>
<path d="M1120 2010 c0 -5 5 -10 10 -10 6 0 10 5 10 10 0 6 -4 10 -10 10 -5 0
-10 -4 -10 -10z"/>
<path d="M1700 2010 c0 -5 5 -10 10 -10 6 0 10 5 10 10 0 6 -4 10 -10 10 -5 0
-10 -4 -10 -10z"/>
<path d="M2260 2010 c0 -5 5 -10 10 -10 6 0 10 5 10 10 0 6 -4 10 -10 10 -5 0
-10 -4 -10 -10z"/>
<path d="M2840 2010 c0 -5 5 -10 10 -10 6 0 10 5 10 10 0 6 -4 10 -10 10 -5 0
-10 -4 -10 -10z"/>
<path d="M3400 2010 c0 -5 5 -10 10 -10 6 0 10 5 10 10 0 6 -4 10 -10 10 -5 0
-10 -4 -10 -10z"/>
<path d="M4560 2010 c0 -5 5 -10 10 -10 6 0 10 5 10 10 0 6 -4 10 -10 10 -5 0
-10 -4 -10 -10z"/>
<path d="M5120 2010 c0 -5 5 -10 10 -10 6 0 10 5 10 10 0 6 -4 10 -10 10 -5 0
-10 -4 -10 -10z"/>
<path d="M5700 2010 c0 -5 5 -10 10 -10 6 0 10 5 10 10 0 6 -4 10 -10 10 -5 0
-10 -4 -10 -10z"/>
<path d="M6260 2010 c0 -5 5 -10 10 -10 6 0 10 5 10 10 0 6 -4 10 -10 10 -5 0
-10 -4 -10 -10z"/>
<path d="M6840 2010 c0 -5 5 -10 10 -10 6 0 10 5 10 10 0 6 -4 10 -10 10 -5 0
-10 -4 -10 -10z"/>
<path d="M7400 2010 c0 -5 5 -10 10 -10 6 0 10 5 10 10 0 6 -4 10 -10 10 -5 0
-10 -4 -10 -10z"/>
<path d="M3660 1996 c0 -12 11 -16 41 -16 52 0 48 24 -4 28 -28 2 -37 -1 -37
-12z"/>
<path d="M3792 1397 c-23 -34 -42 -68 -42 -75 0 -7 15 -12 40 -12 36 0 40 -2
40 -25 0 -16 6 -25 15 -25 9 0 15 9 15 25 0 16 6 25 15 25 8 0 15 5 15 10 0 6
-7 10 -15 10 -12 0 -15 14 -15 65 0 46 -4 65 -13 65 -6 0 -31 -28 -55 -63z
m38 -32 c0 -31 -3 -35 -25 -35 -14 0 -25 3 -25 6 0 8 40 64 46 64 2 0 4 -16 4
-35z"/>
<path d="M560 1350 c0 -5 5 -10 10 -10 6 0 10 5 10 10 0 6 -4 10 -10 10 -5 0
-10 -4 -10 -10z"/>
<path d="M1120 1350 c0 -5 5 -10 10 -10 6 0 10 5 10 10 0 6 -4 10 -10 10 -5 0
-10 -4 -10 -10z"/>
<path d="M1700 1350 c0 -5 5 -10 10 -10 6 0 10 5 10 10 0 6 -4 10 -10 10 -5 0
-10 -4 -10 -10z"/>
<path d="M2260 1350 c0 -5 5 -10 10 -10 6 0 10 5 10 10 0 6 -4 10 -10 10 -5 0
-10 -4 -10 -10z"/>
<path d="M2840 1350 c0 -5 5 -10 10 -10 6 0 10 5 10 10 0 6 -4 10 -10 10 -5 0
-10 -4 -10 -10z"/>
<path d="M3400 1350 c0 -5 5 -10 10 -10 6 0 10 5 10 10 0 6 -4 10 -10 10 -5 0
-10 -4 -10 -10z"/>
<path d="M4560 1350 c0 -5 5 -10 10 -10 6 0 10 5 10 10 0 6 -4 10 -10 10 -5 0
-10 -4 -10 -10z"/>
<path d="M5120 1350 c0 -5 5 -10 10 -10 6 0 10 5 10 10 0 6 -4 10 -10 10 -5 0
-10 -4 -10 -10z"/>
<path d="M5700 1350 c0 -5 5 -10 10 -10 6 0 10 5 10 10 0 6 -4 10 -10 10 -5 0
-10 -4 -10 -10z"/>
<path d="M6260 1350 c0 -5 5 -10 10 -10 6 0 10 5 10 10 0 6 -4 10 -10 10 -5 0
-10 -4 -10 -10z"/>
<path d="M6840 1350 c0 -5 5 -10 10 -10 6 0 10 5 10 10 0 6 -4 10 -10 10 -5 0
-10 -4 -10 -10z"/>
<path d="M7400 1350 c0 -5 5 -10 10 -10 6 0 10 5 10 10 0 6 -4 10 -10 10 -5 0
-10 -4 -10 -10z"/>
<path d="M3660 1336 c0 -12 11 -16 41 -16 52 0 48 24 -4 28 -28 2 -37 -1 -37
-12z"/>
<path d="M3776 773 c-3 -10 -8 -35 -12 -55 -7 -41 2 -47 36 -26 25 16 54 1 58
-31 7 -46 -47 -70 -68 -31 -12 23 -30 27 -30 6 0 -44 75 -61 110 -26 43 43 12
114 -49 112 -24 0 -28 3 -24 19 4 15 14 19 44 19 28 0 39 4 39 15 0 23 -97 21
-104 -2z"/>
<path d="M560 670 c0 -5 5 -10 10 -10 6 0 10 5 10 10 0 6 -4 10 -10 10 -5 0
-10 -4 -10 -10z"/>
<path d="M1120 670 c0 -5 5 -10 10 -10 6 0 10 5 10 10 0 6 -4 10 -10 10 -5 0
-10 -4 -10 -10z"/>
<path d="M1700 670 c0 -5 5 -10 10 -10 6 0 10 5 10 10 0 6 -4 10 -10 10 -5 0
-10 -4 -10 -10z"/>
<path d="M2260 670 c0 -5 5 -10 10 -10 6 0 10 5 10 10 0 6 -4 10 -10 10 -5 0
-10 -4 -10 -10z"/>
<path d="M2840 670 c0 -5 5 -10 10 -10 6 0 10 5 10 10 0 6 -4 10 -10 10 -5 0
-10 -4 -10 -10z"/>
<path d="M3400 670 c0 -5 5 -10 10 -10 6 0 10 5 10 10 0 6 -4 10 -10 10 -5 0
-10 -4 -10 -10z"/>
<path d="M3660 666 c0 -12 11 -16 41 -16 52 0 48 24 -4 28 -28 2 -37 -1 -37
-12z"/>
<path d="M4560 670 c0 -5 5 -10 10 -10 6 0 10 5 10 10 0 6 -4 10 -10 10 -5 0
-10 -4 -10 -10z"/>
<path d="M5120 670 c0 -5 5 -10 10 -10 6 0 10 5 10 10 0 6 -4 10 -10 10 -5 0
-10 -4 -10 -10z"/>
<path d="M5700 670 c0 -5 5 -10 10 -10 6 0 10 5 10 10 0 6 -4 10 -10 10 -5 0
-10 -4 -10 -10z"/>
<path d="M6260 670 c0 -5 5 -10 10 -10 6 0 10 5 10 10 0 6 -4 10 -10 10 -5 0
-10 -4 -10 -10z"/>
<path d="M6840 670 c0 -5 5 -10 10 -10 6 0 10 5 10 10 0 6 -4 10 -10 10 -5 0
-10 -4 -10 -10z"/>
<path d="M7400 670 c0 -5 5 -10 10 -10 6 0 10 5 10 10 0 6 -4 10 -10 10 -5 0
-10 -4 -10 -10z"/>
<path d="M3775 296 c-21 -32 -22 -119 -1 -151 33 -51 116 -22 116 40 0 51 -65
86 -98 53 -18 -18 -16 12 4 40 18 26 31 28 56 5 22 -19 37 -9 22 15 -6 10 -27
18 -47 20 -29 3 -39 -2 -52 -22z m73 -78 c30 -30 -2 -93 -36 -71 -21 13 -27
50 -12 69 15 17 32 18 48 2z"/>
<path d="M3660 196 c0 -12 11 -16 41 -16 52 0 48 24 -4 28 -28 2 -37 -1 -37
-12z"/>
</g>
</svg>
