<?xml version="1.0" encoding="UTF-8" standalone="no"?>
<svg
   xmlns:dc="http://purl.org/dc/elements/1.1/"
   xmlns:cc="http://creativecommons.org/ns#"
   xmlns:rdf="http://www.w3.org/1999/02/22-rdf-syntax-ns#"
   xmlns:svg="http://www.w3.org/2000/svg"
   xmlns="http://www.w3.org/2000/svg"
   viewBox="0 0 340.42267 189.24133"
   height="189.24133"
   width="340.42267"
   xml:space="preserve"
   id="svg2"
   version="1.1"><metadata
     id="metadata8"><rdf:RDF><cc:Work
         rdf:about=""><dc:format>image/svg+xml</dc:format><dc:type
           rdf:resource="http://purl.org/dc/dcmitype/StillImage" /></cc:Work></rdf:RDF></metadata><defs
     id="defs6" /><g
     transform="matrix(1.3333333,0,0,-1.3333333,0,189.24133)"
     id="g10"><g
       transform="translate(127.659,70.966)"
       id="g12"><g
         id="g14"><g
           id="g16"><g
             id="g18"><path
               id="path20"
               style="fill:none;stroke:#bfbfbf;stroke-width:0.19925;stroke-linecap:butt;stroke-linejoin:miter;stroke-miterlimit:10;stroke-dasharray:none;stroke-opacity:1"
               d="M -127.56062,-56.69362 H 127.56062 M -127.56062,-28.3468 H 127.56062 M -127.56062,0 H 127.56062 M -127.56062,28.3468 H 127.56062 M -127.56062,56.69362 H 127.56062 M -113.38724,-70.867 V 70.867 M -85.04042,-70.867 V 70.867 m 28.3468,-141.734 V 70.867 M -28.3468,-70.867 V 70.867 M 0,-70.867 V 70.867 M 28.3468,-70.867 V 70.867 M 56.69362,-70.867 V 70.867 M 85.04042,-70.867 V 70.867 M 113.38724,-70.867 V 70.867" /></g><g
             id="g22"><path
               id="path24"
               style="fill:none;stroke:#000000;stroke-width:1.19553006;stroke-linecap:butt;stroke-linejoin:miter;stroke-miterlimit:10;stroke-dasharray:none;stroke-opacity:1"
               d="M -113.38724,0 H 112.43082" /><g
               transform="translate(112.43082)"
               id="g26"><g
                 id="g28"><path
                   id="path30"
                   style="fill:none;stroke:#000000;stroke-width:0.95639998;stroke-linecap:round;stroke-linejoin:round;stroke-miterlimit:10;stroke-dasharray:none;stroke-opacity:1"
                   d="M -1.91284,2.55046 C -1.75343,1.59402 0,0.15938 0.4782,0 0,-0.15938 -1.75343,-1.59402 -1.91284,-2.55046" /></g></g><g
               id="g32"><g
                 transform="translate(117.304,-6.063)"
                 id="g34"><g
                   id="g36"><g
                     transform="translate(-244.963,-64.903)"
                     id="g38"><text
                       id="text42"
                       style="font-variant:normal;font-weight:normal;font-size:4.98129988px;font-family:CMMI5;-inkscape-font-specification:CMMI5;writing-mode:lr-tb;fill:#000000;fill-opacity:1;fill-rule:nonzero;stroke:none"
                       transform="matrix(1,0,0,-1,244.963,64.903)"><tspan
                         id="tspan40"
                         y="0"
                         x="0">x</tspan></text>
<g
                       transform="translate(244.963,64.903)"
                       id="g44" /></g></g><g
                   transform="translate(-117.304,6.063)"
                   id="g46" /></g></g></g><g
             id="g48"><path
               id="path50"
               style="fill:none;stroke:#000000;stroke-width:1.19553006;stroke-linecap:butt;stroke-linejoin:miter;stroke-miterlimit:10;stroke-dasharray:none;stroke-opacity:1"
               d="M 0,-56.69362 V 55.7372" /><g
               transform="rotate(90,-27.8686,27.8686)"
               id="g52"><g
                 id="g54"><path
                   id="path56"
                   style="fill:none;stroke:#000000;stroke-width:0.95639998;stroke-linecap:round;stroke-linejoin:round;stroke-miterlimit:10;stroke-dasharray:none;stroke-opacity:1"
                   d="M -1.91284,2.55046 C -1.75343,1.59402 0,0.15938 0.4782,0 0,-0.15938 -1.75343,-1.59402 -1.91284,-2.55046" /></g></g><g
               id="g58"><g
                 transform="translate(-7.737,61.579)"
                 id="g60"><g
                   id="g62"><g
                     transform="translate(-119.922,-132.545)"
                     id="g64"><text
                       id="text68"
                       style="font-variant:normal;font-weight:normal;font-size:4.98129988px;font-family:CMMI5;-inkscape-font-specification:CMMI5;writing-mode:lr-tb;fill:#000000;fill-opacity:1;fill-rule:nonzero;stroke:none"
                       transform="matrix(1,0,0,-1,119.922,132.545)"><tspan
                         id="tspan66"
                         y="0"
                         x="0">y</tspan></text>
<g
                       transform="translate(119.922,132.545)"
                       id="g70" /></g></g><g
                   transform="translate(7.737,-61.579)"
                   id="g72" /></g></g></g><path
             id="path74"
             style="fill:none;stroke:#000000;stroke-width:0.3985;stroke-linecap:butt;stroke-linejoin:miter;stroke-miterlimit:10;stroke-dasharray:none;stroke-opacity:1"
             d="M -113.38728,0.99628 V -0.99628" /><g
             id="g76"><g
               transform="translate(-117.973,-7.837)"
               id="g78"><g
                 id="g80"><g
                   transform="translate(-9.686,-63.129)"
                   id="g82"><text
                     id="text86"
                     style="font-variant:normal;font-weight:normal;font-size:4.98129988px;font-family:CMSY5;-inkscape-font-specification:CMSY5;writing-mode:lr-tb;fill:#000000;fill-opacity:1;fill-rule:nonzero;stroke:none"
                     transform="matrix(1,0,0,-1,9.686,63.129)"><tspan
                       id="tspan84"
                       y="0"
                       x="0">−</tspan></text>
<text
                     id="text90"
                     style="font-variant:normal;font-weight:normal;font-size:4.98129988px;font-family:CMBX5;-inkscape-font-specification:CMBX5;writing-mode:lr-tb;fill:#000000;fill-opacity:1;fill-rule:nonzero;stroke:none"
                     transform="matrix(1,0,0,-1,15.082,63.129)"><tspan
                       id="tspan88"
                       y="0"
                       x="0">4</tspan></text>
<g
                     transform="translate(9.686,63.129)"
                     id="g92" /></g></g><g
                 transform="translate(117.973,7.837)"
                 id="g94" /></g></g><path
             id="path96"
             style="fill:none;stroke:#000000;stroke-width:0.3985;stroke-linecap:butt;stroke-linejoin:miter;stroke-miterlimit:10;stroke-dasharray:none;stroke-opacity:1"
             d="M -85.04045,0.99628 V -0.99628" /><g
             id="g98"><g
               transform="translate(-89.627,-7.837)"
               id="g100"><g
                 id="g102"><g
                   transform="translate(-38.032,-63.129)"
                   id="g104"><text
                     id="text108"
                     style="font-variant:normal;font-weight:normal;font-size:4.98129988px;font-family:CMSY5;-inkscape-font-specification:CMSY5;writing-mode:lr-tb;fill:#000000;fill-opacity:1;fill-rule:nonzero;stroke:none"
                     transform="matrix(1,0,0,-1,38.032,63.129)"><tspan
                       id="tspan106"
                       y="0"
                       x="0">−</tspan></text>
<text
                     id="text112"
                     style="font-variant:normal;font-weight:normal;font-size:4.98129988px;font-family:CMBX5;-inkscape-font-specification:CMBX5;writing-mode:lr-tb;fill:#000000;fill-opacity:1;fill-rule:nonzero;stroke:none"
                     transform="matrix(1,0,0,-1,43.429,63.129)"><tspan
                       id="tspan110"
                       y="0"
                       x="0">3</tspan></text>
<g
                     transform="translate(38.032,63.129)"
                     id="g114" /></g></g><g
                 transform="translate(89.627,7.837)"
                 id="g116" /></g></g><path
             id="path118"
             style="fill:none;stroke:#000000;stroke-width:0.3985;stroke-linecap:butt;stroke-linejoin:miter;stroke-miterlimit:10;stroke-dasharray:none;stroke-opacity:1"
             d="M -56.69363,0.99628 V -0.99628" /><g
             id="g120"><g
               transform="translate(-61.28,-7.837)"
               id="g122"><g
                 id="g124"><g
                   transform="translate(-66.379,-63.129)"
                   id="g126"><text
                     id="text130"
                     style="font-variant:normal;font-weight:normal;font-size:4.98129988px;font-family:CMSY5;-inkscape-font-specification:CMSY5;writing-mode:lr-tb;fill:#000000;fill-opacity:1;fill-rule:nonzero;stroke:none"
                     transform="matrix(1,0,0,-1,66.379,63.129)"><tspan
                       id="tspan128"
                       y="0"
                       x="0">−</tspan></text>
<text
                     id="text134"
                     style="font-variant:normal;font-weight:normal;font-size:4.98129988px;font-family:CMBX5;-inkscape-font-specification:CMBX5;writing-mode:lr-tb;fill:#000000;fill-opacity:1;fill-rule:nonzero;stroke:none"
                     transform="matrix(1,0,0,-1,71.775,63.129)"><tspan
                       id="tspan132"
                       y="0"
                       x="0">2</tspan></text>
<g
                     transform="translate(66.379,63.129)"
                     id="g136" /></g></g><g
                 transform="translate(61.28,7.837)"
                 id="g138" /></g></g><path
             id="path140"
             style="fill:none;stroke:#000000;stroke-width:0.3985;stroke-linecap:butt;stroke-linejoin:miter;stroke-miterlimit:10;stroke-dasharray:none;stroke-opacity:1"
             d="M -28.3468,0.99628 V -0.99628" /><g
             id="g142"><g
               transform="translate(-32.934,-7.837)"
               id="g144"><g
                 id="g146"><g
                   transform="translate(-94.725,-63.129)"
                   id="g148"><text
                     id="text152"
                     style="font-variant:normal;font-weight:normal;font-size:4.98129988px;font-family:CMSY5;-inkscape-font-specification:CMSY5;writing-mode:lr-tb;fill:#000000;fill-opacity:1;fill-rule:nonzero;stroke:none"
                     transform="matrix(1,0,0,-1,94.725,63.129)"><tspan
                       id="tspan150"
                       y="0"
                       x="0">−</tspan></text>
<text
                     id="text156"
                     style="font-variant:normal;font-weight:normal;font-size:4.98129988px;font-family:CMBX5;-inkscape-font-specification:CMBX5;writing-mode:lr-tb;fill:#000000;fill-opacity:1;fill-rule:nonzero;stroke:none"
                     transform="matrix(1,0,0,-1,100.122,63.129)"><tspan
                       id="tspan154"
                       y="0"
                       x="0">1</tspan></text>
<g
                     transform="translate(94.725,63.129)"
                     id="g158" /></g></g><g
                 transform="translate(32.934,7.837)"
                 id="g160" /></g></g><path
             id="path162"
             style="fill:none;stroke:#000000;stroke-width:0.3985;stroke-linecap:butt;stroke-linejoin:miter;stroke-miterlimit:10;stroke-dasharray:none;stroke-opacity:1"
             d="M 0,0.99628 V -0.99628" /><g
             id="g164"><g
               transform="translate(-1.889,-7.726)"
               id="g166"><g
                 id="g168"><g
                   transform="translate(-125.77,-63.24)"
                   id="g170"><text
                     id="text174"
                     style="font-variant:normal;font-weight:normal;font-size:4.98129988px;font-family:CMBX5;-inkscape-font-specification:CMBX5;writing-mode:lr-tb;fill:#000000;fill-opacity:1;fill-rule:nonzero;stroke:none"
                     transform="matrix(1,0,0,-1,125.77,63.24)"><tspan
                       id="tspan172"
                       y="0"
                       x="0">0</tspan></text>
<g
                     transform="translate(125.77,63.24)"
                     id="g176" /></g></g><g
                 transform="translate(1.889,7.726)"
                 id="g178" /></g></g><path
             id="path180"
             style="fill:none;stroke:#000000;stroke-width:0.3985;stroke-linecap:butt;stroke-linejoin:miter;stroke-miterlimit:10;stroke-dasharray:none;stroke-opacity:1"
             d="M 28.3468,0.99628 V -0.99628" /><g
             id="g182"><g
               transform="translate(26.457,-7.726)"
               id="g184"><g
                 id="g186"><g
                   transform="translate(-154.116,-63.24)"
                   id="g188"><text
                     id="text192"
                     style="font-variant:normal;font-weight:normal;font-size:4.98129988px;font-family:CMBX5;-inkscape-font-specification:CMBX5;writing-mode:lr-tb;fill:#000000;fill-opacity:1;fill-rule:nonzero;stroke:none"
                     transform="matrix(1,0,0,-1,154.116,63.24)"><tspan
                       id="tspan190"
                       y="0"
                       x="0">1</tspan></text>
<g
                     transform="translate(154.116,63.24)"
                     id="g194" /></g></g><g
                 transform="translate(-26.457,7.726)"
                 id="g196" /></g></g><path
             id="path198"
             style="fill:none;stroke:#000000;stroke-width:0.3985;stroke-linecap:butt;stroke-linejoin:miter;stroke-miterlimit:10;stroke-dasharray:none;stroke-opacity:1"
             d="M 56.69363,0.99628 V -0.99628" /><g
             id="g200"><g
               transform="translate(54.804,-7.726)"
               id="g202"><g
                 id="g204"><g
                   transform="translate(-182.463,-63.24)"
                   id="g206"><text
                     id="text210"
                     style="font-variant:normal;font-weight:normal;font-size:4.98129988px;font-family:CMBX5;-inkscape-font-specification:CMBX5;writing-mode:lr-tb;fill:#000000;fill-opacity:1;fill-rule:nonzero;stroke:none"
                     transform="matrix(1,0,0,-1,182.463,63.24)"><tspan
                       id="tspan208"
                       y="0"
                       x="0">2</tspan></text>
<g
                     transform="translate(182.463,63.24)"
                     id="g212" /></g></g><g
                 transform="translate(-54.804,7.726)"
                 id="g214" /></g></g><path
             id="path216"
             style="fill:none;stroke:#000000;stroke-width:0.3985;stroke-linecap:butt;stroke-linejoin:miter;stroke-miterlimit:10;stroke-dasharray:none;stroke-opacity:1"
             d="M 85.04045,0.99628 V -0.99628" /><g
             id="g218"><g
               transform="translate(83.15,-7.726)"
               id="g220"><g
                 id="g222"><g
                   transform="translate(-210.809,-63.24)"
                   id="g224"><text
                     id="text228"
                     style="font-variant:normal;font-weight:normal;font-size:4.98129988px;font-family:CMBX5;-inkscape-font-specification:CMBX5;writing-mode:lr-tb;fill:#000000;fill-opacity:1;fill-rule:nonzero;stroke:none"
                     transform="matrix(1,0,0,-1,210.809,63.24)"><tspan
                       id="tspan226"
                       y="0"
                       x="0">3</tspan></text>
<g
                     transform="translate(210.809,63.24)"
                     id="g230" /></g></g><g
                 transform="translate(-83.15,7.726)"
                 id="g232" /></g></g><path
             id="path234"
             style="fill:none;stroke:#000000;stroke-width:0.3985;stroke-linecap:butt;stroke-linejoin:miter;stroke-miterlimit:10;stroke-dasharray:none;stroke-opacity:1"
             d="M 113.38728,0.99628 V -0.99628" /><g
             id="g236"><g
               transform="translate(111.497,-7.726)"
               id="g238"><g
                 id="g240"><g
                   transform="translate(-239.156,-63.24)"
                   id="g242"><text
                     id="text246"
                     style="font-variant:normal;font-weight:normal;font-size:4.98129988px;font-family:CMBX5;-inkscape-font-specification:CMBX5;writing-mode:lr-tb;fill:#000000;fill-opacity:1;fill-rule:nonzero;stroke:none"
                     transform="matrix(1,0,0,-1,239.156,63.24)"><tspan
                       id="tspan244"
                       y="0"
                       x="0">4</tspan></text>
<g
                     transform="translate(239.156,63.24)"
                     id="g248" /></g></g><g
                 transform="translate(-111.497,7.726)"
                 id="g250" /></g></g><path
             id="path252"
             style="fill:none;stroke:#000000;stroke-width:0.3985;stroke-linecap:butt;stroke-linejoin:miter;stroke-miterlimit:10;stroke-dasharray:none;stroke-opacity:1"
             d="M 0.99628,-56.69363 H -0.99628" /><g
             id="g254"><g
               transform="translate(-13.69,-57.938)"
               id="g256"><g
                 id="g258"><g
                   transform="translate(-113.969,-13.028)"
                   id="g260"><text
                     id="text264"
                     style="font-variant:normal;font-weight:normal;font-size:4.98129988px;font-family:CMSY5;-inkscape-font-specification:CMSY5;writing-mode:lr-tb;fill:#000000;fill-opacity:1;fill-rule:nonzero;stroke:none"
                     transform="matrix(1,0,0,-1,113.969,13.028)"><tspan
                       id="tspan262"
                       y="0"
                       x="0">−</tspan></text>
<text
                     id="text268"
                     style="font-variant:normal;font-weight:normal;font-size:4.98129988px;font-family:CMBX5;-inkscape-font-specification:CMBX5;writing-mode:lr-tb;fill:#000000;fill-opacity:1;fill-rule:nonzero;stroke:none"
                     transform="matrix(1,0,0,-1,119.365,13.028)"><tspan
                       id="tspan266"
                       y="0"
                       x="0">2</tspan></text>
<g
                     transform="translate(113.969,13.028)"
                     id="g270" /></g></g><g
                 transform="translate(13.69,57.938)"
                 id="g272" /></g></g><path
             id="path274"
             style="fill:none;stroke:#000000;stroke-width:0.3985;stroke-linecap:butt;stroke-linejoin:miter;stroke-miterlimit:10;stroke-dasharray:none;stroke-opacity:1"
             d="M 0.99628,-28.3468 H -0.99628" /><g
             id="g276"><g
               transform="translate(-13.69,-29.592)"
               id="g278"><g
                 id="g280"><g
                   transform="translate(-113.969,-41.374)"
                   id="g282"><text
                     id="text286"
                     style="font-variant:normal;font-weight:normal;font-size:4.98129988px;font-family:CMSY5;-inkscape-font-specification:CMSY5;writing-mode:lr-tb;fill:#000000;fill-opacity:1;fill-rule:nonzero;stroke:none"
                     transform="matrix(1,0,0,-1,113.969,41.374)"><tspan
                       id="tspan284"
                       y="0"
                       x="0">−</tspan></text>
<text
                     id="text290"
                     style="font-variant:normal;font-weight:normal;font-size:4.98129988px;font-family:CMBX5;-inkscape-font-specification:CMBX5;writing-mode:lr-tb;fill:#000000;fill-opacity:1;fill-rule:nonzero;stroke:none"
                     transform="matrix(1,0,0,-1,119.365,41.374)"><tspan
                       id="tspan288"
                       y="0"
                       x="0">1</tspan></text>
<g
                     transform="translate(113.969,41.374)"
                     id="g292" /></g></g><g
                 transform="translate(13.69,29.592)"
                 id="g294" /></g></g><path
             id="path296"
             style="fill:none;stroke:#000000;stroke-width:0.3985;stroke-linecap:butt;stroke-linejoin:miter;stroke-miterlimit:10;stroke-dasharray:none;stroke-opacity:1"
             d="M 0.99628,0 H -0.99628" /><g
             id="g298"><g
               transform="translate(-8.294,-1.605)"
               id="g300"><g
                 id="g302"><g
                   transform="translate(-119.365,-69.361)"
                   id="g304"><text
                     id="text308"
                     style="font-variant:normal;font-weight:normal;font-size:4.98129988px;font-family:CMBX5;-inkscape-font-specification:CMBX5;writing-mode:lr-tb;fill:#000000;fill-opacity:1;fill-rule:nonzero;stroke:none"
                     transform="matrix(1,0,0,-1,119.365,69.361)"><tspan
                       id="tspan306"
                       y="0"
                       x="0">0</tspan></text>
<g
                     transform="translate(119.365,69.361)"
                     id="g310" /></g></g><g
                 transform="translate(8.294,1.605)"
                 id="g312" /></g></g><path
             id="path314"
             style="fill:none;stroke:#000000;stroke-width:0.3985;stroke-linecap:butt;stroke-linejoin:miter;stroke-miterlimit:10;stroke-dasharray:none;stroke-opacity:1"
             d="M 0.99628,28.3468 H -0.99628" /><g
             id="g316"><g
               transform="translate(-8.294,26.741)"
               id="g318"><g
                 id="g320"><g
                   transform="translate(-119.365,-97.707)"
                   id="g322"><text
                     id="text326"
                     style="font-variant:normal;font-weight:normal;font-size:4.98129988px;font-family:CMBX5;-inkscape-font-specification:CMBX5;writing-mode:lr-tb;fill:#000000;fill-opacity:1;fill-rule:nonzero;stroke:none"
                     transform="matrix(1,0,0,-1,119.365,97.707)"><tspan
                       id="tspan324"
                       y="0"
                       x="0">1</tspan></text>
<g
                     transform="translate(119.365,97.707)"
                     id="g328" /></g></g><g
                 transform="translate(8.294,-26.741)"
                 id="g330" /></g></g><path
             id="path332"
             style="fill:none;stroke:#000000;stroke-width:0.3985;stroke-linecap:butt;stroke-linejoin:miter;stroke-miterlimit:10;stroke-dasharray:none;stroke-opacity:1"
             d="M 0.99628,56.69363 H -0.99628" /><g
             id="g334"><g
               transform="translate(-8.294,55.088)"
               id="g336"><g
                 id="g338"><g
                   transform="translate(-119.365,-126.054)"
                   id="g340"><text
                     id="text344"
                     style="font-variant:normal;font-weight:normal;font-size:4.98129988px;font-family:CMBX5;-inkscape-font-specification:CMBX5;writing-mode:lr-tb;fill:#000000;fill-opacity:1;fill-rule:nonzero;stroke:none"
                     transform="matrix(1,0,0,-1,119.365,126.054)"><tspan
                       id="tspan342"
                       y="0"
                       x="0">2</tspan></text>
<g
                     transform="translate(119.365,126.054)"
                     id="g346" /></g></g><g
                 transform="translate(8.294,-55.088)"
                 id="g348" /></g></g><g
             id="g350"><path
               id="path352"
               style="fill:none;stroke:#0000ff;stroke-width:0.3985;stroke-linecap:butt;stroke-linejoin:miter;stroke-miterlimit:10;stroke-dasharray:none;stroke-opacity:1"
               d="M -113.38724,-56.69362 -56.69362,28.3468 28.3468,0" /></g><g
             id="g354"><path
               id="path356"
               style="fill:#0000ff;fill-opacity:1;fill-rule:nonzero;stroke:#0000ff;stroke-width:0.3985;stroke-linecap:butt;stroke-linejoin:miter;stroke-miterlimit:10;stroke-dasharray:none;stroke-opacity:1"
               d="m 30.33936,0 c 0,1.10046 -0.89208,1.99255 -1.99256,1.99255 -1.10046,0 -1.99255,-0.89209 -1.99255,-1.99255 0,-1.10046 0.89209,-1.99255 1.99255,-1.99255 1.10048,0 1.99256,0.89209 1.99256,1.99255 z" /></g><g
             id="g358"><path
               id="path360"
               style="fill:none;stroke:#0000ff;stroke-width:0.3985;stroke-linecap:butt;stroke-linejoin:miter;stroke-miterlimit:10;stroke-dasharray:none;stroke-opacity:1"
               d="m 30.33936,-51.02432 c 0,1.10046 -0.89208,1.99255 -1.99256,1.99255 -1.10046,0 -1.99255,-0.89209 -1.99255,-1.99255 0,-1.10048 0.89209,-1.99256 1.99255,-1.99256 1.10048,0 1.99256,0.89208 1.99256,1.99256 z" /></g><g
             id="g362"><path
               id="path364"
               style="fill:none;stroke:#0000ff;stroke-width:0.3985;stroke-linecap:butt;stroke-linejoin:miter;stroke-miterlimit:10;stroke-dasharray:none;stroke-opacity:1"
               d="m 29.76422,-50.54897 0.27162,0.09343 0.27166,0.09386 0.27162,0.09602 0.27163,0.09647 0.27164,0.09645 0.27164,0.09949 0.27162,0.09645 0.27165,0.09904 0.27162,0.09905 0.27164,0.09949 0.27164,0.10208 0.27163,0.10208 0.27163,0.10208 0.27165,0.10208 0.27162,0.10466 0.27162,0.10512 0.27165,0.10467 0.27163,0.10815 0.27163,0.10769 0.27164,0.1077 0.27164,0.11031 0.27162,0.11073 0.27165,0.11073 0.27162,0.11029 0.27164,0.11375 0.27163,0.11592 0.27164,0.11333 0.27162,0.11635 0.27166,0.11938 0.27162,0.11591 0.27164,0.12199 0.27162,0.11937 0.27165,0.12458 0.27162,0.12197 0.27163,0.12456 0.27165,0.12502 0.27162,0.12761 0.27163,0.13019 0.27164,0.12759 0.27164,0.13323 0.27162,0.1332 0.27165,0.13324 0.27162,0.13623 0.27164,0.13886 0.27164,0.13884 0.27163,0.14187 0.27162,0.1449 0.27166,0.14449 0.27162,0.14445 0.27164,0.15052 0.27163,0.1501 0.27164,0.15312 0.27162,0.15312 0.27164,0.15874 0.27164,0.15873 0.27162,0.16178 0.27165,0.16437 0.27162,0.16738 0.27164,0.16999 0.27164,0.17302 0.27164,0.17561 0.27161,0.17864 0.27164,0.18167 0.27164,0.18425 0.27164,0.18988 0.27162,0.19291 0.27165,0.19551 0.27162,0.20156 0.27164,0.20416 0.27164,0.20978 0.27163,0.21541 0.27162,0.21843 0.27164,0.22406 0.27164,0.23226 0.27162,0.2353 0.27165,0.24397 0.27162,0.24957 0.27164,0.25519 0.27164,0.26343 0.27163,0.26946 0.27163,0.28072 0.27165,0.28374 0.27162,0.29456 0.27164,0.30365 0.27163,0.30882 0.27164,0.32051 0.27162,0.49353 0.27165,0.38843 0.27163,0.4109 0.27163,0.43384 0.27164,0.45631 0.27162,0.48488 0.27164,0.638 0.27162,0.62978 0.27165,0.70288 0.27162,0.87631 0.27164,1.04329 0.27164,1.47711 0.27164,3.17871" /></g><g
             id="g366"><path
               id="path368"
               style="fill:none;stroke:#0000ff;stroke-width:0.3985;stroke-linecap:butt;stroke-linejoin:miter;stroke-miterlimit:10;stroke-dasharray:none;stroke-opacity:1"
               d="m 56.69362,-28.3468 0.57222,7.73768 0.57225,2.01002 0.57225,1.3867 0.57225,1.14839 0.57225,0.92433 0.57225,0.82225 0.57225,0.81362 0.57224,0.63237 0.57225,0.59819 0.57225,0.56402 0.57225,0.53334 0.57225,0.50476 0.57225,0.47621 0.57223,0.45374 0.57225,0.43384 0.57225,0.41395 0.57225,0.39662 0.57225,0.3828 0.57225,0.36594 0.57226,0.35727 0.57223,0.343 0.57225,0.33176 0.57225,0.3231 0.57225,0.3149 0.57225,0.3032 0.57225,0.29802 0.57225,0.28893 0.57224,0.28375 0.57225,0.27509 0.57225,0.26904 0.57225,0.26385 0.57225,0.25822 0.57225,0.25218 0.57223,0.24957 0.57225,0.24094 0.57226,0.23831 0.57225,0.2353 0.57225,0.22968 0.57225,0.22404 0.57225,0.22364 0.57223,0.21843 0.57225,0.21281 0.57225,0.21281 0.57225,0.20675 0.57225,0.20416 0.57225,0.20112 0.57224,0.20157 0.57225,0.19551 0.57225,0.19292 0.57223,0.18594 0.57225,0.18816 0.57226,0.18556 0.57225,0.18382 0.57223,0.18125 0.57225,0.17819 0.57225,0.17691 0.57225,0.17519 0.57225,0.17257 0.57225,0.17086 0.57225,0.1687 0.57224,0.16696 0.57225,0.16522 0.57225,0.16306 0.57225,0.16134 0.57225,0.16048 0.57225,0.15831 0.57224,0.15659 0.57225,0.15527 0.57225,0.15355 0.57225,0.15225 0.57225,0.15053 0.57225,0.14964 0.57225,0.14751 0.57223,0.1462 0.57225,0.14533 0.57225,0.14403 0.57225,0.14317 0.57225,0.14145 0.57225,0.14012 0.57225,0.13929 0.57224,0.13798 0.57225,0.13669 0.57225,0.13538 0.57225,0.13452 0.57225,0.13452 0.57225,0.13234 0.57224,0.13194 0.57224,0.13062 0.57226,0.12933 0.57224,0.12717 0.57226,0.12716 0.57225,0.12674 0.57225,0.12586 0.57224,0.12586 0.57224,0.12415 0.57226,0.12371 0.57224,0.12154 0.57226,0.12241 0.57223,0.11895" /></g></g></g></g></g></svg>