<?xml version="1.0" encoding="UTF-8" standalone="no"?>
<!DOCTYPE svg PUBLIC "-//W3C//DTD SVG 1.1//EN" "http://www.w3.org/Graphics/SVG/1.1/DTD/svg11.dtd">
<svg xmlns="http://www.w3.org/2000/svg" xmlns:xlink="http://www.w3.org/1999/xlink" version="1.1" width="181.235pt" height="236.255pt" viewBox="0 0 181.235 236.255">
<g enable-background="new">
<path transform="matrix(1,0,0,-1,11.057,226.871)" stroke-width=".19925" stroke-linecap="butt" stroke-miterlimit="10" stroke-linejoin="miter" fill="none" stroke="#cbcbcb" d="M 0 0 L 170.08086 0 M 0 28.3468 L 170.08086 28.3468 M 0 56.69362 L 170.08086 56.69362 M 0 85.04042 L 170.08086 85.04042 M 0 113.38724 L 170.08086 113.38724 M 0 141.73404 L 170.08086 141.73404 M 0 170.08086 L 170.08086 170.08086 M 0 198.42766 L 170.08086 198.42766 M 0 226.76451 L 170.08086 226.76451 M 0 0 L 0 226.77448 M 28.3468 0 L 28.3468 226.77448 M 56.69362 0 L 56.69362 226.77448 M 85.04042 0 L 85.04042 226.77448 M 113.38724 0 L 113.38724 226.77448 M 141.73404 0 L 141.73404 226.77448 M 170.07089 0 L 170.07089 226.77448 M 170.08086 226.77448 "/>
<path transform="matrix(1,0,0,-1,11.057,226.871)" stroke-width="1.19553" stroke-linecap="butt" stroke-miterlimit="10" stroke-linejoin="miter" fill="none" stroke="#000000" d="M 0 0 L 154.95102 0 "/>
<path transform="matrix(1,0,0,-1,166.00803,226.871)" stroke-width=".9564" stroke-linecap="round" stroke-linejoin="round" fill="none" stroke="#000000" d="M -1.91284 2.55046 C -1.75343 1.59402 0 .15938 .4782 0 C 0 -.15938 -1.75343 -1.59402 -1.91284 -2.55046 "/>
<text xml:space="preserve" transform="matrix(1 0 -0 1 0 236.255)" font-size="4.9813" font-family="CMMI5" font-style="italic"><tspan y="-3.321" x="170.88">x</tspan></text>
<path transform="matrix(1,0,0,-1,11.057,226.871)" stroke-width="1.19553" stroke-linecap="butt" stroke-miterlimit="10" stroke-linejoin="miter" fill="none" stroke="#000000" d="M 0 0 L 0 211.64464 "/>
<path transform="matrix(0,-1,-1,-0,11.057,15.226364)" stroke-width=".9564" stroke-linecap="round" stroke-linejoin="round" fill="none" stroke="#000000" d="M -1.91284 2.55046 C -1.75343 1.59402 0 .15938 .4782 0 C 0 -.15938 -1.75343 -1.59402 -1.91284 -2.55046 "/>
<text xml:space="preserve" transform="matrix(1 0 -0 1 0 236.255)" font-size="4.9813" font-family="CMMI5" font-style="italic"><tspan y="-226.869" x="3.321">y</tspan></text>
<path transform="matrix(1,0,0,-1,11.057,226.871)" d="M 28.3468 0 L 28.3468 0 L 29.49173 1.12155 L 30.63664 2.2016 L 31.78159 3.24142 L 32.9265 4.24492 L 34.07144 5.2138 L 35.21637 6.15068 L 36.36128 7.05727 L 37.50623 7.93663 L 38.65114 8.78828 L 39.79608 9.61617 L 40.94101 10.41983 L 42.08592 11.20142 L 43.23087 11.96182 L 44.37578 12.70233 L 45.52072 13.42511 L 46.66565 14.1297 L 47.81058 14.81483 L 48.9555 15.48615 L 50.10042 16.14186 L 51.24536 16.78117 L 52.39027 17.40791 L 53.53522 18.02255 L 54.68015 18.61772 L 55.82506 19.20685 L 56.97 19.78601 L 58.11491 20.34961 L 59.25986 20.90282 L 60.40479 21.44522 L 61.5497 21.97768 L 62.69464 22.50018 L 63.83955 23.01273 L 64.9845 23.51752 L 66.12943 24.01147 L 67.27435 24.4985 L 68.41928 24.97688 L 69.5642 25.4475 L 70.70914 25.90988 L 71.85406 26.3649 L 72.999 26.81346 L 74.14392 27.25464 L 75.28883 27.68933 L 76.43378 28.11668 L 77.5787 28.53885 L 78.72363 28.95364 L 79.86856 29.36154 L 81.01347 29.76552 L 82.15842 30.16258 L 83.30334 30.55533 L 84.44827 30.94244 L 85.5932 31.32396 L 86.73813 31.70114 L 87.88306 32.07268 L 89.02797 32.44077 L 90.17291 32.80237 L 91.31784 33.15964 L 92.46277 33.5126 L 93.6077 33.86037 L 94.75261 34.20508 L 95.89755 34.5455 L 97.04248 34.88243 L 98.18741 35.21507 L 99.33234 35.5438 L 100.47725 35.8682 L 101.6222 36.18913 L 102.76712 36.50664 L 103.91205 36.8215 L 105.05698 37.12991 L 106.2019 37.43701 L 107.34683 37.74109 L 108.49176 38.04256 L 109.63669 38.33798 L 110.78162 38.63385 L 111.92654 38.92581 L 113.07147 39.21431 L 114.2164 39.50282 L 115.36133 39.78612 L 116.50626 40.06555 L 117.65118 40.34236 L 118.79611 40.6166 L 119.94104 40.88866 L 121.08597 41.15813 L 122.2309 41.42458 L 123.37582 41.68929 L 124.52075 41.95097 L 125.66568 42.21094 L 126.81061 42.4683 L 127.95554 42.72263 L 129.10047 42.97522 L 130.24539 43.22523 L 131.39032 43.47351 L 132.53525 43.7192 L 133.68018 43.964 L 134.8251 44.20493 L 135.97003 44.44499 L 137.11496 44.68245 L 138.25989 44.91861 L 139.40482 45.15219 L 140.54975 45.38403 L 141.69467 45.61414 L 141.73404 45.62193 L 141.73404 198.42766 L 28.3468 85.04042 L 29.49173 86.18535 L 30.63664 87.33026 L 31.78159 88.4752 L 32.9265 89.62012 L 34.07144 90.76506 L 35.21637 91.90999 L 36.36128 93.0549 L 37.50623 94.19984 L 38.65114 95.34476 L 39.79608 96.4897 L 40.94101 97.63463 L 42.08592 98.77954 L 43.23087 99.92448 L 44.37578 101.0694 L 45.52072 102.21434 L 46.66565 103.35927 L 47.81058 104.5042 L 48.9555 105.64912 L 50.10042 106.79404 L 51.24536 107.93898 L 52.39027 109.08391 L 53.53522 110.22884 L 54.68015 111.37376 L 55.82506 112.51868 L 56.97 113.66362 L 58.11491 114.80855 L 59.25986 115.95348 L 60.40479 117.0984 L 61.5497 118.24332 L 62.69464 119.38826 L 63.83955 120.53317 L 64.9845 121.67812 L 66.12943 122.82304 L 67.27435 123.96797 L 68.41928 125.1129 L 69.5642 126.25781 L 70.70914 127.40276 L 71.85406 128.54769 L 72.999 129.69261 L 74.14392 130.83754 L 75.28883 131.98246 L 76.43378 133.1274 L 77.5787 134.27233 L 78.72363 135.41725 L 79.86856 136.56218 L 81.01347 137.70709 L 82.15842 138.85204 L 83.30334 139.99697 L 84.44827 141.14189 L 85.5932 142.28682 L 86.73813 143.43175 L 87.88306 144.57668 L 89.02797 145.7216 L 90.17291 146.86653 L 91.31784 148.01146 L 92.46277 149.15639 L 93.6077 150.30132 L 94.75261 151.44625 L 95.89755 152.59117 L 97.04248 153.7361 L 98.18741 154.88103 L 99.33234 156.02596 L 100.47725 157.17087 L 101.6222 158.31581 L 102.76712 159.46074 L 103.91205 160.60567 L 105.05698 161.7506 L 106.2019 162.89553 L 107.34683 164.04045 L 108.49176 165.18538 L 109.63669 166.3303 L 110.78162 167.47524 L 111.92654 168.62017 L 113.07147 169.76509 L 114.2164 170.91002 L 115.36133 172.05495 L 116.50626 173.19988 L 117.65118 174.3448 L 118.79611 175.48973 L 119.94104 176.63466 L 121.08597 177.77959 L 122.2309 178.92452 L 123.37582 180.06945 L 124.52075 181.21437 L 125.66568 182.35932 L 126.81061 183.50423 L 127.95554 184.64916 L 129.10047 185.79409 L 130.24539 186.93901 L 131.39032 188.08396 L 132.53525 189.22887 L 133.68018 190.3738 L 134.8251 191.51873 L 135.97003 192.66365 L 137.11496 193.80858 L 138.25989 194.9535 L 139.40482 196.09844 L 140.54975 197.24337 L 141.69467 198.38829 L 28.3468 85.04042 L 28.3468 0 " fill="#0000ff" fill-opacity=".3"/>
<path transform="matrix(1,0,0,-1,11.057,226.871)" stroke-width=".3985" stroke-linecap="butt" stroke-miterlimit="10" stroke-linejoin="miter" fill="none" stroke="#0000ff" d="M 28.3468 0 L 28.3468 0 L 29.49173 1.12155 L 30.63664 2.2016 L 31.78159 3.24142 L 32.9265 4.24492 L 34.07144 5.2138 L 35.21637 6.15068 L 36.36128 7.05727 L 37.50623 7.93663 L 38.65114 8.78828 L 39.79608 9.61617 L 40.94101 10.41983 L 42.08592 11.20142 L 43.23087 11.96182 L 44.37578 12.70233 L 45.52072 13.42511 L 46.66565 14.1297 L 47.81058 14.81483 L 48.9555 15.48615 L 50.10042 16.14186 L 51.24536 16.78117 L 52.39027 17.40791 L 53.53522 18.02255 L 54.68015 18.61772 L 55.82506 19.20685 L 56.97 19.78601 L 58.11491 20.34961 L 59.25986 20.90282 L 60.40479 21.44522 L 61.5497 21.97768 L 62.69464 22.50018 L 63.83955 23.01273 L 64.9845 23.51752 L 66.12943 24.01147 L 67.27435 24.4985 L 68.41928 24.97688 L 69.5642 25.4475 L 70.70914 25.90988 L 71.85406 26.3649 L 72.999 26.81346 L 74.14392 27.25464 L 75.28883 27.68933 L 76.43378 28.11668 L 77.5787 28.53885 L 78.72363 28.95364 L 79.86856 29.36154 L 81.01347 29.76552 L 82.15842 30.16258 L 83.30334 30.55533 L 84.44827 30.94244 L 85.5932 31.32396 L 86.73813 31.70114 L 87.88306 32.07268 L 89.02797 32.44077 L 90.17291 32.80237 L 91.31784 33.15964 L 92.46277 33.5126 L 93.6077 33.86037 L 94.75261 34.20508 L 95.89755 34.5455 L 97.04248 34.88243 L 98.18741 35.21507 L 99.33234 35.5438 L 100.47725 35.8682 L 101.6222 36.18913 L 102.76712 36.50664 L 103.91205 36.8215 L 105.05698 37.12991 L 106.2019 37.43701 L 107.34683 37.74109 L 108.49176 38.04256 L 109.63669 38.33798 L 110.78162 38.63385 L 111.92654 38.92581 L 113.07147 39.21431 L 114.2164 39.50282 L 115.36133 39.78612 L 116.50626 40.06555 L 117.65118 40.34236 L 118.79611 40.6166 L 119.94104 40.88866 L 121.08597 41.15813 L 122.2309 41.42458 L 123.37582 41.68929 L 124.52075 41.95097 L 125.66568 42.21094 L 126.81061 42.4683 L 127.95554 42.72263 L 129.10047 42.97522 L 130.24539 43.22523 L 131.39032 43.47351 L 132.53525 43.7192 L 133.68018 43.964 L 134.8251 44.20493 L 135.97003 44.44499 L 137.11496 44.68245 L 138.25989 44.91861 L 139.40482 45.15219 L 140.54975 45.38403 L 141.69467 45.61414 L 141.73404 45.62193 L 141.73404 198.42766 L 28.3468 85.04042 L 29.49173 86.18535 L 30.63664 87.33026 L 31.78159 88.4752 L 32.9265 89.62012 L 34.07144 90.76506 L 35.21637 91.90999 L 36.36128 93.0549 L 37.50623 94.19984 L 38.65114 95.34476 L 39.79608 96.4897 L 40.94101 97.63463 L 42.08592 98.77954 L 43.23087 99.92448 L 44.37578 101.0694 L 45.52072 102.21434 L 46.66565 103.35927 L 47.81058 104.5042 L 48.9555 105.64912 L 50.10042 106.79404 L 51.24536 107.93898 L 52.39027 109.08391 L 53.53522 110.22884 L 54.68015 111.37376 L 55.82506 112.51868 L 56.97 113.66362 L 58.11491 114.80855 L 59.25986 115.95348 L 60.40479 117.0984 L 61.5497 118.24332 L 62.69464 119.38826 L 63.83955 120.53317 L 64.9845 121.67812 L 66.12943 122.82304 L 67.27435 123.96797 L 68.41928 125.1129 L 69.5642 126.25781 L 70.70914 127.40276 L 71.85406 128.54769 L 72.999 129.69261 L 74.14392 130.83754 L 75.28883 131.98246 L 76.43378 133.1274 L 77.5787 134.27233 L 78.72363 135.41725 L 79.86856 136.56218 L 81.01347 137.70709 L 82.15842 138.85204 L 83.30334 139.99697 L 84.44827 141.14189 L 85.5932 142.28682 L 86.73813 143.43175 L 87.88306 144.57668 L 89.02797 145.7216 L 90.17291 146.86653 L 91.31784 148.01146 L 92.46277 149.15639 L 93.6077 150.30132 L 94.75261 151.44625 L 95.89755 152.59117 L 97.04248 153.7361 L 98.18741 154.88103 L 99.33234 156.02596 L 100.47725 157.17087 L 101.6222 158.31581 L 102.76712 159.46074 L 103.91205 160.60567 L 105.05698 161.7506 L 106.2019 162.89553 L 107.34683 164.04045 L 108.49176 165.18538 L 109.63669 166.3303 L 110.78162 167.47524 L 111.92654 168.62017 L 113.07147 169.76509 L 114.2164 170.91002 L 115.36133 172.05495 L 116.50626 173.19988 L 117.65118 174.3448 L 118.79611 175.48973 L 119.94104 176.63466 L 121.08597 177.77959 L 122.2309 178.92452 L 123.37582 180.06945 L 124.52075 181.21437 L 125.66568 182.35932 L 126.81061 183.50423 L 127.95554 184.64916 L 129.10047 185.79409 L 130.24539 186.93901 L 131.39032 188.08396 L 132.53525 189.22887 L 133.68018 190.3738 L 134.8251 191.51873 L 135.97003 192.66365 L 137.11496 193.80858 L 138.25989 194.9535 L 139.40482 196.09844 L 140.54975 197.24337 L 141.69467 198.38829 L 28.3468 85.04042 L 28.3468 0 "/>
<text fill="#0000ff" fill-opacity=".3" xml:space="preserve" transform="matrix(1 0 -0 1 0 236.255)" font-size="4.9813" font-family="CMMI5" font-style="italic"><tspan y="-47.745" x="138.722">y</tspan></text>
<text fill="#0000ff" fill-opacity=".3" xml:space="preserve" transform="matrix(1 0 -0 1 0 236.255)" font-size="4.9813" font-family="CMR5"><tspan y="-47.745" x="144.577 151.73513 153.74259 157.47856">=ln(</tspan></text>
<text fill="#0000ff" fill-opacity=".3" xml:space="preserve" transform="matrix(1 0 -0 1 0 236.255)" font-size="4.9813" font-family="CMMI5" font-style="italic"><tspan y="-47.745" x="160.17499">x</tspan></text>
<text fill="#0000ff" fill-opacity=".3" xml:space="preserve" transform="matrix(1 0 -0 1 0 236.255)" font-size="4.9813" font-family="CMR5"><tspan y="-47.745" x="164.11798">)</tspan></text>
<text fill="#0000ff" fill-opacity=".3" xml:space="preserve" transform="matrix(1 0 -0 1 .000015258789 236.255)" font-size="4.9813" font-family="CMMI5" font-style="italic"><tspan y="-212.258" x="138.387">y</tspan></text>
<text fill="#0000ff" fill-opacity=".3" xml:space="preserve" transform="matrix(1 0 -0 1 .000015258789 236.255)" font-size="4.9813" font-family="CMR5"><tspan y="-212.258" x="144.24199">=</tspan></text>
<text fill="#0000ff" fill-opacity=".3" xml:space="preserve" transform="matrix(1 0 -0 1 .000015258789 236.255)" font-size="4.9813" font-family="CMMI5" font-style="italic"><tspan y="-212.258" x="151.39899">x</tspan></text>
<text fill="#0000ff" fill-opacity=".3" xml:space="preserve" transform="matrix(1 0 -0 1 .000015258789 236.255)" font-size="4.9813" font-family="CMR5"><tspan y="-212.258" x="156.97199 163.72165">+2</tspan></text>
<path transform="matrix(1,0,0,-1,11.057,226.871)" stroke-width=".3985" stroke-linecap="butt" stroke-dasharray="2.98883,2.98883" stroke-miterlimit="10" stroke-linejoin="miter" fill="none" stroke="#000000" d="M 28.3468 45.62193 L 141.73404 45.62193 "/>
<path transform="matrix(1,0,0,-1,11.057,226.871)" stroke-width=".3985" stroke-linecap="butt" stroke-dasharray="2.98883,2.98883" stroke-miterlimit="10" stroke-linejoin="miter" fill="none" stroke="#000000" d="M 28.3468 85.04042 L 141.73404 85.04042 "/>
</g>
</svg>
