<?xml version="1.0" encoding="UTF-8" standalone="no"?>
<svg
   xmlns:dc="http://purl.org/dc/elements/1.1/"
   xmlns:cc="http://creativecommons.org/ns#"
   xmlns:rdf="http://www.w3.org/1999/02/22-rdf-syntax-ns#"
   xmlns:svg="http://www.w3.org/2000/svg"
   xmlns="http://www.w3.org/2000/svg"
   viewBox="0 0 223.94267 258.97733"
   height="258.97733"
   width="223.94267"
   xml:space="preserve"
   id="svg2"
   version="1.1"><metadata
     id="metadata8"><rdf:RDF><cc:Work
         rdf:about=""><dc:format>image/svg+xml</dc:format><dc:type
           rdf:resource="http://purl.org/dc/dcmitype/StillImage" /></cc:Work></rdf:RDF></metadata><defs
     id="defs6" /><g
     transform="matrix(1.3333333,0,0,-1.3333333,0,258.97733)"
     id="g10"><g
       transform="translate(28.944,28.944)"
       id="g12"><g
         id="g14"><g
           id="g16"><g
             id="g18"><path
               id="path20"
               style="fill:none;stroke:#bfbfbf;stroke-width:0.19925;stroke-linecap:butt;stroke-linejoin:miter;stroke-miterlimit:10;stroke-dasharray:none;stroke-opacity:1"
               d="M -28.3468,-28.3468 H 113.38724 M -28.3468,0 H 113.38724 M -28.3468,28.3468 H 113.38724 M -28.3468,56.69362 H 113.38724 M -28.3468,85.04042 H 113.38724 M -28.3468,113.38724 H 113.38724 M -28.3468,141.72409 H 113.38724 M -28.3468,-28.3468 V 141.73404 M 0,-28.3468 V 141.73404 M 28.3468,-28.3468 V 141.73404 M 56.69362,-28.3468 V 141.73404 M 85.04042,-28.3468 V 141.73404 M 113.37727,-28.3468 v 170.08084" /></g><g
             id="g22"><path
               id="path24"
               style="fill:none;stroke:#000000;stroke-width:1.19553006;stroke-linecap:butt;stroke-linejoin:miter;stroke-miterlimit:10;stroke-dasharray:none;stroke-opacity:1"
               d="M -28.3468,0 H 126.60422" /><g
               transform="translate(126.60422)"
               id="g26"><g
                 id="g28"><path
                   id="path30"
                   style="fill:none;stroke:#000000;stroke-width:0.95639998;stroke-linecap:round;stroke-linejoin:round;stroke-miterlimit:10;stroke-dasharray:none;stroke-opacity:1"
                   d="M -1.91284,2.55046 C -1.75343,1.59402 0,0.15938 0.4782,0 0,-0.15938 -1.75343,-1.59402 -1.91284,-2.55046" /></g></g><g
               id="g32"><g
                 transform="translate(131.477,-6.063)"
                 id="g34"><g
                   id="g36"><g
                     transform="translate(-160.421,-22.881)"
                     id="g38"><text
                       id="text42"
                       style="font-variant:normal;font-weight:normal;font-size:4.98129988px;font-family:CMMI5;-inkscape-font-specification:CMMI5;writing-mode:lr-tb;fill:#000000;fill-opacity:1;fill-rule:nonzero;stroke:none"
                       transform="matrix(1,0,0,-1,160.421,22.881)"><tspan
                         id="tspan40"
                         y="0"
                         x="0">u</tspan></text>
<g
                       transform="translate(160.421,22.881)"
                       id="g44" /></g></g><g
                   transform="translate(-131.477,6.063)"
                   id="g46" /></g></g></g><g
             id="g48"><path
               id="path50"
               style="fill:none;stroke:#000000;stroke-width:1.19553006;stroke-linecap:butt;stroke-linejoin:miter;stroke-miterlimit:10;stroke-dasharray:none;stroke-opacity:1"
               d="M 0,-28.3468 V 154.95102" /><g
               transform="rotate(90,-77.47551,77.47551)"
               id="g52"><g
                 id="g54"><path
                   id="path56"
                   style="fill:none;stroke:#000000;stroke-width:0.95639998;stroke-linecap:round;stroke-linejoin:round;stroke-miterlimit:10;stroke-dasharray:none;stroke-opacity:1"
                   d="M -1.91284,2.55046 C -1.75343,1.59402 0,0.15938 0.4782,0 0,-0.15938 -1.75343,-1.59402 -1.91284,-2.55046" /></g></g><g
               id="g58"><g
                 transform="translate(-7.694,159.824)"
                 id="g60"><g
                   id="g62"><g
                     transform="translate(-21.25,-188.768)"
                     id="g64"><text
                       id="text68"
                       style="font-variant:normal;font-weight:normal;font-size:4.98129988px;font-family:CMMI5;-inkscape-font-specification:CMMI5;writing-mode:lr-tb;fill:#000000;fill-opacity:1;fill-rule:nonzero;stroke:none"
                       transform="matrix(1,0,0,-1,21.25,188.768)"><tspan
                         id="tspan66"
                         y="0"
                         x="0">v</tspan></text>
<g
                       transform="translate(21.25,188.768)"
                       id="g70" /></g></g><g
                   transform="translate(7.694,-159.824)"
                   id="g72" /></g></g></g><path
             id="path74"
             style="fill:none;stroke:#000000;stroke-width:0.3985;stroke-linecap:butt;stroke-linejoin:miter;stroke-miterlimit:10;stroke-dasharray:none;stroke-opacity:1"
             d="M 0,0.99628 V -0.99628" /><g
             id="g76"><g
               transform="translate(-1.889,-7.726)"
               id="g78"><g
                 id="g80"><g
                   transform="translate(-27.055,-21.218)"
                   id="g82"><text
                     id="text86"
                     style="font-variant:normal;font-weight:normal;font-size:4.98129988px;font-family:CMBX5;-inkscape-font-specification:CMBX5;writing-mode:lr-tb;fill:#000000;fill-opacity:1;fill-rule:nonzero;stroke:none"
                     transform="matrix(1,0,0,-1,27.055,21.218)"><tspan
                       id="tspan84"
                       y="0"
                       x="0">0</tspan></text>
<g
                     transform="translate(27.055,21.218)"
                     id="g88" /></g></g><g
                 transform="translate(1.889,7.726)"
                 id="g90" /></g></g><path
             id="path92"
             style="fill:none;stroke:#000000;stroke-width:0.3985;stroke-linecap:butt;stroke-linejoin:miter;stroke-miterlimit:10;stroke-dasharray:none;stroke-opacity:1"
             d="M 28.3468,0.99628 V -0.99628" /><g
             id="g94"><g
               transform="translate(26.458,-7.726)"
               id="g96"><g
                 id="g98"><g
                   transform="translate(-55.402,-21.218)"
                   id="g100"><text
                     id="text104"
                     style="font-variant:normal;font-weight:normal;font-size:4.98129988px;font-family:CMBX5;-inkscape-font-specification:CMBX5;writing-mode:lr-tb;fill:#000000;fill-opacity:1;fill-rule:nonzero;stroke:none"
                     transform="matrix(1,0,0,-1,55.402,21.218)"><tspan
                       id="tspan102"
                       y="0"
                       x="0">1</tspan></text>
<g
                     transform="translate(55.402,21.218)"
                     id="g106" /></g></g><g
                 transform="translate(-26.458,7.726)"
                 id="g108" /></g></g><path
             id="path110"
             style="fill:none;stroke:#000000;stroke-width:0.3985;stroke-linecap:butt;stroke-linejoin:miter;stroke-miterlimit:10;stroke-dasharray:none;stroke-opacity:1"
             d="M 56.69363,0.99628 V -0.99628" /><g
             id="g112"><g
               transform="translate(54.804,-7.726)"
               id="g114"><g
                 id="g116"><g
                   transform="translate(-83.748,-21.218)"
                   id="g118"><text
                     id="text122"
                     style="font-variant:normal;font-weight:normal;font-size:4.98129988px;font-family:CMBX5;-inkscape-font-specification:CMBX5;writing-mode:lr-tb;fill:#000000;fill-opacity:1;fill-rule:nonzero;stroke:none"
                     transform="matrix(1,0,0,-1,83.748,21.218)"><tspan
                       id="tspan120"
                       y="0"
                       x="0">2</tspan></text>
<g
                     transform="translate(83.748,21.218)"
                     id="g124" /></g></g><g
                 transform="translate(-54.804,7.726)"
                 id="g126" /></g></g><path
             id="path128"
             style="fill:none;stroke:#000000;stroke-width:0.3985;stroke-linecap:butt;stroke-linejoin:miter;stroke-miterlimit:10;stroke-dasharray:none;stroke-opacity:1"
             d="M 85.04045,0.99628 V -0.99628" /><g
             id="g130"><g
               transform="translate(83.151,-7.726)"
               id="g132"><g
                 id="g134"><g
                   transform="translate(-112.095,-21.218)"
                   id="g136"><text
                     id="text140"
                     style="font-variant:normal;font-weight:normal;font-size:4.98129988px;font-family:CMBX5;-inkscape-font-specification:CMBX5;writing-mode:lr-tb;fill:#000000;fill-opacity:1;fill-rule:nonzero;stroke:none"
                     transform="matrix(1,0,0,-1,112.095,21.218)"><tspan
                       id="tspan138"
                       y="0"
                       x="0">3</tspan></text>
<g
                     transform="translate(112.095,21.218)"
                     id="g142" /></g></g><g
                 transform="translate(-83.151,7.726)"
                 id="g144" /></g></g><path
             id="path146"
             style="fill:none;stroke:#000000;stroke-width:0.3985;stroke-linecap:butt;stroke-linejoin:miter;stroke-miterlimit:10;stroke-dasharray:none;stroke-opacity:1"
             d="M 113.38728,0.99628 V -0.99628" /><g
             id="g148"><g
               transform="translate(111.497,-7.726)"
               id="g150"><g
                 id="g152"><g
                   transform="translate(-140.441,-21.218)"
                   id="g154"><text
                     id="text158"
                     style="font-variant:normal;font-weight:normal;font-size:4.98129988px;font-family:CMBX5;-inkscape-font-specification:CMBX5;writing-mode:lr-tb;fill:#000000;fill-opacity:1;fill-rule:nonzero;stroke:none"
                     transform="matrix(1,0,0,-1,140.441,21.218)"><tspan
                       id="tspan156"
                       y="0"
                       x="0">4</tspan></text>
<g
                     transform="translate(140.441,21.218)"
                     id="g160" /></g></g><g
                 transform="translate(-111.497,7.726)"
                 id="g162" /></g></g><path
             id="path164"
             style="fill:none;stroke:#000000;stroke-width:0.3985;stroke-linecap:butt;stroke-linejoin:miter;stroke-miterlimit:10;stroke-dasharray:none;stroke-opacity:1"
             d="M 0.99628,0 H -0.99628" /><g
             id="g166"><g
               transform="translate(-8.293,-1.605)"
               id="g168"><g
                 id="g170"><g
                   transform="translate(-20.651,-27.339)"
                   id="g172"><text
                     id="text176"
                     style="font-variant:normal;font-weight:normal;font-size:4.98129988px;font-family:CMBX5;-inkscape-font-specification:CMBX5;writing-mode:lr-tb;fill:#000000;fill-opacity:1;fill-rule:nonzero;stroke:none"
                     transform="matrix(1,0,0,-1,20.651,27.339)"><tspan
                       id="tspan174"
                       y="0"
                       x="0">0</tspan></text>
<g
                     transform="translate(20.651,27.339)"
                     id="g178" /></g></g><g
                 transform="translate(8.293,1.605)"
                 id="g180" /></g></g><path
             id="path182"
             style="fill:none;stroke:#000000;stroke-width:0.3985;stroke-linecap:butt;stroke-linejoin:miter;stroke-miterlimit:10;stroke-dasharray:none;stroke-opacity:1"
             d="M 0.99628,28.3468 H -0.99628" /><g
             id="g184"><g
               transform="translate(-8.293,26.742)"
               id="g186"><g
                 id="g188"><g
                   transform="translate(-20.651,-55.686)"
                   id="g190"><text
                     id="text194"
                     style="font-variant:normal;font-weight:normal;font-size:4.98129988px;font-family:CMBX5;-inkscape-font-specification:CMBX5;writing-mode:lr-tb;fill:#000000;fill-opacity:1;fill-rule:nonzero;stroke:none"
                     transform="matrix(1,0,0,-1,20.651,55.686)"><tspan
                       id="tspan192"
                       y="0"
                       x="0">1</tspan></text>
<g
                     transform="translate(20.651,55.686)"
                     id="g196" /></g></g><g
                 transform="translate(8.293,-26.742)"
                 id="g198" /></g></g><path
             id="path200"
             style="fill:none;stroke:#000000;stroke-width:0.3985;stroke-linecap:butt;stroke-linejoin:miter;stroke-miterlimit:10;stroke-dasharray:none;stroke-opacity:1"
             d="M 0.99628,56.69363 H -0.99628" /><g
             id="g202"><g
               transform="translate(-8.293,55.088)"
               id="g204"><g
                 id="g206"><g
                   transform="translate(-20.651,-84.032)"
                   id="g208"><text
                     id="text212"
                     style="font-variant:normal;font-weight:normal;font-size:4.98129988px;font-family:CMBX5;-inkscape-font-specification:CMBX5;writing-mode:lr-tb;fill:#000000;fill-opacity:1;fill-rule:nonzero;stroke:none"
                     transform="matrix(1,0,0,-1,20.651,84.032)"><tspan
                       id="tspan210"
                       y="0"
                       x="0">2</tspan></text>
<g
                     transform="translate(20.651,84.032)"
                     id="g214" /></g></g><g
                 transform="translate(8.293,-55.088)"
                 id="g216" /></g></g><path
             id="path218"
             style="fill:none;stroke:#000000;stroke-width:0.3985;stroke-linecap:butt;stroke-linejoin:miter;stroke-miterlimit:10;stroke-dasharray:none;stroke-opacity:1"
             d="M 0.99628,85.04045 H -0.99628" /><g
             id="g220"><g
               transform="translate(-8.293,83.434)"
               id="g222"><g
                 id="g224"><g
                   transform="translate(-20.651,-112.378)"
                   id="g226"><text
                     id="text230"
                     style="font-variant:normal;font-weight:normal;font-size:4.98129988px;font-family:CMBX5;-inkscape-font-specification:CMBX5;writing-mode:lr-tb;fill:#000000;fill-opacity:1;fill-rule:nonzero;stroke:none"
                     transform="matrix(1,0,0,-1,20.651,112.378)"><tspan
                       id="tspan228"
                       y="0"
                       x="0">3</tspan></text>
<g
                     transform="translate(20.651,112.378)"
                     id="g232" /></g></g><g
                 transform="translate(8.293,-83.434)"
                 id="g234" /></g></g><path
             id="path236"
             style="fill:none;stroke:#000000;stroke-width:0.3985;stroke-linecap:butt;stroke-linejoin:miter;stroke-miterlimit:10;stroke-dasharray:none;stroke-opacity:1"
             d="M 0.99628,113.38728 H -0.99628" /><g
             id="g238"><g
               transform="translate(-8.293,111.781)"
               id="g240"><g
                 id="g242"><g
                   transform="translate(-20.651,-140.725)"
                   id="g244"><text
                     id="text248"
                     style="font-variant:normal;font-weight:normal;font-size:4.98129988px;font-family:CMBX5;-inkscape-font-specification:CMBX5;writing-mode:lr-tb;fill:#000000;fill-opacity:1;fill-rule:nonzero;stroke:none"
                     transform="matrix(1,0,0,-1,20.651,140.725)"><tspan
                       id="tspan246"
                       y="0"
                       x="0">4</tspan></text>
<g
                     transform="translate(20.651,140.725)"
                     id="g250" /></g></g><g
                 transform="translate(8.293,-111.781)"
                 id="g252" /></g></g><path
             id="path254"
             style="fill:none;stroke:#000000;stroke-width:0.3985;stroke-linecap:butt;stroke-linejoin:miter;stroke-miterlimit:10;stroke-dasharray:none;stroke-opacity:1"
             d="M 0.99628,141.7341 H -0.99628" /><g
             id="g256"><g
               transform="translate(-8.293,140.127)"
               id="g258"><g
                 id="g260"><g
                   transform="translate(-20.651,-169.071)"
                   id="g262"><text
                     id="text266"
                     style="font-variant:normal;font-weight:normal;font-size:4.98129988px;font-family:CMBX5;-inkscape-font-specification:CMBX5;writing-mode:lr-tb;fill:#000000;fill-opacity:1;fill-rule:nonzero;stroke:none"
                     transform="matrix(1,0,0,-1,20.651,169.071)"><tspan
                       id="tspan264"
                       y="0"
                       x="0">5</tspan></text>
<g
                     transform="translate(20.651,169.071)"
                     id="g268" /></g></g><g
                 transform="translate(8.293,-140.127)"
                 id="g270" /></g></g><g
             id="g272"><path
               id="path274"
               style="fill:none;stroke:#008080;stroke-width:0.3985;stroke-linecap:butt;stroke-linejoin:miter;stroke-miterlimit:10;stroke-dasharray:none;stroke-opacity:1"
               d="M 0,0 85.04042,113.38724" /></g><g
             id="g276"><path
               id="path278"
               style="fill:#008080;fill-opacity:1;fill-rule:nonzero;stroke:#008080;stroke-width:0.3985;stroke-linecap:butt;stroke-linejoin:miter;stroke-miterlimit:10;stroke-dasharray:none;stroke-opacity:1"
               d="m 87.03297,113.38724 c 0,1.10046 -0.89207,1.99255 -1.99255,1.99255 -1.10046,0 -1.99255,-0.89209 -1.99255,-1.99255 0,-1.10048 0.89209,-1.99256 1.99255,-1.99256 1.10048,0 1.99255,0.89208 1.99255,1.99256 z" /></g><g
             id="g280"><path
               id="path282"
               style="fill:none;stroke:#0000ff;stroke-width:0.79701;stroke-linecap:butt;stroke-linejoin:miter;stroke-miterlimit:10;stroke-dasharray:none;stroke-opacity:1"
               d="M 0,0 13.18192,17.57607" /><g
               transform="matrix(0.59999,0.79997,-0.79997,0.59999,13.18192,17.57607)"
               id="g284"><g
                 id="g286"><path
                   id="path288"
                   style="fill:none;stroke:#0000ff;stroke-width:0.6376;stroke-linecap:round;stroke-linejoin:round;stroke-miterlimit:10;stroke-dasharray:none;stroke-opacity:1"
                   d="M -1.55415,2.0722 C -1.42464,1.29512 0,0.1295 0.38852,0 0,-0.1295 -1.42464,-1.29512 -1.55415,-2.0722" /></g></g></g><g
             id="g290"><path
               id="path292"
               style="fill:#0000ff;fill-opacity:1;fill-rule:nonzero;stroke:#0000ff;stroke-width:0.3985;stroke-linecap:butt;stroke-linejoin:miter;stroke-miterlimit:10;stroke-dasharray:none;stroke-opacity:1"
               d="M 1.99255,0 C 1.99255,1.10046 1.10046,1.99255 0,1.99255 -1.10046,1.99255 -1.99255,1.10046 -1.99255,0 c 0,-1.10046 0.89209,-1.99255 1.99255,-1.99255 1.10046,0 1.99255,0.89209 1.99255,1.99255 z" /></g><g
             id="g294"><path
               id="path296"
               style="fill:none;stroke:#ff8000;stroke-width:0.3985;stroke-linecap:butt;stroke-linejoin:miter;stroke-miterlimit:10;stroke-dasharray:none;stroke-opacity:1"
               d="M 0,0 -17.77533,13.33136" /><g
               transform="matrix(-0.79997,0.59999,-0.59999,-0.79997,-17.77531,13.33134)"
               id="g298"><g
                 id="g300"><path
                   id="path302"
                   style="fill:none;stroke:#ff8000;stroke-width:0.31878999;stroke-linecap:round;stroke-linejoin:round;stroke-miterlimit:10;stroke-dasharray:none;stroke-opacity:1"
                   d="M -1.19551,1.59401 C -1.09587,0.99626 0,0.09961 0.29886,0 0,-0.09961 -1.09587,-0.99626 -1.19551,-1.59401" /></g></g></g><g
             id="g304"><path
               id="path306"
               style="fill:none;stroke:#0000ff;stroke-width:0.79701;stroke-linecap:butt;stroke-linejoin:miter;stroke-miterlimit:10;stroke-dasharray:none;stroke-opacity:1"
               d="M 17.00824,22.67752 30.19019,40.2536" /><g
               transform="matrix(0.59999,0.79997,-0.79997,0.59999,30.19019,40.2536)"
               id="g308"><g
                 id="g310"><path
                   id="path312"
                   style="fill:none;stroke:#0000ff;stroke-width:0.6376;stroke-linecap:round;stroke-linejoin:round;stroke-miterlimit:10;stroke-dasharray:none;stroke-opacity:1"
                   d="M -1.55415,2.0722 C -1.42464,1.29512 0,0.1295 0.38852,0 0,-0.1295 -1.42464,-1.29512 -1.55415,-2.0722" /></g></g></g><g
             id="g314"><path
               id="path316"
               style="fill:#0000ff;fill-opacity:1;fill-rule:nonzero;stroke:#0000ff;stroke-width:0.3985;stroke-linecap:butt;stroke-linejoin:miter;stroke-miterlimit:10;stroke-dasharray:none;stroke-opacity:1"
               d="m 19.0008,22.67752 c 0,1.10046 -0.8921,1.99255 -1.99256,1.99255 -1.10048,0 -1.99255,-0.89209 -1.99255,-1.99255 0,-1.10048 0.89207,-1.99255 1.99255,-1.99255 1.10046,0 1.99256,0.89207 1.99256,1.99255 z" /></g><g
             id="g318"><path
               id="path320"
               style="fill:none;stroke:#ff8000;stroke-width:0.3985;stroke-linecap:butt;stroke-linejoin:miter;stroke-miterlimit:10;stroke-dasharray:none;stroke-opacity:1"
               d="M 17.00824,22.67752 -0.76707,36.0089" /><g
               transform="matrix(-0.79997,0.59999,-0.59999,-0.79997,-0.76706,36.00888)"
               id="g322"><g
                 id="g324"><path
                   id="path326"
                   style="fill:none;stroke:#ff8000;stroke-width:0.31878999;stroke-linecap:round;stroke-linejoin:round;stroke-miterlimit:10;stroke-dasharray:none;stroke-opacity:1"
                   d="M -1.19551,1.59401 C -1.09587,0.99626 0,0.09961 0.29886,0 0,-0.09961 -1.09587,-0.99626 -1.19551,-1.59401" /></g></g></g><g
             id="g328"><path
               id="path330"
               style="fill:none;stroke:#0000ff;stroke-width:0.79701;stroke-linecap:butt;stroke-linejoin:miter;stroke-miterlimit:10;stroke-dasharray:none;stroke-opacity:1"
               d="M 34.0165,45.35506 47.19844,62.93114" /><g
               transform="matrix(0.59999,0.79997,-0.79997,0.59999,47.19844,62.93114)"
               id="g332"><g
                 id="g334"><path
                   id="path336"
                   style="fill:none;stroke:#0000ff;stroke-width:0.6376;stroke-linecap:round;stroke-linejoin:round;stroke-miterlimit:10;stroke-dasharray:none;stroke-opacity:1"
                   d="M -1.55415,2.0722 C -1.42464,1.29512 0,0.1295 0.38852,0 0,-0.1295 -1.42464,-1.29512 -1.55415,-2.0722" /></g></g></g><g
             id="g338"><path
               id="path340"
               style="fill:#0000ff;fill-opacity:1;fill-rule:nonzero;stroke:#0000ff;stroke-width:0.3985;stroke-linecap:butt;stroke-linejoin:miter;stroke-miterlimit:10;stroke-dasharray:none;stroke-opacity:1"
               d="m 36.00905,45.35506 c 0,1.10046 -0.89208,1.99255 -1.99255,1.99255 -1.10047,0 -1.99256,-0.89209 -1.99256,-1.99255 0,-1.10048 0.89209,-1.99256 1.99256,-1.99256 1.10047,0 1.99255,0.89208 1.99255,1.99256 z" /></g><g
             id="g342"><path
               id="path344"
               style="fill:none;stroke:#ff8000;stroke-width:0.3985;stroke-linecap:butt;stroke-linejoin:miter;stroke-miterlimit:10;stroke-dasharray:none;stroke-opacity:1"
               d="M 34.0165,45.35506 16.24117,58.68643" /><g
               transform="matrix(-0.79997,0.59999,-0.59999,-0.79997,16.24118,58.68642)"
               id="g346"><g
                 id="g348"><path
                   id="path350"
                   style="fill:none;stroke:#ff8000;stroke-width:0.31878999;stroke-linecap:round;stroke-linejoin:round;stroke-miterlimit:10;stroke-dasharray:none;stroke-opacity:1"
                   d="M -1.19551,1.59401 C -1.09587,0.99626 0,0.09961 0.29886,0 0,-0.09961 -1.09587,-0.99626 -1.19551,-1.59401" /></g></g></g><g
             id="g352"><path
               id="path354"
               style="fill:none;stroke:#0000ff;stroke-width:0.79701;stroke-linecap:butt;stroke-linejoin:miter;stroke-miterlimit:10;stroke-dasharray:none;stroke-opacity:1"
               d="M 51.02477,68.0326 64.20671,85.60867" /><g
               transform="matrix(0.59999,0.79997,-0.79997,0.59999,64.20671,85.60867)"
               id="g356"><g
                 id="g358"><path
                   id="path360"
                   style="fill:none;stroke:#0000ff;stroke-width:0.6376;stroke-linecap:round;stroke-linejoin:round;stroke-miterlimit:10;stroke-dasharray:none;stroke-opacity:1"
                   d="M -1.55415,2.0722 C -1.42464,1.29512 0,0.1295 0.38852,0 0,-0.1295 -1.42464,-1.29512 -1.55415,-2.0722" /></g></g></g><g
             id="g362"><path
               id="path364"
               style="fill:#0000ff;fill-opacity:1;fill-rule:nonzero;stroke:#0000ff;stroke-width:0.3985;stroke-linecap:butt;stroke-linejoin:miter;stroke-miterlimit:10;stroke-dasharray:none;stroke-opacity:1"
               d="m 53.01732,68.0326 c 0,1.10046 -0.89209,1.99255 -1.99255,1.99255 -1.10048,0 -1.99256,-0.89209 -1.99256,-1.99255 0,-1.10049 0.89208,-1.99256 1.99256,-1.99256 1.10046,0 1.99255,0.89207 1.99255,1.99256 z" /></g><g
             id="g366"><path
               id="path368"
               style="fill:none;stroke:#ff8000;stroke-width:0.3985;stroke-linecap:butt;stroke-linejoin:miter;stroke-miterlimit:10;stroke-dasharray:none;stroke-opacity:1"
               d="M 51.02477,68.0326 33.2494,81.36397" /><g
               transform="matrix(-0.79997,0.59999,-0.59999,-0.79997,33.24942,81.36397)"
               id="g370"><g
                 id="g372"><path
                   id="path374"
                   style="fill:none;stroke:#ff8000;stroke-width:0.31878999;stroke-linecap:round;stroke-linejoin:round;stroke-miterlimit:10;stroke-dasharray:none;stroke-opacity:1"
                   d="M -1.19551,1.59401 C -1.09587,0.99626 0,0.09961 0.29886,0 0,-0.09961 -1.09587,-0.99626 -1.19551,-1.59401" /></g></g></g><g
             id="g376"><path
               id="path378"
               style="fill:none;stroke:#0000ff;stroke-width:0.79701;stroke-linecap:butt;stroke-linejoin:miter;stroke-miterlimit:10;stroke-dasharray:none;stroke-opacity:1"
               d="M 68.03302,90.71013 81.21497,108.2862" /><g
               transform="matrix(0.59999,0.79997,-0.79997,0.59999,81.21497,108.2862)"
               id="g380"><g
                 id="g382"><path
                   id="path384"
                   style="fill:none;stroke:#0000ff;stroke-width:0.6376;stroke-linecap:round;stroke-linejoin:round;stroke-miterlimit:10;stroke-dasharray:none;stroke-opacity:1"
                   d="M -1.55415,2.0722 C -1.42464,1.29512 0,0.1295 0.38852,0 0,-0.1295 -1.42464,-1.29512 -1.55415,-2.0722" /></g></g></g><g
             id="g386"><path
               id="path388"
               style="fill:#0000ff;fill-opacity:1;fill-rule:nonzero;stroke:#0000ff;stroke-width:0.3985;stroke-linecap:butt;stroke-linejoin:miter;stroke-miterlimit:10;stroke-dasharray:none;stroke-opacity:1"
               d="m 70.02557,90.71013 c 0,1.10047 -0.89207,1.99255 -1.99255,1.99255 -1.10046,0 -1.99255,-0.89208 -1.99255,-1.99255 0,-1.10048 0.89209,-1.99255 1.99255,-1.99255 1.10048,0 1.99255,0.89207 1.99255,1.99255 z" /></g><g
             id="g390"><path
               id="path392"
               style="fill:none;stroke:#ff8000;stroke-width:0.3985;stroke-linecap:butt;stroke-linejoin:miter;stroke-miterlimit:10;stroke-dasharray:none;stroke-opacity:1"
               d="M 68.03302,90.71013 50.25768,104.0415" /><g
               transform="matrix(-0.79997,0.59999,-0.59999,-0.79997,50.25769,104.0415)"
               id="g394"><g
                 id="g396"><path
                   id="path398"
                   style="fill:none;stroke:#ff8000;stroke-width:0.31878999;stroke-linecap:round;stroke-linejoin:round;stroke-miterlimit:10;stroke-dasharray:none;stroke-opacity:1"
                   d="M -1.19551,1.59401 C -1.09587,0.99626 0,0.09961 0.29886,0 0,-0.09961 -1.09587,-0.99626 -1.19551,-1.59401" /></g></g></g></g></g></g></g></svg>