<?xml version="1.0" encoding="UTF-8" standalone="no"?>
<!DOCTYPE svg PUBLIC "-//W3C//DTD SVG 1.1//EN" "http://www.w3.org/Graphics/SVG/1.1/DTD/svg11.dtd">
<svg xmlns="http://www.w3.org/2000/svg" xmlns:xlink="http://www.w3.org/1999/xlink" version="1.1" width="86.871pt" height="80.17pt" viewBox="0 0 86.871 80.17">
<g enable-background="new">
<path transform="matrix(1,0,0,-1,15.089,68.431)" d="M 1.99255 0 C 1.99255 1.10046 1.10046 1.99255 0 1.99255 C -1.10046 1.99255 -1.99255 1.10046 -1.99255 0 C -1.99255 -1.10046 -1.10046 -1.99255 0 -1.99255 C 1.10046 -1.99255 1.99255 -1.10046 1.99255 0 Z M 0 0 "/>
<path transform="matrix(1,0,0,-1,15.089,68.431)" stroke-width=".3985" stroke-linecap="butt" stroke-miterlimit="10" stroke-linejoin="miter" fill="none" stroke="#000000" d="M 1.99255 0 C 1.99255 1.10046 1.10046 1.99255 0 1.99255 C -1.10046 1.99255 -1.99255 1.10046 -1.99255 0 C -1.99255 -1.10046 -1.10046 -1.99255 0 -1.99255 C 1.10046 -1.99255 1.99255 -1.10046 1.99255 0 Z M 0 0 "/>
<text xml:space="preserve" transform="matrix(1 0 -0 1 0 80.17)" font-size="4.9813" font-family="CMMI5" font-style="italic"><tspan y="-4.815" x="3.321">P</tspan></text>
<text xml:space="preserve" transform="matrix(1 0 -0 1 0 80.17)" font-size="4.9813" font-family="CMR5"><tspan y="-3.321" x="7.681">0</tspan></text>
<path transform="matrix(1,0,0,-1,15.089,68.431)" d="M 58.68617 56.69362 C 58.68617 57.79408 57.79408 58.68617 56.69362 58.68617 C 55.59314 58.68617 54.70107 57.79408 54.70107 56.69362 C 54.70107 55.59314 55.59314 54.70107 56.69362 54.70107 C 57.79408 54.70107 58.68617 55.59314 58.68617 56.69362 Z M 56.69362 56.69362 "/>
<path transform="matrix(1,0,0,-1,15.089,68.431)" stroke-width=".3985" stroke-linecap="butt" stroke-miterlimit="10" stroke-linejoin="miter" fill="none" stroke="#000000" d="M 58.68617 56.69362 C 58.68617 57.79408 57.79408 58.68617 56.69362 58.68617 C 55.59314 58.68617 54.70107 57.79408 54.70107 56.69362 C 54.70107 55.59314 55.59314 54.70107 56.69362 54.70107 C 57.79408 54.70107 58.68617 55.59314 58.68617 56.69362 Z M 56.69362 56.69362 "/>
<text xml:space="preserve" transform="matrix(1 0 -0 1 0 80.17)" font-size="4.9813" font-family="CMMI5" font-style="italic"><tspan y="-73.446" x="75.302">P</tspan></text>
<text xml:space="preserve" transform="matrix(1 0 -0 1 0 80.17)" font-size="4.9813" font-family="CMR5"><tspan y="-71.951" x="79.662">1</tspan></text>
<path transform="matrix(1,0,0,-1,15.089,68.431)" stroke-width=".3985" stroke-linecap="butt" stroke-miterlimit="10" stroke-linejoin="miter" fill="none" stroke="#0000ff" d="M 0 0 L .57222 0 L 1.14447 0 L 1.71672 0 L 2.28897 0 L 2.86122 0 L 3.43347 0 L 4.0057 0 L 4.57796 0 L 5.1502 0 L 5.72246 0 L 6.29471 0 L 6.86696 0 L 7.43921 0 L 8.01144 0 L 8.5837 0 L 9.15594 0 L 9.7282 0 L 10.30045 0 L 10.8727 0 L 11.44493 0 L 12.01718 0 L 12.58943 0 L 13.16168 .00041 L 13.73393 .00041 L 14.30618 .00084 L 14.87843 .00084 L 15.45067 .00128 L 16.02292 .00215 L 16.59517 .00302 L 17.16742 .00389 L 17.73967 .00517 L 18.31192 .00647 L 18.88417 .0082 L 19.4564 .0108 L 20.02866 .0134 L 20.6009 .01685 L 21.17316 .02118 L 21.7454 .02637 L 22.31766 .03242 L 22.8899 .03978 L 23.46214 .04843 L 24.0344 .0588 L 24.60664 .07135 L 25.1789 .08563 L 25.75114 .1025 L 26.3234 .1224 L 26.89563 .14532 L 27.46788 .17169 L 28.04013 .20285 L 28.61237 .23831 L 29.18462 .2794 L 29.75687 .32613 L 30.32912 .38017 L 30.90135 .4416 L 31.4736 .51125 L 32.04585 .5904 L 32.6181 .68037 L 33.19035 .78201 L 33.7626 .89664 L 34.33484 1.02553 L 34.90709 1.17087 L 35.47934 1.3335 L 36.05159 1.5156 L 36.62384 1.7189 L 37.19609 1.94597 L 37.76834 2.199 L 38.34058 2.48016 L 38.91283 2.79245 L 39.48508 3.13805 L 40.05733 3.52127 L 40.62958 3.94429 L 41.20183 4.41144 L 41.77408 4.92616 L 42.34631 5.49234 L 42.91856 6.1152 L 43.49081 6.79861 L 44.06306 7.5482 L 44.63531 8.36873 L 45.20757 9.26712 L 45.7798 10.24811 L 46.35205 11.31863 L 46.9243 12.48607 L 47.49655 13.75772 L 48.0688 15.14098 L 48.64105 16.64449 L 49.2133 18.27731 L 49.78554 20.04855 L 50.35779 21.96771 L 50.93004 24.04607 L 51.50229 26.2944 L 52.07454 28.72482 L 52.64679 31.34947 L 53.21904 34.1813 L 53.79128 37.23502 L 54.36353 40.52405 L 54.93578 44.06566 L 55.50803 47.87416 L 56.08028 51.9677 L 56.60109 55.97017 "/>
<path transform="matrix(.12903,-.9916,-.9916,-.12903,71.7158,12.263279)" stroke-width=".3985" stroke-linecap="round" stroke-linejoin="round" fill="none" stroke="#0000ff" d="M -2.07224 2.39104 C -1.69365 .95639 -.84999 .27895 0 0 C -.84999 -.27895 -1.69365 -.95639 -2.07224 -2.39104 "/>
<path transform="matrix(1,0,0,-1,15.089,68.431)" stroke-width=".3985" stroke-linecap="butt" stroke-miterlimit="10" stroke-linejoin="miter" fill="none" stroke="#ff0000" d="M 56.69362 56.69362 L .28177 .28177 "/>
<path transform="matrix(-.7071,.7071,.7071,.7071,15.229879,68.29012)" stroke-width=".3985" stroke-linecap="round" stroke-linejoin="round" fill="none" stroke="#ff0000" d="M -2.07224 2.39104 C -1.69365 .95639 -.84999 .27895 0 0 C -.84999 -.27895 -1.69365 -.95639 -2.07224 -2.39104 "/>
<text fill="#ff0000" xml:space="preserve" transform="matrix(1 0 -0 1 0 80.17)" font-size="4.9813" font-family="CMMI5" font-style="italic"><tspan y="-45.099" x="31.066">C</tspan></text>
<text fill="#ff0000" xml:space="preserve" transform="matrix(1 0 -0 1 0 80.17)" font-size="4.9813" font-family="CMR5"><tspan y="-43.605" x="36.027">2</tspan></text>
<path transform="matrix(1,0,0,-1,15.089,68.431)" stroke-width=".3985" stroke-linecap="butt" stroke-miterlimit="10" stroke-linejoin="miter" fill="none" stroke="#000000" d="M 51.02432 5.66927 "/>
<text xml:space="preserve" transform="matrix(1 0 -0 1 0 80.17)" font-size="4.9813" font-family="CMMI5" font-style="italic"><tspan y="-16.453" x="61.688">C</tspan></text>
<text xml:space="preserve" transform="matrix(1 0 -0 1 0 80.17)" font-size="4.9813" font-family="CMR5"><tspan y="-14.959" x="66.649">1</tspan></text>
</g>
</svg>
