<?xml version="1.0" encoding="UTF-8" standalone="no"?>
<!DOCTYPE svg PUBLIC "-//W3C//DTD SVG 1.1//EN" "http://www.w3.org/Graphics/SVG/1.1/DTD/svg11.dtd">
<svg xmlns="http://www.w3.org/2000/svg" xmlns:xlink="http://www.w3.org/1999/xlink" version="1.1" width="105.805pt" height="80.336pt" viewBox="0 0 105.805 80.336">
<g enable-background="new">
<path transform="matrix(1,0,0,-1,20.109,68.514)" d="M 1.99255 0 C 1.99255 1.10046 1.10046 1.99255 0 1.99255 C -1.10046 1.99255 -1.99255 1.10046 -1.99255 0 C -1.99255 -1.10046 -1.10046 -1.99255 0 -1.99255 C 1.10046 -1.99255 1.99255 -1.10046 1.99255 0 Z M 0 0 "/>
<path transform="matrix(1,0,0,-1,20.109,68.514)" stroke-width=".3985" stroke-linecap="butt" stroke-miterlimit="10" stroke-linejoin="miter" fill="none" stroke="#000000" d="M 1.99255 0 C 1.99255 1.10046 1.10046 1.99255 0 1.99255 C -1.10046 1.99255 -1.99255 1.10046 -1.99255 0 C -1.99255 -1.10046 -1.10046 -1.99255 0 -1.99255 C 1.10046 -1.99255 1.99255 -1.10046 1.99255 0 Z M 0 0 "/>
<path transform="matrix(1,0,0,-1,20.109,68.514)" d="M 58.68617 0 C 58.68617 1.10046 57.79408 1.99255 56.69362 1.99255 C 55.59314 1.99255 54.70107 1.10046 54.70107 0 C 54.70107 -1.10046 55.59314 -1.99255 56.69362 -1.99255 C 57.79408 -1.99255 58.68617 -1.10046 58.68617 0 Z M 56.69362 0 "/>
<path transform="matrix(1,0,0,-1,20.109,68.514)" stroke-width=".3985" stroke-linecap="butt" stroke-miterlimit="10" stroke-linejoin="miter" fill="none" stroke="#000000" d="M 58.68617 0 C 58.68617 1.10046 57.79408 1.99255 56.69362 1.99255 C 55.59314 1.99255 54.70107 1.10046 54.70107 0 C 54.70107 -1.10046 55.59314 -1.99255 56.69362 -1.99255 C 57.79408 -1.99255 58.68617 -1.10046 58.68617 0 Z M 56.69362 0 "/>
<path transform="matrix(1,0,0,-1,20.109,68.514)" d="M 1.99255 56.69362 C 1.99255 57.79408 1.10046 58.68617 0 58.68617 C -1.10046 58.68617 -1.99255 57.79408 -1.99255 56.69362 C -1.99255 55.59314 -1.10046 54.70107 0 54.70107 C 1.10046 54.70107 1.99255 55.59314 1.99255 56.69362 Z M 0 56.69362 "/>
<path transform="matrix(1,0,0,-1,20.109,68.514)" stroke-width=".3985" stroke-linecap="butt" stroke-miterlimit="10" stroke-linejoin="miter" fill="none" stroke="#000000" d="M 1.99255 56.69362 C 1.99255 57.79408 1.10046 58.68617 0 58.68617 C -1.10046 58.68617 -1.99255 57.79408 -1.99255 56.69362 C -1.99255 55.59314 -1.10046 54.70107 0 54.70107 C 1.10046 54.70107 1.99255 55.59314 1.99255 56.69362 Z M 0 56.69362 "/>
<path transform="matrix(1,0,0,-1,20.109,68.514)" d="M 58.68617 56.69362 C 58.68617 57.79408 57.79408 58.68617 56.69362 58.68617 C 55.59314 58.68617 54.70107 57.79408 54.70107 56.69362 C 54.70107 55.59314 55.59314 54.70107 56.69362 54.70107 C 57.79408 54.70107 58.68617 55.59314 58.68617 56.69362 Z M 56.69362 56.69362 "/>
<path transform="matrix(1,0,0,-1,20.109,68.514)" stroke-width=".3985" stroke-linecap="butt" stroke-miterlimit="10" stroke-linejoin="miter" fill="none" stroke="#000000" d="M 58.68617 56.69362 C 58.68617 57.79408 57.79408 58.68617 56.69362 58.68617 C 55.59314 58.68617 54.70107 57.79408 54.70107 56.69362 C 54.70107 55.59314 55.59314 54.70107 56.69362 54.70107 C 57.79408 54.70107 58.68617 55.59314 58.68617 56.69362 Z M 56.69362 56.69362 "/>
<path transform="matrix(1,0,0,-1,20.109,68.514)" stroke-width=".3985" stroke-linecap="butt" stroke-miterlimit="10" stroke-linejoin="miter" fill="none" stroke="#000000" d="M 0 0 L 0 0 "/>
<text xml:space="preserve" transform="matrix(1 0 -0 1 -.0000009536743 80.336)" font-size="4.9813" font-family="CMR5"><tspan y="-4.566" x="12.152">(</tspan></text>
<text xml:space="preserve" transform="matrix(1 0 -0 1 -.0000009536743 80.336)" font-size="4.9813" font-family="CMMI5" font-style="italic"><tspan y="-4.566" x="14.85 18.705527 22.20738">a,b</tspan></text>
<text xml:space="preserve" transform="matrix(1 0 -0 1 -.0000009536743 80.336)" font-size="4.9813" font-family="CMR5"><tspan y="-4.566" x="25.368">)</tspan></text>
<path transform="matrix(1,0,0,-1,20.109,68.514)" stroke-width=".3985" stroke-linecap="butt" stroke-miterlimit="10" stroke-linejoin="miter" fill="none" stroke="#000000" d="M 56.69362 0 L 56.69362 0 "/>
<text xml:space="preserve" transform="matrix(1 0 -0 1 -.0000038146974 80.336)" font-size="4.9813" font-family="CMR5"><tspan y="-4.566" x="59.951">(</tspan></text>
<text xml:space="preserve" transform="matrix(1 0 -0 1 -.0000038146974 80.336)" font-size="4.9813" font-family="CMMI5" font-style="italic"><tspan y="-4.566" x="62.649003">a</tspan></text>
<text xml:space="preserve" transform="matrix(1 0 -0 1 -.0000038146974 80.336)" font-size="4.9813" font-family="CMR5"><tspan y="-4.566" x="68.136 74.88566">+&#x2206;</tspan></text>
<text xml:space="preserve" transform="matrix(1 0 -0 1 -.0000038146974 80.336)" font-size="4.9813" font-family="CMMI5" font-style="italic"><tspan y="-4.566" x="80.351 84.29619 87.79804">x,b</tspan></text>
<text xml:space="preserve" transform="matrix(1 0 -0 1 -.0000038146974 80.336)" font-size="4.9813" font-family="CMR5"><tspan y="-4.566" x="90.955">)</tspan></text>
<path transform="matrix(1,0,0,-1,20.109,68.514)" stroke-width=".3985" stroke-linecap="butt" stroke-miterlimit="10" stroke-linejoin="miter" fill="none" stroke="#000000" d="M 0 56.69362 L 0 56.69362 "/>
<text xml:space="preserve" transform="matrix(1 0 -0 1 -.0000009536743 80.336)" font-size="4.9813" font-family="CMR5"><tspan y="-73.28" x="3.321">(</tspan></text>
<text xml:space="preserve" transform="matrix(1 0 -0 1 -.0000009536743 80.336)" font-size="4.9813" font-family="CMMI5" font-style="italic"><tspan y="-73.28" x="6.019 9.874527 13.376381">a,b</tspan></text>
<text xml:space="preserve" transform="matrix(1 0 -0 1 -.0000009536743 80.336)" font-size="4.9813" font-family="CMR5"><tspan y="-73.28" x="18.166 24.915663">+&#x2206;</tspan></text>
<text xml:space="preserve" transform="matrix(1 0 -0 1 -.0000009536743 80.336)" font-size="4.9813" font-family="CMMI5" font-style="italic"><tspan y="-73.28" x="30.382">y</tspan></text>
<text xml:space="preserve" transform="matrix(1 0 -0 1 -.0000009536743 80.336)" font-size="4.9813" font-family="CMR5"><tspan y="-73.28" x="34.199">)</tspan></text>
<path transform="matrix(1,0,0,-1,20.109,68.514)" stroke-width=".3985" stroke-linecap="butt" stroke-miterlimit="10" stroke-linejoin="miter" fill="none" stroke="#000000" d="M 56.69362 56.69362 L 56.69362 56.69362 "/>
<text xml:space="preserve" transform="matrix(1 0 -0 1 0 80.336)" font-size="4.9813" font-family="CMR5"><tspan y="-73.28" x="51.119">(</tspan></text>
<text xml:space="preserve" transform="matrix(1 0 -0 1 0 80.336)" font-size="4.9813" font-family="CMMI5" font-style="italic"><tspan y="-73.28" x="53.817">a</tspan></text>
<text xml:space="preserve" transform="matrix(1 0 -0 1 0 80.336)" font-size="4.9813" font-family="CMR5"><tspan y="-73.28" x="59.305 66.05466">+&#x2206;</tspan></text>
<text xml:space="preserve" transform="matrix(1 0 -0 1 0 80.336)" font-size="4.9813" font-family="CMMI5" font-style="italic"><tspan y="-73.28" x="71.520008 75.465198 78.96705">x,b</tspan></text>
<text xml:space="preserve" transform="matrix(1 0 -0 1 0 80.336)" font-size="4.9813" font-family="CMR5"><tspan y="-73.28" x="83.753009 90.50266">+&#x2206;</tspan></text>
<text xml:space="preserve" transform="matrix(1 0 -0 1 0 80.336)" font-size="4.9813" font-family="CMMI5" font-style="italic"><tspan y="-73.28" x="95.96901">y</tspan></text>
<text xml:space="preserve" transform="matrix(1 0 -0 1 0 80.336)" font-size="4.9813" font-family="CMR5"><tspan y="-73.28" x="99.78701">)</tspan></text>
<g>
<path transform="matrix(1,0,0,-1,20.109,68.514)" d="M 0 0 L 0 56.69362 L 56.69362 56.69362 L 56.69362 0 L 0 0 " fill="#0000ff" fill-opacity=".2"/>
<path transform="matrix(1,0,0,-1,20.109,68.514)" stroke-width=".3985" stroke-linecap="butt" stroke-miterlimit="10" stroke-linejoin="miter" fill="none" stroke="#0000ff" stroke-opacity=".2" d="M 0 0 L 0 56.69362 L 56.69362 56.69362 L 56.69362 0 L 0 0 "/>
</g>
<path transform="matrix(1,0,0,-1,20.109,68.514)" stroke-width=".3985" stroke-linecap="butt" stroke-dasharray="2.98883,2.98883" stroke-miterlimit="10" stroke-linejoin="miter" fill="none" stroke="#ff0000" d="M 22.67752 0 L 22.67752 56.69362 "/>
<path transform="matrix(1,0,0,-1,20.109,68.514)" stroke-width=".3985" stroke-linecap="butt" stroke-miterlimit="10" stroke-linejoin="miter" fill="none" stroke="#ff0000" d="M 22.67752 0 L 22.67752 0 "/>
<text fill="#ff0000" xml:space="preserve" transform="matrix(1 0 -0 1 0 80.336)" font-size="4.9813" font-family="CMMI5" font-style="italic"><tspan y="-6.157" x="41.169">c</tspan></text>
<path transform="matrix(1,0,0,-1,20.109,68.514)" stroke-width=".3985" stroke-linecap="butt" stroke-dasharray="2.98883,2.98883" stroke-miterlimit="10" stroke-linejoin="miter" fill="none" stroke="#008080" d="M 0 31.18166 L 56.69362 31.18166 "/>
<path transform="matrix(1,0,0,-1,20.109,68.514)" stroke-width=".3985" stroke-linecap="butt" stroke-miterlimit="10" stroke-linejoin="miter" fill="none" stroke="#008080" d="M 0 31.18166 L 0 31.18166 "/>
<text fill="#008080" xml:space="preserve" transform="matrix(1 0 -0 1 -.0000009536743 80.336)" font-size="4.9813" font-family="CMMI5" font-style="italic"><tspan y="-41.273" x="12.905">d</tspan></text>
<path transform="matrix(1,0,0,-1,20.109,68.514)" d="M 23.6738 31.18166 C 23.6738 31.73189 23.22775 32.17793 22.67752 32.17793 C 22.12727 32.17793 21.68124 31.73189 21.68124 31.18166 C 21.68124 30.63142 22.12727 30.18538 22.67752 30.18538 C 23.22775 30.18538 23.6738 30.63142 23.6738 31.18166 Z M 22.67752 31.18166 "/>
<path transform="matrix(1,0,0,-1,20.109,68.514)" stroke-width=".3985" stroke-linecap="butt" stroke-miterlimit="10" stroke-linejoin="miter" fill="none" stroke="#000000" d="M 23.6738 31.18166 C 23.6738 31.73189 23.22775 32.17793 22.67752 32.17793 C 22.12727 32.17793 21.68124 31.73189 21.68124 31.18166 C 21.68124 30.63142 22.12727 30.18538 22.67752 30.18538 C 23.22775 30.18538 23.6738 30.63142 23.6738 31.18166 Z M 22.67752 31.18166 "/>
<path transform="matrix(1,0,0,-1,20.109,68.514)" stroke-width=".3985" stroke-linecap="butt" stroke-miterlimit="10" stroke-linejoin="miter" fill="none" stroke="#000000" d="M 22.67752 31.18166 L 22.67752 31.18166 "/>
<text xml:space="preserve" transform="matrix(1 0 -0 1 0 80.336)" font-size="4.9813" font-family="CMR5"><tspan y="-47.768" x="46.306">(</tspan></text>
<text xml:space="preserve" transform="matrix(1 0 -0 1 0 80.336)" font-size="4.9813" font-family="CMMI5" font-style="italic"><tspan y="-47.768" x="49.003999 52.236864 55.738718">c,d</tspan></text>
<text xml:space="preserve" transform="matrix(1 0 -0 1 0 80.336)" font-size="4.9813" font-family="CMR5"><tspan y="-47.768" x="59.428998">)</tspan></text>
</g>
</svg>
