<?xml version="1.0" encoding="UTF-8" standalone="no"?>
<!DOCTYPE svg PUBLIC "-//W3C//DTD SVG 1.1//EN" "http://www.w3.org/Graphics/SVG/1.1/DTD/svg11.dtd">
<svg xmlns="http://www.w3.org/2000/svg" xmlns:xlink="http://www.w3.org/1999/xlink" version="1.1" width="198.624pt" height="198.624pt" viewBox="0 0 198.624 198.624">
<g enable-background="new">
<path transform="matrix(1,0,0,-1,99.312,99.312)" stroke-width=".19925" stroke-linecap="butt" stroke-miterlimit="10" stroke-linejoin="miter" fill="none" stroke="#cbcbcb" d="M -99.21382 -85.04042 L 99.21382 -85.04042 M -99.21382 -56.69362 L 99.21382 -56.69362 M -99.21382 -28.3468 L 99.21382 -28.3468 M -99.21382 0 L 99.21382 0 M -99.21382 28.3468 L 99.21382 28.3468 M -99.21382 56.69362 L 99.21382 56.69362 M -99.21382 85.04042 L 99.21382 85.04042 M -85.04042 -99.21382 L -85.04042 99.21382 M -56.69362 -99.21382 L -56.69362 99.21382 M -28.3468 -99.21382 L -28.3468 99.21382 M 0 -99.21382 L 0 99.21382 M 28.3468 -99.21382 L 28.3468 99.21382 M 56.69362 -99.21382 L 56.69362 99.21382 M 85.04042 -99.21382 L 85.04042 99.21382 M 99.21382 99.21382 "/>
<g>
<path transform="matrix(1,0,0,-1,99.312,99.312)" d="M -56.69362 -56.69362 L -56.69362 56.69362 L 56.69362 56.69362 L 56.69362 -56.69362 Z M 56.69362 56.69362 " fill="#0000ff" fill-opacity=".5"/>
<path transform="matrix(1,0,0,-1,99.312,99.312)" stroke-width=".3985" stroke-linecap="butt" stroke-miterlimit="10" stroke-linejoin="miter" fill="none" stroke="#0000ff" stroke-opacity=".5" d="M -56.69362 -56.69362 L -56.69362 56.69362 L 56.69362 56.69362 L 56.69362 -56.69362 Z M 56.69362 56.69362 "/>
</g>
<path transform="matrix(1,0,0,-1,99.312,99.312)" stroke-width=".3985" stroke-linecap="butt" stroke-miterlimit="10" stroke-linejoin="miter" fill="none" stroke="#000000" d="M -56.69362 -56.69362 L 56.69362 -56.69362 L 56.69362 56.69362 L -56.69362 56.69362 L -56.69362 -56.69362 "/>
<path transform="matrix(1,0,0,-1,99.312,99.312)" d="M 58.68617 56.69362 C 58.68617 57.79408 57.79408 58.68617 56.69362 58.68617 C 55.59314 58.68617 54.70107 57.79408 54.70107 56.69362 C 54.70107 55.59314 55.59314 54.70107 56.69362 54.70107 C 57.79408 54.70107 58.68617 55.59314 58.68617 56.69362 Z M 56.69362 56.69362 "/>
<path transform="matrix(1,0,0,-1,99.312,99.312)" stroke-width=".3985" stroke-linecap="butt" stroke-miterlimit="10" stroke-linejoin="miter" fill="none" stroke="#000000" d="M 58.68617 56.69362 C 58.68617 57.79408 57.79408 58.68617 56.69362 58.68617 C 55.59314 58.68617 54.70107 57.79408 54.70107 56.69362 C 54.70107 55.59314 55.59314 54.70107 56.69362 54.70107 C 57.79408 54.70107 58.68617 55.59314 58.68617 56.69362 Z M 56.69362 56.69362 "/>
<text xml:space="preserve" transform="matrix(1 0 -0 1 0 198.624)" font-size="4.9813" font-family="CMR5"><tspan y="-160.77" x="159.525 162.22486">(2</tspan></text>
<text xml:space="preserve" transform="matrix(1 0 -0 1 0 198.624)" font-size="4.9813" font-family="CMMI5" font-style="italic"><tspan y="-160.77" x="165.61299">,</tspan></text>
<text xml:space="preserve" transform="matrix(1 0 -0 1 0 198.624)" font-size="4.9813" font-family="CMR5"><tspan y="-160.77" x="169.11899 172.51126">2)</tspan></text>
<path transform="matrix(1,0,0,-1,99.312,99.312)" d="M 58.68617 0 C 58.68617 1.10046 57.79408 1.99255 56.69362 1.99255 C 55.59314 1.99255 54.70107 1.10046 54.70107 0 C 54.70107 -1.10046 55.59314 -1.99255 56.69362 -1.99255 C 57.79408 -1.99255 58.68617 -1.10046 58.68617 0 Z M 56.69362 0 "/>
<path transform="matrix(1,0,0,-1,99.312,99.312)" stroke-width=".3985" stroke-linecap="butt" stroke-miterlimit="10" stroke-linejoin="miter" fill="none" stroke="#000000" d="M 58.68617 0 C 58.68617 1.10046 57.79408 1.99255 56.69362 1.99255 C 55.59314 1.99255 54.70107 1.10046 54.70107 0 C 54.70107 -1.10046 55.59314 -1.99255 56.69362 -1.99255 C 57.79408 -1.99255 58.68617 -1.10046 58.68617 0 Z M 56.69362 0 "/>
<text xml:space="preserve" transform="matrix(1 0 -0 1 0 198.624)" font-size="4.9813" font-family="CMR5"><tspan y="-98.067" x="159.525 162.22486">(0</tspan></text>
<text xml:space="preserve" transform="matrix(1 0 -0 1 0 198.624)" font-size="4.9813" font-family="CMMI5" font-style="italic"><tspan y="-98.067" x="165.61299">,</tspan></text>
<text xml:space="preserve" transform="matrix(1 0 -0 1 0 198.624)" font-size="4.9813" font-family="CMR5"><tspan y="-98.067" x="169.11899 172.51126">2)</tspan></text>
<path transform="matrix(1,0,0,-1,99.312,99.312)" d="M 58.68617 -56.69362 C 58.68617 -55.59314 57.79408 -54.70107 56.69362 -54.70107 C 55.59314 -54.70107 54.70107 -55.59314 54.70107 -56.69362 C 54.70107 -57.79408 55.59314 -58.68617 56.69362 -58.68617 C 57.79408 -58.68617 58.68617 -57.79408 58.68617 -56.69362 Z M 56.69362 -56.69362 "/>
<path transform="matrix(1,0,0,-1,99.312,99.312)" stroke-width=".3985" stroke-linecap="butt" stroke-miterlimit="10" stroke-linejoin="miter" fill="none" stroke="#000000" d="M 58.68617 -56.69362 C 58.68617 -55.59314 57.79408 -54.70107 56.69362 -54.70107 C 55.59314 -54.70107 54.70107 -55.59314 54.70107 -56.69362 C 54.70107 -57.79408 55.59314 -58.68617 56.69362 -58.68617 C 57.79408 -58.68617 58.68617 -57.79408 58.68617 -56.69362 Z M 56.69362 -56.69362 "/>
<text xml:space="preserve" transform="matrix(1 0 -0 1 0 198.624)" font-size="4.9813" font-family="CMR5"><tspan y="-35.364" x="159.525 162.22486">(2</tspan></text>
<text xml:space="preserve" transform="matrix(1 0 -0 1 0 198.624)" font-size="4.9813" font-family="CMMI5" font-style="italic"><tspan y="-35.364" x="165.61299">,</tspan></text>
<text xml:space="preserve" transform="matrix(1 0 -0 1 0 198.624)" font-size="4.9813" font-family="CMR5"><tspan y="-35.364" x="169.11899 172.51126">2)</tspan></text>
<path transform="matrix(1,0,0,-1,99.312,99.312)" d="M 1.99255 -56.69362 C 1.99255 -55.59314 1.10046 -54.70107 0 -54.70107 C -1.10046 -54.70107 -1.99255 -55.59314 -1.99255 -56.69362 C -1.99255 -57.79408 -1.10046 -58.68617 0 -58.68617 C 1.10046 -58.68617 1.99255 -57.79408 1.99255 -56.69362 Z M 0 -56.69362 "/>
<path transform="matrix(1,0,0,-1,99.312,99.312)" stroke-width=".3985" stroke-linecap="butt" stroke-miterlimit="10" stroke-linejoin="miter" fill="none" stroke="#000000" d="M 1.99255 -56.69362 C 1.99255 -55.59314 1.10046 -54.70107 0 -54.70107 C -1.10046 -54.70107 -1.99255 -55.59314 -1.99255 -56.69362 C -1.99255 -57.79408 -1.10046 -58.68617 0 -58.68617 C 1.10046 -58.68617 1.99255 -57.79408 1.99255 -56.69362 Z M 0 -56.69362 "/>
<text xml:space="preserve" transform="matrix(1 0 -0 1 -.0000076293949 198.624)" font-size="4.9813" font-family="CMR5"><tspan y="-35.364" x="88.773 91.47287">(0</tspan></text>
<text xml:space="preserve" transform="matrix(1 0 -0 1 -.0000076293949 198.624)" font-size="4.9813" font-family="CMMI5" font-style="italic"><tspan y="-35.364" x="94.861">,</tspan></text>
<text xml:space="preserve" transform="matrix(1 0 -0 1 -.0000076293949 198.624)" font-size="4.9813" font-family="CMSY5" font-style="italic"><tspan y="-35.364" x="98.367">&#x2212;</tspan></text>
<text xml:space="preserve" transform="matrix(1 0 -0 1 -.0000076293949 198.624)" font-size="4.9813" font-family="CMR5"><tspan y="-35.364" x="103.763 107.155269">2)</tspan></text>
<path transform="matrix(1,0,0,-1,99.312,99.312)" d="M -54.70107 -56.69362 C -54.70107 -55.59314 -55.59314 -54.70107 -56.69362 -54.70107 C -57.79408 -54.70107 -58.68617 -55.59314 -58.68617 -56.69362 C -58.68617 -57.79408 -57.79408 -58.68617 -56.69362 -58.68617 C -55.59314 -58.68617 -54.70107 -57.79408 -54.70107 -56.69362 Z M -56.69362 -56.69362 "/>
<path transform="matrix(1,0,0,-1,99.312,99.312)" stroke-width=".3985" stroke-linecap="butt" stroke-miterlimit="10" stroke-linejoin="miter" fill="none" stroke="#000000" d="M -54.70107 -56.69362 C -54.70107 -55.59314 -55.59314 -54.70107 -56.69362 -54.70107 C -57.79408 -54.70107 -58.68617 -55.59314 -58.68617 -56.69362 C -58.68617 -57.79408 -57.79408 -58.68617 -56.69362 -58.68617 C -55.59314 -58.68617 -54.70107 -57.79408 -54.70107 -56.69362 Z M -56.69362 -56.69362 "/>
<text xml:space="preserve" transform="matrix(1 0 -0 1 -.00000667572 198.624)" font-size="4.9813" font-family="CMR5"><tspan y="-35.364" x="12.624">(</tspan></text>
<text xml:space="preserve" transform="matrix(1 0 -0 1 -.00000667572 198.624)" font-size="4.9813" font-family="CMSY5" font-style="italic"><tspan y="-35.364" x="15.323">&#x2212;</tspan></text>
<text xml:space="preserve" transform="matrix(1 0 -0 1 -.00000667572 198.624)" font-size="4.9813" font-family="CMR5"><tspan y="-35.364" x="20.719">2</tspan></text>
<text xml:space="preserve" transform="matrix(1 0 -0 1 -.00000667572 198.624)" font-size="4.9813" font-family="CMMI5" font-style="italic"><tspan y="-35.364" x="24.109">,</tspan></text>
<text xml:space="preserve" transform="matrix(1 0 -0 1 -.00000667572 198.624)" font-size="4.9813" font-family="CMSY5" font-style="italic"><tspan y="-35.364" x="27.615">&#x2212;</tspan></text>
<text xml:space="preserve" transform="matrix(1 0 -0 1 -.00000667572 198.624)" font-size="4.9813" font-family="CMR5"><tspan y="-35.364" x="33.011 36.403268">2)</tspan></text>
<path transform="matrix(1,0,0,-1,99.312,99.312)" d="M -54.70107 0 C -54.70107 1.10046 -55.59314 1.99255 -56.69362 1.99255 C -57.79408 1.99255 -58.68617 1.10046 -58.68617 0 C -58.68617 -1.10046 -57.79408 -1.99255 -56.69362 -1.99255 C -55.59314 -1.99255 -54.70107 -1.10046 -54.70107 0 Z M -56.69362 0 "/>
<path transform="matrix(1,0,0,-1,99.312,99.312)" stroke-width=".3985" stroke-linecap="butt" stroke-miterlimit="10" stroke-linejoin="miter" fill="none" stroke="#000000" d="M -54.70107 0 C -54.70107 1.10046 -55.59314 1.99255 -56.69362 1.99255 C -57.79408 1.99255 -58.68617 1.10046 -58.68617 0 C -58.68617 -1.10046 -57.79408 -1.99255 -56.69362 -1.99255 C -55.59314 -1.99255 -54.70107 -1.10046 -54.70107 0 Z M -56.69362 0 "/>
<text xml:space="preserve" transform="matrix(1 0 -0 1 -.0000038146974 198.624)" font-size="4.9813" font-family="CMR5"><tspan y="-98.067" x="18.021">(</tspan></text>
<text xml:space="preserve" transform="matrix(1 0 -0 1 -.0000038146974 198.624)" font-size="4.9813" font-family="CMSY5" font-style="italic"><tspan y="-98.067" x="20.719">&#x2212;</tspan></text>
<text xml:space="preserve" transform="matrix(1 0 -0 1 -.0000038146974 198.624)" font-size="4.9813" font-family="CMR5"><tspan y="-98.067" x="26.116">2</tspan></text>
<text xml:space="preserve" transform="matrix(1 0 -0 1 -.0000038146974 198.624)" font-size="4.9813" font-family="CMMI5" font-style="italic"><tspan y="-98.067" x="29.505999">,</tspan></text>
<text xml:space="preserve" transform="matrix(1 0 -0 1 -.0000038146974 198.624)" font-size="4.9813" font-family="CMR5"><tspan y="-98.067" x="33.010999 36.403264">0)</tspan></text>
<path transform="matrix(1,0,0,-1,99.312,99.312)" d="M -54.70107 56.69362 C -54.70107 57.79408 -55.59314 58.68617 -56.69362 58.68617 C -57.79408 58.68617 -58.68617 57.79408 -58.68617 56.69362 C -58.68617 55.59314 -57.79408 54.70107 -56.69362 54.70107 C -55.59314 54.70107 -54.70107 55.59314 -54.70107 56.69362 Z M -56.69362 56.69362 "/>
<path transform="matrix(1,0,0,-1,99.312,99.312)" stroke-width=".3985" stroke-linecap="butt" stroke-miterlimit="10" stroke-linejoin="miter" fill="none" stroke="#000000" d="M -54.70107 56.69362 C -54.70107 57.79408 -55.59314 58.68617 -56.69362 58.68617 C -57.79408 58.68617 -58.68617 57.79408 -58.68617 56.69362 C -58.68617 55.59314 -57.79408 54.70107 -56.69362 54.70107 C -55.59314 54.70107 -54.70107 55.59314 -54.70107 56.69362 Z M -56.69362 56.69362 "/>
<text xml:space="preserve" transform="matrix(1 0 -0 1 -.0000038146974 198.624)" font-size="4.9813" font-family="CMR5"><tspan y="-160.77" x="18.021">(</tspan></text>
<text xml:space="preserve" transform="matrix(1 0 -0 1 -.0000038146974 198.624)" font-size="4.9813" font-family="CMSY5" font-style="italic"><tspan y="-160.77" x="20.719">&#x2212;</tspan></text>
<text xml:space="preserve" transform="matrix(1 0 -0 1 -.0000038146974 198.624)" font-size="4.9813" font-family="CMR5"><tspan y="-160.77" x="26.116">2</tspan></text>
<text xml:space="preserve" transform="matrix(1 0 -0 1 -.0000038146974 198.624)" font-size="4.9813" font-family="CMMI5" font-style="italic"><tspan y="-160.77" x="29.505999">,</tspan></text>
<text xml:space="preserve" transform="matrix(1 0 -0 1 -.0000038146974 198.624)" font-size="4.9813" font-family="CMR5"><tspan y="-160.77" x="33.010999 36.403264">2)</tspan></text>
<path transform="matrix(1,0,0,-1,99.312,99.312)" d="M 1.99255 56.69362 C 1.99255 57.79408 1.10046 58.68617 0 58.68617 C -1.10046 58.68617 -1.99255 57.79408 -1.99255 56.69362 C -1.99255 55.59314 -1.10046 54.70107 0 54.70107 C 1.10046 54.70107 1.99255 55.59314 1.99255 56.69362 Z M 0 56.69362 "/>
<path transform="matrix(1,0,0,-1,99.312,99.312)" stroke-width=".3985" stroke-linecap="butt" stroke-miterlimit="10" stroke-linejoin="miter" fill="none" stroke="#000000" d="M 1.99255 56.69362 C 1.99255 57.79408 1.10046 58.68617 0 58.68617 C -1.10046 58.68617 -1.99255 57.79408 -1.99255 56.69362 C -1.99255 55.59314 -1.10046 54.70107 0 54.70107 C 1.10046 54.70107 1.99255 55.59314 1.99255 56.69362 Z M 0 56.69362 "/>
<text xml:space="preserve" transform="matrix(1 0 -0 1 -.0000076293949 198.624)" font-size="4.9813" font-family="CMR5"><tspan y="-160.77" x="91.471 94.17087">(0</tspan></text>
<text xml:space="preserve" transform="matrix(1 0 -0 1 -.0000076293949 198.624)" font-size="4.9813" font-family="CMMI5" font-style="italic"><tspan y="-160.77" x="97.559">,</tspan></text>
<text xml:space="preserve" transform="matrix(1 0 -0 1 -.0000076293949 198.624)" font-size="4.9813" font-family="CMR5"><tspan y="-160.77" x="101.064998 104.45726">2)</tspan></text>
<path transform="matrix(1,0,0,-1,99.312,99.312)" d="M 1.99255 0 C 1.99255 1.10046 1.10046 1.99255 0 1.99255 C -1.10046 1.99255 -1.99255 1.10046 -1.99255 0 C -1.99255 -1.10046 -1.10046 -1.99255 0 -1.99255 C 1.10046 -1.99255 1.99255 -1.10046 1.99255 0 Z M 0 0 "/>
<path transform="matrix(1,0,0,-1,99.312,99.312)" stroke-width=".3985" stroke-linecap="butt" stroke-miterlimit="10" stroke-linejoin="miter" fill="none" stroke="#000000" d="M 1.99255 0 C 1.99255 1.10046 1.10046 1.99255 0 1.99255 C -1.10046 1.99255 -1.99255 1.10046 -1.99255 0 C -1.99255 -1.10046 -1.10046 -1.99255 0 -1.99255 C 1.10046 -1.99255 1.99255 -1.10046 1.99255 0 Z M 0 0 "/>
<text xml:space="preserve" transform="matrix(1 0 -0 1 -.0000076293949 198.624)" font-size="4.9813" font-family="CMR5"><tspan y="-104.077" x="102.832 105.53187">(0</tspan></text>
<text xml:space="preserve" transform="matrix(1 0 -0 1 -.0000076293949 198.624)" font-size="4.9813" font-family="CMMI5" font-style="italic"><tspan y="-104.077" x="108.92">,</tspan></text>
<text xml:space="preserve" transform="matrix(1 0 -0 1 -.0000076293949 198.624)" font-size="4.9813" font-family="CMR5"><tspan y="-104.077" x="112.425998 115.81826">0)</tspan></text>
</g>
</svg>
