<?xml version="1.0" encoding="UTF-8" standalone="no"?>
<svg
   xmlns:dc="http://purl.org/dc/elements/1.1/"
   xmlns:cc="http://creativecommons.org/ns#"
   xmlns:rdf="http://www.w3.org/1999/02/22-rdf-syntax-ns#"
   xmlns:svg="http://www.w3.org/2000/svg"
   xmlns="http://www.w3.org/2000/svg"
   viewBox="0 0 228.84666 227.03732"
   height="227.03732"
   width="228.84666"
   xml:space="preserve"
   id="svg2"
   version="1.1"><metadata
     id="metadata8"><rdf:RDF><cc:Work
         rdf:about=""><dc:format>image/svg+xml</dc:format><dc:type
           rdf:resource="http://purl.org/dc/dcmitype/StillImage" /></cc:Work></rdf:RDF></metadata><defs
     id="defs6" /><g
     transform="matrix(1.3333333,0,0,-1.3333333,0,227.03733)"
     id="g10"><g
       transform="translate(85.836,28.446)"
       id="g12"><g
         id="g14"><g
           id="g16"><g
             id="g18"><path
               id="path20"
               style="fill:none;stroke:#bfbfbf;stroke-width:0.19925;stroke-linecap:butt;stroke-linejoin:miter;stroke-miterlimit:10;stroke-dasharray:none;stroke-opacity:1"
               d="M -85.04042,-28.3468 H 85.04042 M -85.04042,0 H 85.04042 M -85.04042,28.3468 H 85.04042 M -85.04042,56.69362 H 85.04042 M -85.04042,85.04042 H 85.04042 M -85.04042,113.38724 H 85.04042 M -85.04042,141.72409 H 85.04042 M -85.04042,-28.3468 V 141.73404 M -56.69362,-28.3468 V 141.73404 M -28.3468,-28.3468 V 141.73404 M 0,-28.3468 V 141.73404 M 28.3468,-28.3468 V 141.73404 M 56.69362,-28.3468 V 141.73404 M 85.03047,-28.3468 v 170.08084" /></g><g
             id="g22"><path
               id="path24"
               style="fill:none;stroke:#0000ff;stroke-width:1.59404004;stroke-linecap:butt;stroke-linejoin:miter;stroke-miterlimit:10;stroke-dasharray:none;stroke-opacity:1"
               d="m -85.04042,127.56062 1.71761,-5.10177 1.71761,-4.99582 1.71761,-4.8933 1.71761,-4.78819 1.71762,-4.68483 1.7176,-4.5797 1.71759,-4.47721 1.71762,-4.37166 1.71761,-4.26873 1.71761,-4.1636 1.71762,-4.06067 1.7176,-3.95512 1.71759,-3.85262 1.71762,-3.74708 1.71761,-3.64457 1.7176,-3.53901 1.71763,-3.4361 1.7176,-3.33096 1.71761,-3.22803 1.7176,-3.12294 1.71761,-3.01953 1.7176,-2.91487 1.71762,-2.81151 1.71761,-2.70682 1.71761,-2.60345 1.7176,-2.49834 1.7176,-2.3954 1.71761,-2.29029 1.71762,-2.1869 1.71761,-2.08224 1.7176,-1.97886 1.71763,-1.87419 1.71759,-1.77081 1.7176,-1.66614 1.71762,-1.56233 1.71761,-1.45808 1.71761,-1.35427 1.71761,-1.25004 1.71759,-1.14578 1.71761,-1.042 1.71762,-0.93774 1.71761,-0.8335 1.7176,-0.73013 1.71762,-0.62544 1.71761,-0.52165 1.71759,-0.4174 1.71762,-0.31315 1.71761,-0.20935 1.7176,-0.1051 1.71759,-0.0013 1.71761,0.10294 1.71759,0.2072 1.71762,0.31097 1.7176,0.41525 1.71761,0.51904 1.71762,0.6233 1.71761,0.72752 1.71759,0.83133 1.71762,0.93559 1.7176,1.03981 1.71761,1.14363 1.71762,1.24745 1.7176,1.35212 1.71762,1.45591 1.7176,1.55974 1.7176,1.6644 1.71762,1.76778 1.71761,1.87246 1.7176,1.97628 1.71762,2.08006 1.71759,2.18475 1.71761,2.28813 1.71762,2.3928 1.71761,2.49659 1.7176,2.60088 1.71762,2.70465 1.71761,2.8089 1.71759,2.91315 1.71762,3.01695 1.71761,3.12077 1.7176,3.22544 1.71762,3.32922 1.71761,3.43306 1.71759,3.53773 1.71762,3.6411 1.7176,3.74579 1.71761,3.84958 1.71762,3.95384 1.7176,4.05763 1.71761,4.16188 1.71761,4.26569 1.7176,4.36993 1.71761,4.47417 1.71762,4.57843 1.7176,4.68222 1.71761,4.78603 1.71761,4.89027 1.7176,4.99452 1.71761,5.09876" /></g><g
             id="g26"><path
               id="path28"
               style="fill:none;stroke:#0000ff;stroke-width:0.79701;stroke-linecap:butt;stroke-linejoin:miter;stroke-miterlimit:10;stroke-dasharray:none;stroke-opacity:1"
               d="M -56.69362,56.69362 -68.6641,50.70815" /><g
               transform="matrix(-0.89438,-0.4472,0.4472,-0.89438,-69.0205,50.52994)"
               id="g30"><g
                 id="g32"><path
                   id="path34"
                   style="fill:none;stroke:#0000ff;stroke-width:0.79701;stroke-linecap:round;stroke-linejoin:round;stroke-miterlimit:10;stroke-dasharray:none;stroke-opacity:1"
                   d="M -2.55046,3.11095 C -2.0845,1.24435 -1.04614,0.36295 0,0 -1.04614,-0.36295 -2.0845,-1.24435 -2.55046,-3.11095" /></g></g></g><g
             id="g36"><path
               id="path38"
               style="fill:none;stroke:#ff0000;stroke-width:0.79701;stroke-linecap:butt;stroke-linejoin:miter;stroke-miterlimit:10;stroke-dasharray:none;stroke-opacity:1"
               d="M -56.69362,56.69362 V 29.14381" /><g
               transform="rotate(-90,-13.97416,42.71946)"
               id="g40"><g
                 id="g42"><path
                   id="path44"
                   style="fill:none;stroke:#ff0000;stroke-width:0.79701;stroke-linecap:round;stroke-linejoin:round;stroke-miterlimit:10;stroke-dasharray:none;stroke-opacity:1"
                   d="M -2.55046,3.11095 C -2.0845,1.24435 -1.04614,0.36295 0,0 -1.04614,-0.36295 -2.0845,-1.24435 -2.55046,-3.11095" /></g></g></g><path
             id="path46"
             style="fill:#000000;fill-opacity:1;fill-rule:nonzero;stroke:#000000;stroke-width:0.3985;stroke-linecap:butt;stroke-linejoin:miter;stroke-miterlimit:10;stroke-dasharray:none;stroke-opacity:1"
             d="m -54.70107,56.69362 c 0,1.10046 -0.89207,1.99255 -1.99255,1.99255 -1.10046,0 -1.99255,-0.89209 -1.99255,-1.99255 0,-1.10048 0.89209,-1.99255 1.99255,-1.99255 1.10048,0 1.99255,0.89207 1.99255,1.99255 z" /><g
             id="g48"><path
               id="path50"
               style="fill:none;stroke:#0000ff;stroke-width:0.79701;stroke-linecap:butt;stroke-linejoin:miter;stroke-miterlimit:10;stroke-dasharray:none;stroke-opacity:1"
               d="M -28.3468,14.17339 -37.79951,4.72067" /><g
               transform="matrix(-0.7071,-0.7071,0.7071,-0.7071,-38.08128,4.4389)"
               id="g52"><g
                 id="g54"><path
                   id="path56"
                   style="fill:none;stroke:#0000ff;stroke-width:0.79701;stroke-linecap:round;stroke-linejoin:round;stroke-miterlimit:10;stroke-dasharray:none;stroke-opacity:1"
                   d="M -2.55046,3.11095 C -2.0845,1.24435 -1.04614,0.36295 0,0 -1.04614,-0.36295 -2.0845,-1.24435 -2.55046,-3.11095" /></g></g></g><g
             id="g58"><path
               id="path60"
               style="fill:none;stroke:#ff0000;stroke-width:0.79701;stroke-linecap:butt;stroke-linejoin:miter;stroke-miterlimit:10;stroke-dasharray:none;stroke-opacity:1"
               d="M -28.3468,14.17339 H -55.8966" /><g
               transform="rotate(180,-28.14755,7.086695)"
               id="g62"><g
                 id="g64"><path
                   id="path66"
                   style="fill:none;stroke:#ff0000;stroke-width:0.79701;stroke-linecap:round;stroke-linejoin:round;stroke-miterlimit:10;stroke-dasharray:none;stroke-opacity:1"
                   d="M -2.55046,3.11095 C -2.0845,1.24435 -1.04614,0.36295 0,0 -1.04614,-0.36295 -2.0845,-1.24435 -2.55046,-3.11095" /></g></g></g><path
             id="path68"
             style="fill:#000000;fill-opacity:1;fill-rule:nonzero;stroke:#000000;stroke-width:0.3985;stroke-linecap:butt;stroke-linejoin:miter;stroke-miterlimit:10;stroke-dasharray:none;stroke-opacity:1"
             d="m -26.35425,14.17339 c 0,1.10047 -0.89209,1.99255 -1.99255,1.99255 -1.10048,0 -1.99256,-0.89208 -1.99256,-1.99255 0,-1.10047 0.89208,-1.99256 1.99256,-1.99256 1.10046,0 1.99255,0.89209 1.99255,1.99256 z" /><g
             id="g70"><path
               id="path72"
               style="fill:none;stroke:#0000ff;stroke-width:0.79701;stroke-linecap:butt;stroke-linejoin:miter;stroke-miterlimit:10;stroke-dasharray:none;stroke-opacity:1"
               d="M 0,0 V -13.37637" /><g
               transform="rotate(-90,-6.887445,-6.887445)"
               id="g74"><g
                 id="g76"><path
                   id="path78"
                   style="fill:none;stroke:#0000ff;stroke-width:0.79701;stroke-linecap:round;stroke-linejoin:round;stroke-miterlimit:10;stroke-dasharray:none;stroke-opacity:1"
                   d="M -2.55046,3.11095 C -2.0845,1.24435 -1.04614,0.36295 0,0 -1.04614,-0.36295 -2.0845,-1.24435 -2.55046,-3.11095" /></g></g></g><g
             id="g80"><path
               id="path82"
               style="fill:none;stroke:#ff0000;stroke-width:0.79701;stroke-linecap:butt;stroke-linejoin:miter;stroke-miterlimit:10;stroke-dasharray:none;stroke-opacity:1"
               d="M 0,0 5.31287,-10.62573" /><g
               transform="matrix(0.44717,-0.89436,0.89436,0.44717,5.49107,-10.98213)"
               id="g84"><g
                 id="g86"><path
                   id="path88"
                   style="fill:none;stroke:#ff0000;stroke-width:0.79701;stroke-linecap:round;stroke-linejoin:round;stroke-miterlimit:10;stroke-dasharray:none;stroke-opacity:1"
                   d="M -2.55046,3.11095 C -2.0845,1.24435 -1.04614,0.36295 0,0 -1.04614,-0.36295 -2.0845,-1.24435 -2.55046,-3.11095" /></g></g></g><path
             id="path90"
             style="fill:#000000;fill-opacity:1;fill-rule:nonzero;stroke:#000000;stroke-width:0.3985;stroke-linecap:butt;stroke-linejoin:miter;stroke-miterlimit:10;stroke-dasharray:none;stroke-opacity:1"
             d="M 1.99255,0 C 1.99255,1.10046 1.10046,1.99255 0,1.99255 -1.10046,1.99255 -1.99255,1.10046 -1.99255,0 c 0,-1.10046 0.89209,-1.99255 1.99255,-1.99255 1.10046,0 1.99255,0.89209 1.99255,1.99255 z" /><g
             id="g92"><path
               id="path94"
               style="fill:none;stroke:#0000ff;stroke-width:0.79701;stroke-linecap:butt;stroke-linejoin:miter;stroke-miterlimit:10;stroke-dasharray:none;stroke-opacity:1"
               d="M 28.3468,14.17339 37.79951,4.72067" /><g
               transform="matrix(0.7071,-0.7071,0.7071,0.7071,38.08128,4.4389)"
               id="g96"><g
                 id="g98"><path
                   id="path100"
                   style="fill:none;stroke:#0000ff;stroke-width:0.79701;stroke-linecap:round;stroke-linejoin:round;stroke-miterlimit:10;stroke-dasharray:none;stroke-opacity:1"
                   d="M -2.55046,3.11095 C -2.0845,1.24435 -1.04614,0.36295 0,0 -1.04614,-0.36295 -2.0845,-1.24435 -2.55046,-3.11095" /></g></g></g><g
             id="g102"><path
               id="path104"
               style="fill:none;stroke:#ff0000;stroke-width:0.79701;stroke-linecap:butt;stroke-linejoin:miter;stroke-miterlimit:10;stroke-dasharray:none;stroke-opacity:1"
               d="M 28.3468,14.17339 14.73695,0.56355" /><g
               transform="matrix(-0.7071,-0.7071,0.7071,-0.7071,14.45518,0.28178)"
               id="g106"><g
                 id="g108"><path
                   id="path110"
                   style="fill:none;stroke:#ff0000;stroke-width:0.79701;stroke-linecap:round;stroke-linejoin:round;stroke-miterlimit:10;stroke-dasharray:none;stroke-opacity:1"
                   d="M -2.55046,3.11095 C -2.0845,1.24435 -1.04614,0.36295 0,0 -1.04614,-0.36295 -2.0845,-1.24435 -2.55046,-3.11095" /></g></g></g><path
             id="path112"
             style="fill:#000000;fill-opacity:1;fill-rule:nonzero;stroke:#000000;stroke-width:0.3985;stroke-linecap:butt;stroke-linejoin:miter;stroke-miterlimit:10;stroke-dasharray:none;stroke-opacity:1"
             d="m 30.33936,14.17339 c 0,1.10047 -0.89208,1.99255 -1.99256,1.99255 -1.10046,0 -1.99255,-0.89208 -1.99255,-1.99255 0,-1.10047 0.89209,-1.99256 1.99255,-1.99256 1.10048,0 1.99256,0.89209 1.99256,1.99256 z" /><g
             id="g114"><path
               id="path116"
               style="fill:none;stroke:#0000ff;stroke-width:0.79701;stroke-linecap:butt;stroke-linejoin:miter;stroke-miterlimit:10;stroke-dasharray:none;stroke-opacity:1"
               d="M 56.69362,56.69362 68.6641,50.70815" /><g
               transform="matrix(0.89438,-0.4472,0.4472,0.89438,69.0205,50.52994)"
               id="g118"><g
                 id="g120"><path
                   id="path122"
                   style="fill:none;stroke:#0000ff;stroke-width:0.79701;stroke-linecap:round;stroke-linejoin:round;stroke-miterlimit:10;stroke-dasharray:none;stroke-opacity:1"
                   d="M -2.55046,3.11095 C -2.0845,1.24435 -1.04614,0.36295 0,0 -1.04614,-0.36295 -2.0845,-1.24435 -2.55046,-3.11095" /></g></g></g><g
             id="g124"><path
               id="path126"
               style="fill:none;stroke:#ff0000;stroke-width:0.79701;stroke-linecap:butt;stroke-linejoin:miter;stroke-miterlimit:10;stroke-dasharray:none;stroke-opacity:1"
               d="m 56.69362,56.69362 -5.513,27.56529" /><g
               transform="matrix(-0.1961,0.98055,-0.98055,-0.1961,51.10248,84.64967)"
               id="g128"><g
                 id="g130"><path
                   id="path132"
                   style="fill:none;stroke:#ff0000;stroke-width:0.79701;stroke-linecap:round;stroke-linejoin:round;stroke-miterlimit:10;stroke-dasharray:none;stroke-opacity:1"
                   d="M -2.55046,3.11095 C -2.0845,1.24435 -1.04614,0.36295 0,0 -1.04614,-0.36295 -2.0845,-1.24435 -2.55046,-3.11095" /></g></g></g><path
             id="path134"
             style="fill:#000000;fill-opacity:1;fill-rule:nonzero;stroke:#000000;stroke-width:0.3985;stroke-linecap:butt;stroke-linejoin:miter;stroke-miterlimit:10;stroke-dasharray:none;stroke-opacity:1"
             d="m 58.68617,56.69362 c 0,1.10046 -0.89209,1.99255 -1.99255,1.99255 -1.10048,0 -1.99255,-0.89209 -1.99255,-1.99255 0,-1.10048 0.89207,-1.99255 1.99255,-1.99255 1.10046,0 1.99255,0.89207 1.99255,1.99255 z" /></g></g></g></g></svg>