<?xml version="1.0" encoding="UTF-8" standalone="no"?>
<svg
   xmlns:dc="http://purl.org/dc/elements/1.1/"
   xmlns:cc="http://creativecommons.org/ns#"
   xmlns:rdf="http://www.w3.org/1999/02/22-rdf-syntax-ns#"
   xmlns:svg="http://www.w3.org/2000/svg"
   xmlns="http://www.w3.org/2000/svg"
   viewBox="0 0 112.60267 110.54533"
   height="110.54533"
   width="112.60267"
   xml:space="preserve"
   id="svg2"
   version="1.1"><metadata
     id="metadata8"><rdf:RDF><cc:Work
         rdf:about=""><dc:format>image/svg+xml</dc:format><dc:type
           rdf:resource="http://purl.org/dc/dcmitype/StillImage" /></cc:Work></rdf:RDF></metadata><defs
     id="defs6" /><g
     transform="matrix(1.3333333,0,0,-1.3333333,0,110.54533)"
     id="g10"><g
       transform="translate(13.742,13.029)"
       id="g12"><g
         id="g14"><g
           id="g16"><g
             id="g18"><path
               id="path20"
               style="fill:none;stroke:#bfbfbf;stroke-width:0.19925;stroke-linecap:butt;stroke-linejoin:miter;stroke-miterlimit:10;stroke-dasharray:none;stroke-opacity:1"
               d="M 0,0 H 56.69362 M 0,28.3468 H 56.69362 M 0,56.68365 H 56.69362 M 0,0 V 56.69362 M 28.3468,0 V 56.69362 M 56.68365,0 v 56.69362" /></g><g
             id="g22"><path
               id="path24"
               style="fill:none;stroke:#000000;stroke-width:1.19553006;stroke-linecap:butt;stroke-linejoin:miter;stroke-miterlimit:10;stroke-dasharray:none;stroke-opacity:1"
               d="M 0,0 H 58.57205" /><g
               transform="translate(58.57205)"
               id="g26"><g
                 id="g28"><path
                   id="path30"
                   style="fill:none;stroke:#000000;stroke-width:0.95639998;stroke-linecap:round;stroke-linejoin:round;stroke-miterlimit:10;stroke-dasharray:none;stroke-opacity:1"
                   d="M -1.91284,2.55046 C -1.75343,1.59402 0,0.15938 0.4782,0 0,-0.15938 -1.75343,-1.59402 -1.91284,-2.55046" /></g></g><g
               id="g32"><g
                 transform="translate(63.446,-6.063)"
                 id="g34"><g
                   id="g36"><g
                     transform="translate(-77.188,-6.966)"
                     id="g38"><text
                       id="text42"
                       style="font-variant:normal;font-weight:normal;font-size:4.98129988px;font-family:CMMI5;-inkscape-font-specification:CMMI5;writing-mode:lr-tb;fill:#000000;fill-opacity:1;fill-rule:nonzero;stroke:none"
                       transform="matrix(1,0,0,-1,77.188,6.966)"><tspan
                         id="tspan40"
                         y="0"
                         x="0">x</tspan></text>
<g
                       transform="translate(77.188,6.966)"
                       id="g44" /></g></g><g
                   transform="translate(-63.446,6.063)"
                   id="g46" /></g></g></g><g
             id="g48"><path
               id="path50"
               style="fill:none;stroke:#000000;stroke-width:1.19553006;stroke-linecap:butt;stroke-linejoin:miter;stroke-miterlimit:10;stroke-dasharray:none;stroke-opacity:1"
               d="M 0,0 V 58.57205" /><g
               transform="rotate(90,-29.286025,29.286025)"
               id="g52"><g
                 id="g54"><path
                   id="path56"
                   style="fill:none;stroke:#000000;stroke-width:0.95639998;stroke-linecap:round;stroke-linejoin:round;stroke-miterlimit:10;stroke-dasharray:none;stroke-opacity:1"
                   d="M -1.91284,2.55046 C -1.75343,1.59402 0,0.15938 0.4782,0 0,-0.15938 -1.75343,-1.59402 -1.91284,-2.55046" /></g></g><g
               id="g58"><g
                 transform="translate(-7.736,64.415)"
                 id="g60"><g
                   id="g62"><g
                     transform="translate(-6.006,-77.444)"
                     id="g64"><text
                       id="text68"
                       style="font-variant:normal;font-weight:normal;font-size:4.98129988px;font-family:CMMI5;-inkscape-font-specification:CMMI5;writing-mode:lr-tb;fill:#000000;fill-opacity:1;fill-rule:nonzero;stroke:none"
                       transform="matrix(1,0,0,-1,6.006,77.444)"><tspan
                         id="tspan66"
                         y="0"
                         x="0">y</tspan></text>
<g
                       transform="translate(6.006,77.444)"
                       id="g70" /></g></g><g
                   transform="translate(7.736,-64.415)"
                   id="g72" /></g></g></g><g
             id="g74"><path
               id="path76"
               style="fill:#0000ff;fill-opacity:0.3;fill-rule:nonzero;stroke:#0000ff;stroke-width:0.3985;stroke-linecap:butt;stroke-linejoin:miter;stroke-miterlimit:10;stroke-dasharray:none;stroke-opacity:1"
               d="m 0,0 v 0 l 0.28589,0.00258 0.28591,0.00865 0.2859,0.01471 0.28592,0.01988 0.2859,0.02598 0.2859,0.03199 0.28591,0.0372 0.28592,0.04324 0.2859,0.04932 0.2859,0.05451 0.28591,0.06054 0.28592,0.06662 0.2859,0.07179 0.28591,0.07787 0.2859,0.08392 0.28592,0.0891 0.2859,0.09514 0.28591,0.10123 0.28592,0.10641 0.2859,0.11246 0.2859,0.11851 0.28591,0.12371 0.28592,0.12976 0.2859,0.13581 0.2859,0.14101 0.28591,0.14706 0.28592,0.15313 0.2859,0.15831 0.2859,0.16436 0.28591,0.17041 0.28592,0.17562 0.2859,0.18165 0.28591,0.18772 0.2859,0.19291 0.28592,0.19898 0.2859,0.20501 0.28591,0.21023 0.28592,0.21627 0.2859,0.22231 0.28591,0.22797 0.2859,0.23355 0.28592,0.23921 0.2859,0.24524 0.28591,0.25087 0.2859,0.2565 0.2859,0.26254 0.28591,0.26817 0.2859,0.27381 0.28591,0.27986 0.28591,0.28546 0.28591,0.29111 0.2859,0.29715 0.28591,0.30278 0.28592,0.30839 0.2859,0.31446 0.2859,0.32008 0.28592,0.3257 0.28591,0.33176 0.2859,0.33737 0.2859,0.343 0.28592,0.34908 0.28591,0.35467 0.2859,0.36029 0.28591,0.36638 0.28591,0.37198 0.28591,0.37759 0.2859,0.38367 0.28591,0.38928 0.28592,0.39534 0.2859,0.40053 0.2859,0.40659 0.28591,0.41264 0.28592,0.41783 0.2859,0.42389 0.2859,0.42995 0.28592,0.43512 0.28591,0.44119 0.2859,0.44725 0.28591,0.45286 0.28591,0.4585 0.28591,0.46411 0.2859,0.47017 0.28591,0.47579 0.28592,0.48141 0.2859,0.48747 0.2859,0.49309 0.28591,0.49872 0.28592,0.50477 0.2859,0.5104 0.2859,0.51602 0.28589,0.52208 0.28592,0.52769 0.28591,0.53331 0.2859,0.53938 0.28592,0.545 0.2859,0.55106 0.28591,0.55623 0.2859,0.56231 0.28592,0.56837 0.04196,0.0839 L 0,0 0.28589,0.28589 0.5718,0.5718 l 0.2859,0.2859 0.28592,0.28592 0.2859,0.2859 0.2859,0.2859 0.28591,0.28591 0.28592,0.28592 0.2859,0.2859 0.2859,0.2859 0.28591,0.28591 0.28592,0.28592 0.2859,0.2859 0.28591,0.28591 0.2859,0.2859 0.28592,0.28592 0.2859,0.2859 0.28591,0.28591 0.28592,0.28592 0.2859,0.2859 0.2859,0.2859 0.28591,0.28591 0.28592,0.28592 0.2859,0.2859 0.2859,0.2859 0.28591,0.28591 0.28592,0.28592 0.2859,0.2859 0.2859,0.2859 0.28591,0.28591 0.28592,0.28592 0.2859,0.2859 0.28591,0.28591 0.2859,0.2859 0.28592,0.28592 0.2859,0.2859 0.28591,0.28591 0.28592,0.28592 0.2859,0.2859 0.28591,0.28591 0.2859,0.2859 0.28592,0.28592 0.2859,0.2859 0.28591,0.28591 0.2859,0.2859 0.2859,0.2859 0.28591,0.28591 0.2859,0.2859 0.28591,0.28591 0.28591,0.28591 0.28591,0.28591 0.2859,0.2859 0.28591,0.28591 0.28592,0.28592 0.2859,0.2859 0.2859,0.2859 0.28592,0.28592 0.28591,0.28591 0.2859,0.2859 0.2859,0.2859 0.28592,0.28592 0.28591,0.28591 0.2859,0.2859 0.28591,0.28591 0.28591,0.28591 0.28591,0.28591 0.2859,0.2859 0.28591,0.28591 0.28592,0.28592 0.2859,0.2859 0.2859,0.2859 0.28591,0.28591 0.28592,0.28592 0.2859,0.2859 0.2859,0.2859 0.28592,0.28592 0.28591,0.28591 0.2859,0.2859 0.28591,0.28591 0.28591,0.28591 0.28591,0.28591 0.2859,0.2859 0.28591,0.28591 0.28592,0.28592 0.2859,0.2859 0.2859,0.2859 0.28591,0.28591 0.28592,0.28592 0.2859,0.2859 0.2859,0.2859 0.28589,0.28589 0.28592,0.28592 0.28591,0.28591 0.2859,0.2859 0.28592,0.28592 0.2859,0.2859 0.28591,0.28591 0.2859,0.2859 0.28592,0.28592" /><g
               id="g78"><g
                 transform="translate(-10.422,-8.74)"
                 id="g80"><g
                   id="g82"><g
                     transform="translate(-3.32,-4.289)"
                     id="g84"><text
                       id="text88"
                       style="font-variant:normal;font-weight:normal;font-size:4.98129988px;font-family:CMMI5;-inkscape-font-specification:CMMI5;writing-mode:lr-tb;fill:#0000ff;fill-opacity:0.3;fill-rule:nonzero;stroke:none"
                       transform="matrix(1,0,0,-1,3.32,4.289)"><tspan
                         id="tspan86"
                         y="0"
                         x="0">y</tspan></text>
<text
                       id="text92"
                       style="font-variant:normal;font-weight:normal;font-size:4.98129988px;font-family:CMR5;-inkscape-font-specification:CMR5;writing-mode:lr-tb;fill:#0000ff;fill-opacity:0.3;fill-rule:nonzero;stroke:none"
                       transform="matrix(1,0,0,-1,9.175,4.289)"><tspan
                         id="tspan90"
                         y="0"
                         x="0">=</tspan></text>
<text
                       id="text96"
                       style="font-variant:normal;font-weight:normal;font-size:4.98129988px;font-family:CMMI5;-inkscape-font-specification:CMMI5;writing-mode:lr-tb;fill:#0000ff;fill-opacity:0.3;fill-rule:nonzero;stroke:none"
                       transform="matrix(1,0,0,-1,16.332,4.289)"><tspan
                         id="tspan94"
                         y="0"
                         x="0">x</tspan></text>
<text
                       id="text100"
                       style="font-variant:normal;font-weight:normal;font-size:4.98129988px;font-family:CMR5;-inkscape-font-specification:CMR5;writing-mode:lr-tb;fill:#0000ff;fill-opacity:0.3;fill-rule:nonzero;stroke:none"
                       transform="matrix(1,0,0,-1,20.276,6.299)"><tspan
                         id="tspan98"
                         y="0"
                         x="0">2</tspan></text>
<g
                       transform="translate(3.32,4.289)"
                       id="g102" /></g></g><g
                   transform="translate(10.422,8.74)"
                   id="g104" /></g></g><g
               id="g106"><g
                 transform="translate(19.848,32.793)"
                 id="g108"><g
                   id="g110"><g
                     transform="translate(-33.59,-45.822)"
                     id="g112"><text
                       id="text116"
                       style="font-variant:normal;font-weight:normal;font-size:4.98129988px;font-family:CMMI5;-inkscape-font-specification:CMMI5;writing-mode:lr-tb;fill:#0000ff;fill-opacity:0.3;fill-rule:nonzero;stroke:none"
                       transform="matrix(1,0,0,-1,33.59,45.822)"><tspan
                         id="tspan114"
                         y="0"
                         x="0">y</tspan></text>
<text
                       id="text120"
                       style="font-variant:normal;font-weight:normal;font-size:4.98129988px;font-family:CMR5;-inkscape-font-specification:CMR5;writing-mode:lr-tb;fill:#0000ff;fill-opacity:0.3;fill-rule:nonzero;stroke:none"
                       transform="matrix(1,0,0,-1,39.445,45.822)"><tspan
                         id="tspan118"
                         y="0"
                         x="0">=</tspan></text>
<text
                       id="text124"
                       style="font-variant:normal;font-weight:normal;font-size:4.98129988px;font-family:CMMI5;-inkscape-font-specification:CMMI5;writing-mode:lr-tb;fill:#0000ff;fill-opacity:0.3;fill-rule:nonzero;stroke:none"
                       transform="matrix(1,0,0,-1,46.602,45.822)"><tspan
                         id="tspan122"
                         y="0"
                         x="0">x</tspan></text>
<g
                       transform="translate(33.59,45.822)"
                       id="g126" /></g></g><g
                   transform="translate(-19.848,-32.793)"
                   id="g128" /></g></g></g></g></g></g></g></svg>