<?xml version="1.0" standalone="no"?>
<!DOCTYPE svg PUBLIC "-//W3C//DTD SVG 20010904//EN"
 "http://www.w3.org/TR/2001/REC-SVG-20010904/DTD/svg10.dtd">
<svg version="1.0" xmlns="http://www.w3.org/2000/svg"
 width="476.000000pt" height="470.000000pt" viewBox="0 0 476.000000 470.000000"
 preserveAspectRatio="xMidYMid meet">

<g transform="translate(0.000000,470.000000) scale(0.100000,-0.100000)"
fill="#000000" stroke="none">
<path d="M400 4561 c0 -36 -3 -40 -27 -44 l-28 -4 28 -2 c26 -1 27 -2 27 -65
0 -42 -4 -66 -12 -69 -10 -4 -10 -6 0 -6 8 -1 12 -21 12 -65 0 -42 -4 -66 -12
-69 -10 -4 -10 -6 0 -6 8 -1 12 -20 12 -60 0 -38 -4 -61 -12 -64 -10 -4 -10
-6 0 -6 8 -1 12 -21 12 -65 0 -42 -4 -66 -12 -69 -10 -4 -10 -6 0 -6 8 -1 12
-21 12 -65 0 -63 -1 -65 -27 -69 l-28 -4 28 -2 c26 -1 27 -3 27 -60 0 -38 -4
-61 -12 -64 -10 -4 -10 -6 0 -6 17 -1 17 -127 0 -134 -10 -4 -10 -6 0 -6 8 -1
12 -20 12 -60 0 -38 -4 -61 -12 -64 -10 -4 -10 -6 0 -6 17 -1 17 -127 0 -134
-10 -4 -10 -6 0 -6 8 -1 12 -21 12 -65 0 -63 -1 -65 -27 -69 l-28 -4 28 -2
c26 -1 27 -3 27 -60 0 -38 -4 -61 -12 -64 -10 -4 -10 -6 0 -6 17 -1 17 -127 0
-134 -10 -4 -10 -6 0 -6 8 -1 12 -21 12 -65 0 -42 -4 -66 -12 -69 -10 -4 -10
-6 0 -6 17 -1 17 -117 0 -124 -10 -4 -10 -6 0 -6 8 -1 12 -21 12 -65 0 -63 -1
-65 -27 -69 l-28 -4 28 -2 c26 -1 27 -2 27 -65 0 -42 -4 -66 -12 -69 -10 -4
-10 -6 0 -6 17 -1 17 -117 0 -124 -10 -4 -10 -6 0 -6 8 -1 12 -21 12 -65 0
-42 -4 -66 -12 -69 -10 -4 -10 -6 0 -6 8 -1 12 -21 12 -65 0 -42 -4 -66 -12
-69 -10 -4 -10 -6 0 -6 8 -1 12 -20 12 -60 0 -57 -1 -60 -27 -64 l-28 -4 28
-2 c26 -1 27 -2 27 -65 0 -42 -4 -66 -12 -69 -10 -4 -10 -6 0 -6 8 -1 12 -21
12 -65 0 -42 -4 -66 -12 -69 -10 -4 -10 -6 0 -6 17 -1 17 -117 -1 -124 -9 -4
-9 -6 1 -6 8 -1 12 -21 12 -65 0 -42 -4 -66 -12 -69 -10 -4 -10 -6 0 -6 8 -1
12 -21 12 -65 0 -63 -1 -65 -27 -69 l-28 -4 28 -2 c26 -1 27 -3 27 -60 0 -38
-4 -61 -13 -64 -9 -4 -9 -6 1 -6 8 -1 12 -21 12 -65 0 -42 -4 -66 -12 -69 -10
-4 -10 -6 0 -6 17 -1 17 -127 -1 -134 -9 -4 -9 -6 1 -6 17 -1 17 -117 -1 -124
-9 -4 -9 -6 1 -6 8 -1 12 -21 12 -65 0 -63 -1 -65 -27 -69 l-28 -4 28 -2 c25
-1 27 -4 27 -41 0 -40 0 -40 39 -40 36 0 40 -3 44 -27 l4 -28 2 28 c1 26 2 27
65 27 42 0 66 -4 69 -12 4 -10 6 -10 6 0 1 17 127 17 134 0 4 -10 6 -10 6 0 1
17 117 17 124 0 4 -10 6 -10 6 0 1 17 127 17 134 0 4 -10 6 -10 6 0 1 8 21 12
65 12 63 0 65 -1 69 -27 l4 -28 2 28 c1 26 3 27 60 27 38 0 61 -4 64 -12 4
-10 6 -10 6 0 1 17 127 17 134 0 4 -10 6 -10 6 0 1 17 127 17 134 0 4 -10 6
-10 6 0 1 17 117 17 124 0 4 -10 6 -10 6 0 1 8 21 12 65 12 63 0 65 -1 69 -27
l4 -28 2 28 c1 26 2 27 65 27 42 0 66 -4 69 -12 4 -10 6 -10 6 0 1 17 117 17
124 0 4 -10 6 -10 6 0 1 17 127 17 134 0 4 -10 6 -10 6 0 1 17 127 17 134 0 4
-10 6 -10 6 0 1 8 20 12 60 12 57 0 60 -1 64 -27 l4 -28 2 28 c1 26 2 27 65
27 42 0 66 -4 69 -12 4 -10 6 -10 6 0 1 17 127 17 134 0 4 -10 6 -10 6 0 1 17
117 17 124 0 4 -10 6 -10 6 0 1 17 127 17 134 0 4 -10 6 -10 6 0 1 8 21 12 65
12 63 0 65 -1 69 -27 l4 -28 2 28 c1 26 3 27 60 27 38 0 61 -4 64 -12 4 -10 6
-10 6 0 1 8 21 12 65 12 42 0 66 -4 69 -12 4 -10 6 -10 6 0 1 8 21 12 65 12
42 0 66 -4 69 -12 4 -10 6 -10 6 0 1 17 117 17 124 0 4 -10 6 -10 6 0 1 8 21
12 65 12 63 0 65 -1 69 -27 l4 -28 2 28 c1 26 2 27 65 27 42 0 66 -4 69 -12 4
-10 6 -10 6 0 1 17 117 17 124 0 4 -10 6 -10 6 0 1 17 127 17 134 0 4 -10 6
-10 6 0 1 17 127 17 134 0 4 -10 6 -10 6 0 1 8 20 12 60 12 57 0 60 -1 64 -28
l4 -27 2 28 c1 25 4 27 46 27 l45 0 0 2135 0 2135 -2140 0 -2140 0 0 -39z
m2130 -6 l0 -35 -52 -2 -53 -2 53 -3 52 -4 0 -105 0 -106 -52 7 c-38 4 -49 3
-38 -4 8 -6 32 -11 53 -11 l38 0 -3 -97 -3 -98 -50 -6 c-49 -6 -49 -6 -9 -7
22 -1 45 -7 52 -14 8 -8 12 -46 12 -104 l0 -91 -50 1 c-27 1 -50 -2 -50 -6 0
-4 12 -8 28 -8 37 0 72 -10 72 -21 0 -14 -397 -11 -423 3 -12 6 -29 13 -37 14
-8 1 -28 4 -45 8 -26 5 -24 4 10 -13 l40 -20 -92 0 c-55 -1 -94 3 -98 10 -4 6
-12 8 -19 6 -7 -3 -23 1 -37 9 -13 7 -31 13 -39 13 -8 0 1 -8 20 -19 l35 -19
-87 -1 c-48 0 -90 4 -93 10 -4 6 -10 8 -15 5 -5 -3 -23 1 -39 10 -43 22 -63
18 -21 -5 l35 -19 -85 0 c-47 0 -101 6 -120 13 -68 26 -75 27 -40 7 l35 -20
-86 -1 c-47 0 -89 3 -93 8 -4 4 -13 7 -19 7 -7 0 -11 15 -10 40 0 26 -1 30 -4
12 -3 -21 -9 -27 -20 -23 -45 17 -74 -28 -43 -67 18 -21 19 -22 52 -5 30 15
97 17 686 17 l652 1 0 -86 c0 -78 -2 -85 -17 -79 -22 8 -21 8 -58 5 -16 -1
-23 -4 -15 -7 8 -2 22 -7 30 -10 8 -3 25 -5 38 -4 l22 2 0 -585 0 -586 -1060
0 -1060 0 0 1060 0 1060 1060 0 1060 0 0 -35z m2140 5 c0 -27 -3 -30 -32 -30
-18 0 -40 -5 -48 -11 -11 -8 -3 -9 33 -6 l47 5 0 -104 0 -104 -47 -2 -48 -2
48 -3 47 -4 0 -98 0 -98 -47 -11 -48 -10 48 1 48 2 -3 -100 -3 -100 -45 -4
-45 -5 45 -5 45 -6 3 -99 c2 -84 1 -98 -12 -93 -9 4 -18 2 -21 -3 -4 -6 -18
-10 -32 -10 -42 0 -20 -10 25 -12 l42 -1 0 -99 c0 -96 -1 -99 -22 -97 -37 3
-58 0 -58 -10 0 -4 18 -7 40 -5 l40 3 0 -484 0 -485 -1065 0 -1065 0 0 675 0
675 655 0 c579 0 659 -2 680 -16 31 -20 65 -4 65 31 0 26 30 52 65 57 11 2 31
11 45 21 22 15 22 17 5 17 -11 0 -33 -9 -50 -20 -37 -25 -52 -25 -58 -2 -3 9
-5 2 -6 -15 -1 -31 -2 -32 -26 -21 -23 10 -24 13 -10 28 8 9 14 25 14 36 -1
18 -2 18 -6 -1 -3 -11 -16 -33 -29 -51 -13 -17 -24 -36 -24 -42 0 -9 -167 -12
-659 -12 l-659 0 -1 120 c-2 109 0 120 16 120 17 1 17 1 1 14 -15 11 -18 29
-18 104 0 90 0 90 28 97 l27 8 -27 10 c-28 11 -28 11 -28 108 l0 98 38 -5 c34
-5 35 -4 19 9 -10 8 -27 13 -37 10 -17 -5 -20 0 -20 31 l0 36 1065 0 1065 0 0
-30z m-2140 -2790 c0 -545 -3 -690 -12 -691 -10 0 -10 -2 0 -6 8 -3 12 -34 12
-104 0 -81 -3 -99 -15 -99 -8 0 -15 -4 -15 -10 0 -5 7 -10 15 -10 12 0 15 -18
15 -101 0 -57 -4 -98 -9 -95 -5 4 -20 2 -33 -3 -22 -9 -22 -10 10 -16 l32 -7
0 -100 0 -99 -35 7 c-21 4 -35 2 -35 -4 0 -14 24 -22 49 -15 19 5 21 1 21 -36
l0 -41 -1060 0 -1060 0 0 35 c0 33 2 35 38 37 l37 1 -38 4 -38 4 3 102 3 102
35 6 35 6 -37 2 -38 1 0 100 0 100 35 0 c19 0 35 4 35 9 0 6 -16 7 -35 4 l-35
-6 0 107 0 106 38 2 37 1 -37 4 -38 4 0 95 0 95 30 6 c37 7 52 26 19 23 -49
-4 -49 -5 -49 94 l0 94 38 7 c34 7 35 8 14 16 -12 5 -29 6 -37 3 -13 -5 -15
52 -15 475 l0 481 1060 0 1060 0 0 -690z m2140 -370 l0 -1060 -1065 0 -1065 0
0 41 0 42 50 -6 c29 -4 50 -2 50 3 0 6 -22 10 -50 10 l-50 0 0 100 0 100 53 1
c53 1 51 3 -15 14 l-38 6 0 99 0 100 53 2 52 1 -50 6 -50 6 -3 98 c-3 107 -8
99 68 99 32 -1 31 1 -17 15 l-53 16 0 92 0 92 46 1 c64 2 65 9 5 17 l-51 7 0
579 0 579 1065 0 1065 0 0 -1060z"/>
<path d="M555 4520 l-70 -6 55 -2 c30 -1 73 -5 95 -8 38 -5 39 -4 21 10 -11 9
-22 15 -25 14 -3 -1 -37 -4 -76 -8z"/>
<path d="M740 4509 c25 -5 62 -14 83 -20 25 -7 43 -7 55 0 14 8 14 11 2 12 -8
1 -24 3 -35 4 -11 1 -49 5 -85 8 -58 6 -60 5 -20 -4z"/>
<path d="M940 4510 c85 -28 132 -40 152 -40 l23 1 -25 13 c-14 8 -27 13 -31
11 -3 -2 -30 2 -60 10 -57 16 -102 19 -59 5z"/>
<path d="M1130 4516 c0 -3 26 -12 58 -20 31 -9 65 -21 74 -26 10 -6 28 -10 40
-10 22 1 22 1 4 15 -10 8 -22 12 -26 10 -3 -2 -35 5 -69 15 -63 20 -81 24 -81
16z"/>
<path d="M1350 4516 c0 -3 32 -15 70 -27 39 -13 70 -27 70 -31 0 -4 12 -8 26
-8 44 0 17 17 -70 44 -87 27 -96 29 -96 22z"/>
<path d="M1560 4516 c0 -3 32 -15 70 -27 39 -13 70 -27 70 -31 0 -4 12 -8 27
-8 25 0 25 1 9 19 -10 11 -23 18 -30 15 -6 -2 -38 5 -70 16 -60 20 -76 24 -76
16z"/>
<path d="M1780 4516 c0 -6 159 -56 178 -56 13 0 11 4 -6 16 -13 9 -26 14 -28
11 -3 -3 -33 4 -67 14 -64 19 -77 22 -77 15z"/>
<path d="M2020 4508 c19 -5 56 -16 82 -24 26 -8 57 -14 70 -14 21 1 21 2 5 11
-10 6 -30 12 -45 14 -15 2 -47 8 -72 14 -56 13 -87 12 -40 -1z"/>
<path d="M2265 4505 c33 -7 75 -16 93 -20 21 -5 32 -4 32 4 0 6 -3 12 -7 12
-15 3 -49 6 -113 12 l-65 6 60 -14z"/>
<path d="M500 4301 c24 -13 125 -20 141 -10 16 10 18 10 -81 14 -42 2 -68 0
-60 -4z"/>
<path d="M705 4303 c9 -9 126 -33 156 -33 34 1 -25 22 -73 26 -29 2 -61 7 -72
10 -14 4 -17 3 -11 -3z"/>
<path d="M920 4301 c0 -4 24 -13 54 -20 30 -7 56 -17 58 -23 2 -6 13 -8 27 -3
21 6 21 8 4 20 -10 7 -21 11 -25 9 -4 -3 -32 2 -63 10 -30 8 -55 11 -55 7z"/>
<path d="M1130 4301 c0 -5 27 -16 60 -25 32 -9 62 -21 65 -26 4 -6 15 -10 27
-10 17 0 18 2 8 15 -7 8 -20 15 -30 15 -9 0 -42 9 -73 19 -32 11 -57 16 -57
12z"/>
<path d="M1350 4301 c0 -4 25 -16 55 -26 30 -11 55 -23 55 -27 0 -4 12 -8 26
-8 22 0 25 2 14 15 -7 8 -21 15 -31 15 -10 0 -41 9 -69 19 -27 11 -50 16 -50
12z"/>
<path d="M1780 4301 c0 -4 27 -16 60 -26 33 -10 60 -22 60 -27 0 -4 12 -8 26
-8 22 0 25 2 14 15 -7 8 -20 15 -30 15 -9 0 -42 9 -73 19 -32 11 -57 16 -57
12z"/>
<path d="M2000 4301 c0 -4 25 -14 55 -21 30 -7 55 -17 55 -22 0 -4 11 -8 25
-8 34 0 32 18 -2 25 -16 3 -52 12 -80 20 -29 7 -53 10 -53 6z"/>
<path d="M2215 4303 c9 -9 126 -33 156 -33 34 1 -25 22 -73 26 -29 2 -61 7
-72 10 -14 4 -17 3 -11 -3z"/>
<path d="M1590 4288 c14 -6 43 -19 66 -29 45 -21 85 -26 68 -9 -6 6 -22 13
-36 15 -14 3 -42 12 -61 20 -20 8 -42 15 -49 14 -7 0 -2 -5 12 -11z"/>
<path d="M530 4089 l-55 -6 53 -1 c28 -1 52 -6 52 -11 0 -4 11 -6 25 -3 14 2
23 8 20 12 -8 13 -37 15 -95 9z"/>
<path d="M725 4080 c88 -30 97 -32 108 -21 6 6 7 12 1 12 -5 1 -18 3 -29 4
-11 1 -40 5 -65 8 -39 6 -41 5 -15 -3z"/>
<path d="M924 4081 c4 -6 15 -11 24 -11 9 0 30 -7 46 -15 33 -18 93 -21 63 -4
-9 6 -27 12 -38 14 -11 2 -30 7 -42 10 -12 4 -30 9 -41 12 -12 3 -16 1 -12 -6z"/>
<path d="M1165 4070 c22 -11 46 -20 53 -20 6 0 12 -4 12 -10 0 -5 12 -10 26
-10 14 0 23 4 19 9 -5 8 -40 21 -132 46 -10 3 0 -4 22 -15z"/>
<path d="M1350 4085 c0 -8 133 -66 144 -62 13 4 -30 30 -57 34 -10 2 -31 10
-47 18 -31 16 -40 18 -40 10z"/>
<path d="M1564 4081 c4 -6 12 -11 18 -11 5 0 32 -11 60 -25 60 -30 77 -32 53
-5 -10 11 -21 17 -26 14 -5 -2 -21 2 -36 9 -44 22 -77 31 -69 18z"/>
<path d="M1784 4082 c4 -7 12 -12 18 -12 7 0 31 -9 55 -21 23 -11 50 -19 59
-17 20 4 -5 17 -71 38 -22 7 -46 15 -54 18 -9 3 -12 1 -7 -6z"/>
<path d="M2000 4080 c8 -5 22 -10 30 -10 8 0 28 -7 44 -15 34 -18 76 -21 59
-4 -6 6 -25 13 -43 16 -18 2 -44 9 -57 14 -32 12 -52 11 -33 -1z"/>
<path d="M2230 4081 c68 -23 111 -34 117 -28 10 10 -3 19 -32 22 -14 2 -44 6
-67 9 -31 4 -36 3 -18 -3z"/>
<path d="M1140 3955 c0 -8 2 -15 4 -15 2 0 6 7 10 15 3 8 1 15 -4 15 -6 0 -10
-7 -10 -15z"/>
<path d="M1191 3944 c0 -11 3 -14 6 -6 3 7 2 16 -1 19 -3 4 -6 -2 -5 -13z"/>
<path d="M1130 3921 c0 -5 -3 -16 -6 -25 -3 -9 -2 -16 3 -16 5 0 10 11 11 25
1 14 0 25 -3 25 -3 0 -5 -4 -5 -9z"/>
<path d="M490 3869 c0 -11 94 -18 110 -8 13 7 13 9 0 10 -56 4 -110 4 -110 -2z"/>
<path d="M700 3872 c0 -9 87 -32 118 -32 32 1 -16 22 -61 27 -23 2 -45 7 -49
9 -4 3 -8 1 -8 -4z"/>
<path d="M2210 3871 c0 -8 90 -31 118 -31 12 1 10 5 -8 14 -14 8 -28 12 -32
10 -4 -3 -24 -1 -43 5 -19 5 -35 6 -35 2z"/>
<path d="M955 3851 c22 -11 51 -20 65 -20 24 0 24 0 5 11 -11 7 -27 13 -35 14
-8 1 -28 4 -45 8 -26 5 -24 4 10 -13z"/>
<path d="M510 3659 c-30 -5 -31 -7 -8 -8 15 0 29 -5 32 -10 3 -4 17 -6 31 -4
13 3 23 9 20 13 -8 12 -38 16 -75 9z"/>
<path d="M723 3647 c15 -6 27 -14 27 -19 0 -11 37 -10 44 1 8 12 -20 23 -64
26 -35 3 -35 2 -7 -8z"/>
<path d="M920 3651 c0 -5 11 -12 25 -15 14 -4 25 -11 25 -16 0 -6 12 -10 27
-10 25 0 26 1 8 20 -10 11 -21 17 -25 15 -5 -3 -20 -1 -34 5 -14 5 -26 6 -26
1z"/>
<path d="M1131 3656 c18 -18 83 -56 96 -56 14 0 14 2 -2 20 -10 11 -22 17 -27
14 -5 -3 -20 1 -33 10 -22 15 -45 22 -34 12z"/>
<path d="M1350 3651 c0 -6 5 -11 10 -11 6 0 18 -8 29 -19 10 -10 31 -21 47
-25 28 -7 28 -7 10 13 -11 12 -25 21 -33 21 -7 0 -25 7 -38 16 -15 10 -25 12
-25 5z"/>
<path d="M1575 3645 c11 -8 27 -21 36 -29 8 -7 25 -15 38 -19 51 -13 -18 37
-84 61 -5 2 -1 -4 10 -13z"/>
<path d="M1780 3652 c0 -8 80 -52 95 -52 17 0 -13 22 -54 41 -23 10 -41 15
-41 11z"/>
<path d="M1990 3656 c0 -4 14 -12 30 -17 17 -6 30 -15 30 -20 0 -5 12 -9 26
-9 21 0 24 3 15 14 -6 7 -24 16 -39 19 -15 3 -35 9 -44 12 -10 4 -18 4 -18 1z"/>
<path d="M2216 3648 c3 -4 14 -8 25 -8 10 0 19 -4 19 -10 0 -5 15 -10 33 -9
l32 0 -23 16 c-23 16 -95 26 -86 11z"/>
<path d="M505 3441 c-17 -7 -17 -8 8 -15 15 -3 35 -2 45 3 9 6 12 11 5 11 -6
0 -17 2 -25 4 -7 3 -22 1 -33 -3z"/>
<path d="M2445 3441 c-17 -7 -16 -9 13 -16 21 -4 38 -3 45 4 8 8 8 11 0 11 -6
0 -17 2 -25 4 -7 3 -22 1 -33 -3z"/>
<path d="M713 3433 c9 -2 17 -9 17 -14 0 -5 15 -9 32 -9 30 0 31 1 13 13 -11
7 -33 14 -50 14 -16 0 -22 -1 -12 -4z"/>
<path d="M937 3421 c12 -12 32 -21 45 -21 19 0 20 2 8 14 -8 7 -28 17 -45 20
l-30 7 22 -20z"/>
<path d="M1151 3418 c15 -14 36 -28 47 -30 18 -5 19 -3 9 12 -6 10 -18 21 -27
23 -8 3 -24 8 -35 12 -16 7 -15 3 6 -17z"/>
<path d="M1362 3424 c10 -10 20 -15 24 -12 3 4 -5 12 -18 18 -22 12 -22 12 -6
-6z"/>
<path d="M1590 3410 c36 -32 73 -43 50 -15 -11 13 -66 45 -78 45 -3 0 10 -13
28 -30z"/>
<path d="M1803 3416 c29 -27 76 -44 57 -20 -11 12 -66 44 -78 44 -3 0 7 -11
21 -24z"/>
<path d="M2005 3429 c11 -7 22 -15 25 -19 3 -4 16 -10 29 -13 24 -6 24 -6 5
13 -10 10 -32 22 -49 25 -27 6 -28 5 -10 -6z"/>
<path d="M2223 3433 c9 -2 17 -9 17 -14 0 -5 15 -9 32 -9 30 0 31 1 13 13 -11
7 -33 14 -50 14 -16 0 -22 -1 -12 -4z"/>
<path d="M1392 3407 c-10 -12 -8 -16 10 -20 28 -8 31 -5 15 17 -11 16 -15 16
-25 3z"/>
<path d="M490 3230 c-10 -6 -7 -10 13 -15 37 -10 54 -1 25 12 -14 6 -31 8 -38
3z"/>
<path d="M2435 3230 c-8 -12 17 -23 41 -18 14 2 12 6 -9 15 -16 8 -29 9 -32 3z"/>
<path d="M707 3214 c3 -8 17 -14 31 -14 30 0 19 18 -16 25 -15 2 -19 0 -15
-11z"/>
<path d="M1130 3220 c0 -10 49 -50 61 -50 5 0 4 8 -2 18 -12 19 -59 45 -59 32z"/>
<path d="M1780 3223 c1 -14 24 -39 43 -46 27 -10 20 10 -13 33 -16 12 -30 18
-30 13z"/>
<path d="M2217 3214 c3 -8 17 -14 31 -14 30 0 19 18 -16 25 -15 2 -19 0 -15
-11z"/>
<path d="M926 3205 c4 -8 10 -15 14 -15 5 0 16 -3 25 -6 15 -6 15 -4 4 15 -16
24 -52 30 -43 6z"/>
<path d="M1362 3201 c7 -11 23 -25 37 -31 23 -10 23 -10 11 7 -31 40 -71 60
-48 24z"/>
<path d="M1565 3210 c3 -5 11 -10 16 -10 6 0 7 5 4 10 -3 6 -11 10 -16 10 -6
0 -7 -4 -4 -10z"/>
<path d="M2006 3205 c4 -8 10 -15 14 -15 5 0 17 -3 27 -7 17 -6 17 -5 -1 15
-22 25 -48 30 -40 7z"/>
<path d="M1591 3197 c-8 -11 -5 -16 14 -25 28 -13 31 -6 11 21 -11 14 -15 15
-25 4z"/>
<path d="M490 3005 c0 -9 6 -12 15 -9 8 4 15 7 15 9 0 2 -7 5 -15 9 -9 3 -15
0 -15 -9z"/>
<path d="M704 3009 c-7 -12 13 -29 35 -29 11 0 10 5 -4 20 -21 23 -22 23 -31
9z"/>
<path d="M2214 3009 c-7 -12 13 -29 35 -29 11 0 10 5 -4 20 -21 23 -22 23 -31
9z"/>
<path d="M2430 3005 c0 -16 16 -20 24 -6 3 5 -1 11 -9 15 -9 3 -15 0 -15 -9z"/>
<path d="M910 3006 c0 -9 32 -36 41 -36 6 0 5 8 -1 20 -9 17 -40 29 -40 16z"/>
<path d="M1130 2996 c0 -8 11 -21 25 -30 27 -18 30 -15 15 13 -12 24 -40 35
-40 17z"/>
<path d="M1353 2991 c1 -23 37 -49 37 -27 0 13 -25 46 -35 46 -2 0 -3 -8 -2
-19z"/>
<path d="M1567 2990 c3 -12 15 -26 26 -31 17 -10 19 -9 14 6 -4 9 -7 18 -7 20
0 3 -9 9 -19 14 -16 9 -18 8 -14 -9z"/>
<path d="M1780 2996 c0 -8 11 -21 25 -30 24 -16 25 -16 13 8 -12 28 -38 42
-38 22z"/>
<path d="M1990 3006 c0 -9 32 -36 41 -36 6 0 5 8 -1 20 -9 17 -40 29 -40 16z"/>
<path d="M490 2790 c0 -5 5 -10 11 -10 5 0 7 5 4 10 -3 6 -8 10 -11 10 -2 0
-4 -4 -4 -10z"/>
<path d="M700 2791 c0 -5 5 -13 10 -16 6 -3 10 -2 10 4 0 5 -4 13 -10 16 -5 3
-10 2 -10 -4z"/>
<path d="M1995 2790 c-4 -7 0 -19 9 -28 13 -14 16 -14 16 -2 0 25 -16 44 -25
30z"/>
<path d="M2430 2790 c0 -5 5 -10 11 -10 5 0 7 5 4 10 -3 6 -8 10 -11 10 -2 0
-4 -4 -4 -10z"/>
<path d="M912 2779 c2 -7 10 -15 17 -17 8 -3 12 1 9 9 -2 7 -10 15 -17 17 -8
3 -12 -1 -9 -9z"/>
<path d="M1126 2781 c-3 -4 3 -16 14 -26 20 -18 25 -11 14 19 -7 18 -20 21
-28 7z"/>
<path d="M1340 2777 c0 -8 10 -22 22 -33 20 -18 21 -18 15 -1 -4 10 -7 25 -7
33 0 8 -7 14 -15 14 -8 0 -15 -6 -15 -13z"/>
<path d="M1560 2776 c0 -7 7 -19 15 -26 12 -10 15 -9 15 8 0 11 -7 22 -15 26
-9 3 -15 0 -15 -8z"/>
<path d="M1776 2781 c-3 -4 4 -17 16 -27 20 -18 21 -18 15 -1 -4 10 -7 23 -7
28 0 11 -17 12 -24 0z"/>
<path d="M2215 2780 c3 -5 8 -10 11 -10 2 0 4 5 4 10 0 6 -5 10 -11 10 -5 0
-7 -4 -4 -10z"/>
<path d="M701 2564 c0 -11 3 -14 6 -6 3 7 2 16 -1 19 -3 4 -6 -2 -5 -13z"/>
<path d="M910 2566 c0 -8 5 -18 10 -21 6 -3 10 3 10 14 0 12 -4 21 -10 21 -5
0 -10 -6 -10 -14z"/>
<path d="M1126 2571 c-4 -6 -3 -18 2 -27 8 -15 10 -14 16 2 8 20 -8 42 -18 25z"/>
<path d="M1337 2573 c-3 -5 1 -19 9 -33 l13 -25 1 27 c0 27 -14 45 -23 31z"/>
<path d="M1556 2571 c-8 -12 3 -41 15 -41 12 0 12 37 0 45 -5 3 -12 1 -15 -4z"/>
<path d="M1990 2566 c0 -8 5 -18 10 -21 6 -3 10 1 10 9 0 8 -4 18 -10 21 -5 3
-10 -1 -10 -9z"/>
<path d="M2211 2564 c0 -11 3 -14 6 -6 3 7 2 16 -1 19 -3 4 -6 -2 -5 -13z"/>
<path d="M1770 2563 c0 -5 5 -15 10 -23 8 -12 10 -11 10 8 0 12 -4 22 -10 22
-5 0 -10 -3 -10 -7z"/>
<path d="M3426 4571 c-3 -5 -35 -17 -71 -26 -36 -10 -65 -21 -65 -26 0 -4 28
1 63 12 34 10 69 19 78 19 8 0 24 7 35 15 18 14 18 14 -8 15 -15 0 -29 -4 -32
-9z"/>
<path d="M3636 4572 c-3 -5 -32 -17 -66 -27 -33 -10 -58 -20 -56 -23 3 -2 31
4 63 13 32 9 67 19 77 21 33 6 43 24 14 24 -15 0 -29 -4 -32 -8z"/>
<path d="M3793 4551 c-40 -14 -73 -29 -73 -33 0 -4 32 4 71 17 39 14 74 23 78
21 3 -2 15 2 26 10 18 13 18 14 -6 13 -13 -1 -57 -13 -96 -28z"/>
<path d="M4070 4571 c0 -5 -29 -17 -65 -26 -36 -10 -65 -21 -65 -25 0 -5 28 1
62 11 34 11 67 18 73 15 6 -2 22 5 36 15 l24 19 -32 0 c-18 0 -33 -4 -33 -9z"/>
<path d="M3206 4561 c-3 -4 -33 -14 -66 -21 -33 -7 -60 -16 -60 -20 0 -5 24
-2 53 6 28 7 64 14 78 14 15 0 32 7 39 15 11 13 8 15 -13 15 -14 0 -28 -4 -31
-9z"/>
<path d="M4286 4561 c-3 -4 -33 -14 -66 -21 -33 -7 -63 -17 -66 -21 -7 -11 -9
-12 56 6 30 8 67 15 81 15 15 0 32 7 39 15 11 13 8 15 -13 15 -14 0 -28 -4
-31 -9z"/>
<path d="M2995 4549 c-3 -4 -34 -11 -70 -14 -36 -4 -65 -12 -65 -17 0 -5 9 -6
20 -3 12 4 48 8 81 10 71 5 106 19 65 27 -15 3 -29 2 -31 -3z"/>
<path d="M4438 4537 c-38 -6 -68 -14 -68 -19 0 -5 8 -7 18 -4 9 3 45 8 80 10
65 5 126 27 67 24 -16 0 -60 -6 -97 -11z"/>
<path d="M2718 4531 c-97 -9 -94 -20 4 -16 45 2 90 4 98 5 13 0 13 1 0 10 -8
5 -19 9 -25 8 -5 -1 -40 -4 -77 -7z"/>
<path d="M3620 4355 c-14 -8 -47 -22 -75 -31 -27 -10 -45 -19 -39 -21 6 -2 35
5 63 17 29 11 56 18 60 16 3 -2 18 4 31 15 23 17 23 19 5 18 -11 0 -31 -6 -45
-14z"/>
<path d="M3792 4338 c-40 -17 -71 -32 -69 -34 5 -6 148 43 159 54 20 20 -10
13 -90 -20z"/>
<path d="M3405 4351 c-6 -5 -34 -16 -63 -26 -29 -9 -51 -19 -48 -22 3 -3 26 2
52 11 26 9 55 16 63 16 9 0 25 7 35 15 19 14 19 15 -5 15 -14 0 -29 -4 -34 -9z"/>
<path d="M4050 4351 c0 -4 -21 -14 -47 -21 -27 -7 -52 -17 -57 -21 -14 -13 -6
-11 57 10 30 11 58 17 61 14 2 -3 15 2 28 11 l22 16 -32 0 c-17 0 -32 -4 -32
-9z"/>
<path d="M3130 4324 c-72 -25 -62 -32 14 -9 26 8 52 13 56 10 4 -2 16 2 26 10
18 14 18 14 -6 13 -14 0 -54 -11 -90 -24z"/>
<path d="M4210 4325 c-36 -13 -57 -24 -48 -24 9 -1 28 3 42 9 15 5 42 11 62
13 19 3 40 9 47 16 18 18 -30 11 -103 -14z"/>
<path d="M2967 4334 c-3 -3 -29 -12 -59 -19 l-53 -14 55 6 c64 7 92 10 103 12
5 0 5 6 2 11 -7 11 -38 14 -48 4z"/>
<path d="M4470 4330 c-8 -5 -35 -13 -60 -19 l-45 -10 55 6 c62 6 91 10 103 12
5 0 5 6 2 11 -7 12 -34 12 -55 0z"/>
<path d="M2754 4319 c-3 -5 -30 -9 -61 -9 -81 0 -61 -9 25 -11 74 -2 118 14
67 23 -14 3 -28 1 -31 -3z"/>
<path d="M3600 4141 c0 -5 -20 -17 -45 -27 -25 -9 -45 -20 -45 -25 0 -4 20 1
45 12 25 11 49 18 54 15 4 -3 16 3 26 14 18 19 17 20 -8 20 -15 0 -27 -4 -27
-9z"/>
<path d="M3820 4141 c0 -5 -22 -17 -50 -27 -27 -10 -50 -22 -50 -26 0 -5 17
-1 38 8 20 9 51 20 69 25 41 12 52 29 19 29 -14 0 -26 -4 -26 -9z"/>
<path d="M3343 4116 c-29 -11 -53 -24 -53 -28 0 -4 21 1 48 11 26 10 52 16 58
14 6 -2 17 3 24 12 10 13 9 15 -6 14 -11 -1 -43 -11 -71 -23z"/>
<path d="M4026 4132 c-3 -5 -23 -14 -45 -22 -23 -7 -41 -17 -41 -22 0 -4 16
-1 36 7 20 8 48 17 62 20 38 7 52 25 20 25 -15 0 -29 -4 -32 -8z"/>
<path d="M3135 4114 c-22 -8 -46 -17 -54 -19 -8 -3 -12 -7 -9 -10 2 -2 26 2
52 10 27 8 51 13 55 11 3 -2 15 2 26 10 18 13 18 14 -6 13 -13 -1 -42 -8 -64
-15z"/>
<path d="M4215 4114 c-22 -8 -46 -17 -54 -19 -8 -3 -12 -7 -9 -10 2 -2 26 2
52 10 27 8 51 13 55 11 3 -2 15 2 26 10 18 13 18 14 -6 13 -13 -1 -42 -8 -64
-15z"/>
<path d="M2913 4106 c-23 -6 -45 -15 -50 -20 -4 -5 1 -6 13 -2 12 3 39 8 62
10 23 3 49 9 59 15 15 9 13 10 -12 9 -16 0 -49 -6 -72 -12z"/>
<path d="M4423 4106 c-45 -12 -74 -31 -33 -22 14 3 42 8 62 10 20 2 45 9 55
15 15 9 14 10 -12 9 -16 0 -49 -6 -72 -12z"/>
<path d="M2701 4099 c-72 -14 -71 -18 6 -15 40 1 76 6 80 9 3 4 1 7 -5 7 -5 0
-16 2 -24 4 -7 2 -33 0 -57 -5z"/>
<path d="M3840 3945 c-7 -8 -18 -15 -25 -15 -8 0 -15 -4 -17 -9 -1 -4 -21 -18
-43 -30 -39 -22 -36 -21 35 4 21 8 37 9 41 4 3 -5 10 6 16 26 12 39 11 42 -7
20z"/>
<path d="M3335 3898 c-27 -16 -39 -26 -25 -22 37 10 110 43 110 49 0 13 -39 1
-85 -27z"/>
<path d="M3578 3921 c-1 -4 -21 -18 -43 -30 -42 -23 -27 -22 38 2 52 19 69 37
35 37 -15 0 -28 -4 -30 -9z"/>
<path d="M3150 3912 c0 -5 -18 -15 -40 -22 -56 -18 -44 -23 19 -7 61 16 89 37
48 37 -15 0 -27 -4 -27 -8z"/>
<path d="M4230 3912 c0 -5 -18 -14 -41 -21 -58 -18 -42 -24 20 -8 61 16 89 37
48 37 -15 0 -27 -4 -27 -8z"/>
<path d="M2895 3885 l-40 -13 46 3 c52 3 105 25 59 24 -14 0 -43 -6 -65 -14z"/>
<path d="M4405 3885 l-40 -14 54 4 c29 2 59 9 64 14 15 15 -28 13 -78 -4z"/>
<path d="M2680 3881 l-45 -7 46 -4 c53 -6 79 -2 79 11 0 10 -9 10 -80 0z"/>
<path d="M3583 3713 c-13 -2 -23 -8 -23 -12 0 -3 -14 -15 -31 -25 -17 -10 -28
-20 -25 -23 2 -3 15 2 28 11 12 9 29 16 38 16 8 0 21 9 28 20 7 11 11 19 10
19 -2 -1 -13 -4 -25 -6z"/>
<path d="M3800 3713 c-8 -3 -19 -10 -25 -15 -5 -4 -21 -17 -35 -28 l-25 -20
43 19 c60 26 99 66 42 44z"/>
<path d="M3350 3701 c0 -5 -13 -14 -30 -21 -16 -7 -30 -16 -30 -21 0 -9 76 23
93 40 8 8 5 11 -11 11 -12 0 -22 -4 -22 -9z"/>
<path d="M3973 3687 c-40 -27 -43 -43 -4 -23 16 9 31 13 33 11 3 -3 13 4 23
15 18 19 17 20 -1 19 -10 0 -33 -11 -51 -22z"/>
<path d="M3130 3691 c0 -5 -14 -14 -32 -20 -17 -6 -29 -13 -27 -16 6 -5 91 24
104 36 5 5 -1 9 -18 9 -15 0 -27 -4 -27 -9z"/>
<path d="M4210 3692 c0 -4 -14 -13 -32 -20 -48 -18 -29 -23 22 -6 57 20 73 34
37 34 -15 0 -27 -4 -27 -8z"/>
<path d="M2910 3680 c0 -5 -9 -10 -19 -10 -11 0 -23 -5 -26 -10 -7 -11 -2 -10
68 5 34 7 36 25 2 25 -14 0 -25 -4 -25 -10z"/>
<path d="M4420 3680 c0 -5 -9 -10 -19 -10 -11 0 -23 -5 -26 -10 -7 -11 -2 -10
68 5 15 3 25 10 22 15 -8 13 -45 13 -45 0z"/>
<path d="M2670 3663 l-35 -12 45 0 c52 -1 86 14 48 20 -12 3 -39 -1 -58 -8z"/>
<path d="M3357 3493 c-16 -4 -76 -53 -65 -53 12 0 67 32 78 45 7 8 11 14 9 14
-2 -1 -12 -3 -22 -6z"/>
<path d="M3562 3493 c-7 -3 -25 -16 -39 -30 -18 -19 -20 -24 -6 -18 10 4 25 9
33 12 9 2 21 13 28 24 12 19 8 22 -16 12z"/>
<path d="M3750 3470 c-18 -16 -31 -30 -28 -30 12 0 67 32 78 45 23 28 -14 17
-50 -15z"/>
<path d="M3961 3465 c-13 -14 -21 -25 -19 -25 11 0 68 32 73 41 13 20 -31 7
-54 -16z"/>
<path d="M3110 3472 c0 -5 -10 -14 -22 -21 -21 -11 -21 -11 7 -6 17 4 37 13
45 21 12 12 12 14 -8 14 -12 0 -22 -4 -22 -8z"/>
<path d="M4190 3472 c0 -5 -10 -14 -22 -21 -21 -11 -21 -11 7 -6 17 4 37 13
45 21 12 12 12 14 -8 14 -12 0 -22 -4 -22 -8z"/>
<path d="M2890 3461 c0 -5 -8 -12 -17 -14 -10 -3 -4 -5 13 -6 17 0 37 6 44 14
11 13 8 15 -14 15 -14 0 -26 -4 -26 -9z"/>
<path d="M4400 3461 c0 -5 -8 -12 -17 -14 -10 -3 -4 -5 13 -6 17 0 37 6 44 14
11 13 8 15 -14 15 -14 0 -26 -4 -26 -9z"/>
<path d="M2663 3453 c-35 -7 -27 -21 10 -18 48 4 49 4 42 15 -6 10 -13 11 -52
3z"/>
<path d="M3316 3256 c-27 -24 -37 -48 -13 -27 8 6 16 8 19 6 3 -3 13 6 22 20
21 32 5 32 -28 1z"/>
<path d="M3526 3253 c-14 -15 -24 -29 -22 -31 7 -6 54 28 60 44 9 23 -11 16
-38 -13z"/>
<path d="M3740 3258 c-27 -29 -26 -41 3 -26 23 14 37 28 37 41 0 14 -19 7 -40
-15z"/>
<path d="M3975 3268 c-21 -12 -35 -28 -35 -42 0 -5 7 -3 15 4 8 7 15 9 15 4 0
-5 7 2 16 14 19 28 16 34 -11 20z"/>
<path d="M3115 3263 c-12 -2 -27 -13 -34 -25 -11 -18 -11 -20 4 -14 9 3 20 6
23 6 4 0 13 9 20 20 7 11 11 19 10 19 -2 -1 -12 -4 -23 -6z"/>
<path d="M4195 3263 c-21 -4 -53 -43 -36 -43 6 0 23 11 38 25 15 13 26 24 23
23 -3 0 -14 -3 -25 -5z"/>
<path d="M2866 3235 c-7 -19 14 -19 40 0 18 14 18 14 -7 15 -15 0 -29 -7 -33
-15z"/>
<path d="M4376 3235 c-3 -10 1 -15 13 -15 10 0 24 7 31 15 11 13 9 15 -13 15
-14 0 -27 -7 -31 -15z"/>
<path d="M2646 3231 c-10 -16 21 -20 41 -6 17 13 16 14 -9 15 -15 0 -29 -4
-32 -9z"/>
<path d="M4592 3231 c-11 -7 -11 -9 2 -14 19 -7 46 1 46 14 0 11 -31 11 -48 0z"/>
<path d="M3521 3044 c-12 -15 -20 -29 -18 -31 9 -8 37 10 43 29 9 31 -2 32
-25 2z"/>
<path d="M3749 3057 c-8 -7 -18 -20 -22 -30 -5 -15 -3 -16 12 -8 10 6 21 20
24 31 3 11 4 20 4 20 -1 0 -9 -6 -18 -13z"/>
<path d="M3310 3047 c-20 -16 -22 -34 -5 -34 7 0 18 11 24 24 12 25 4 29 -19
10z"/>
<path d="M3950 3040 c-12 -12 -20 -24 -17 -26 8 -8 35 7 41 23 10 25 -1 26
-24 3z"/>
<path d="M3088 3039 c-22 -12 -23 -29 -3 -29 8 0 19 9 25 20 12 22 4 25 -22 9z"/>
<path d="M4168 3039 c-22 -12 -23 -29 -3 -29 8 0 19 9 25 20 12 22 4 25 -22 9z"/>
<path d="M2860 3015 c0 -8 4 -15 9 -15 5 0 14 7 21 15 10 13 9 15 -9 15 -12 0
-21 -6 -21 -15z"/>
<path d="M4370 3015 c0 -8 4 -15 9 -15 5 0 14 7 21 15 10 13 9 15 -9 15 -12 0
-21 -6 -21 -15z"/>
<path d="M2640 3010 c0 -13 20 -13 40 0 12 8 9 10 -12 10 -16 0 -28 -4 -28
-10z"/>
<path d="M4587 3009 c8 -8 16 -8 30 0 16 9 14 10 -11 11 -22 0 -27 -3 -19 -11z"/>
<path d="M3511 2827 c-16 -30 -13 -40 8 -28 7 5 11 19 9 31 -3 23 -3 23 -17
-3z"/>
<path d="M3728 2833 c-11 -12 -14 -23 -9 -32 7 -11 11 -9 21 8 16 31 8 46 -12
24z"/>
<path d="M3290 2825 c-6 -8 -9 -19 -5 -25 11 -17 22 -11 27 15 6 28 -3 32 -22
10z"/>
<path d="M3942 2828 c-17 -17 -15 -38 3 -38 9 0 15 9 15 25 0 29 -1 30 -18 13z"/>
<path d="M3077 2816 c-13 -10 -15 -16 -6 -21 10 -7 28 10 29 28 0 9 -2 9 -23
-7z"/>
<path d="M4155 2817 c-14 -11 -15 -16 -5 -22 11 -7 29 9 30 28 0 10 -3 9 -25
-6z"/>
<path d="M2867 2813 c-4 -3 -7 -11 -7 -17 0 -6 5 -5 12 2 6 6 9 14 7 17 -3 3
-9 2 -12 -2z"/>
<path d="M4370 2799 c0 -5 5 -7 10 -4 6 3 10 8 10 11 0 2 -4 4 -10 4 -5 0 -10
-5 -10 -11z"/>
<path d="M3282 2605 c-10 -21 -9 -25 3 -25 9 0 15 10 15 25 0 14 -2 25 -3 25
-2 0 -9 -11 -15 -25z"/>
<path d="M3500 2611 c-13 -26 -13 -31 5 -31 9 0 15 9 15 25 0 30 -6 32 -20 6z"/>
<path d="M3716 2615 c-10 -26 -7 -35 9 -35 17 0 19 18 6 38 -7 11 -10 10 -15
-3z"/>
<path d="M3932 2605 c-10 -21 -9 -25 3 -25 9 0 15 10 15 25 0 14 -2 25 -3 25
-2 0 -9 -11 -15 -25z"/>
<path d="M3066 2595 c-3 -9 0 -15 9 -15 16 0 20 16 6 24 -5 3 -11 -1 -15 -9z"/>
<path d="M4146 2595 c-3 -8 -1 -15 4 -15 6 0 10 7 10 15 0 8 -2 15 -4 15 -2 0
-6 -7 -10 -15z"/>
<path d="M2855 2590 c-3 -5 -1 -10 4 -10 6 0 11 5 11 10 0 6 -2 10 -4 10 -3 0
-8 -4 -11 -10z"/>
<path d="M4365 2590 c-3 -5 -1 -10 4 -10 6 0 11 5 11 10 0 6 -2 10 -4 10 -3 0
-8 -4 -11 -10z"/>
<path d="M900 2339 c0 -11 5 -17 10 -14 6 3 10 13 10 21 0 8 -4 14 -10 14 -5
0 -10 -9 -10 -21z"/>
<path d="M1120 2333 c0 -22 2 -25 10 -13 13 20 13 40 0 40 -5 0 -10 -12 -10
-27z"/>
<path d="M1330 2335 c0 -14 4 -25 9 -25 12 0 23 29 15 41 -10 18 -24 9 -24
-16z"/>
<path d="M1550 2328 l1 -33 13 25 c14 25 13 40 -5 40 -5 0 -9 -15 -9 -32z"/>
<path d="M1760 2346 c0 -22 17 -28 24 -10 9 22 8 24 -9 24 -8 0 -15 -6 -15
-14z"/>
<path d="M1980 2339 c0 -11 5 -17 10 -14 6 3 10 13 10 21 0 8 -4 14 -10 14 -5
0 -10 -9 -10 -21z"/>
<path d="M680 2135 c-8 -9 -8 -15 -2 -15 12 0 26 19 19 26 -2 2 -10 -2 -17
-11z"/>
<path d="M896 2134 c-8 -21 -4 -25 14 -14 11 7 12 12 4 20 -8 8 -13 7 -18 -6z"/>
<path d="M1110 2136 c0 -8 -3 -23 -7 -33 -6 -17 -5 -17 15 1 26 22 27 32 7 40
-9 3 -15 0 -15 -8z"/>
<path d="M1331 2141 c-7 -5 -11 -18 -9 -31 3 -22 3 -22 20 -3 19 20 11 47 -11
34z"/>
<path d="M1760 2131 c-16 -31 -8 -46 12 -24 11 12 14 23 9 32 -7 11 -11 9 -21
-8z"/>
<path d="M1974 2136 c-8 -22 -2 -27 16 -16 12 7 12 12 3 21 -10 10 -14 9 -19
-5z"/>
<path d="M2190 2135 c-8 -9 -8 -15 -2 -15 12 0 26 19 19 26 -2 2 -10 -2 -17
-11z"/>
<path d="M1538 2115 c-3 -14 -2 -25 1 -25 10 0 30 37 24 44 -12 12 -21 6 -25
-19z"/>
<path d="M450 1930 c-12 -8 -11 -10 8 -10 12 0 22 5 22 10 0 13 -11 13 -30 0z"/>
<path d="M664 1919 c-19 -22 -19 -22 6 -14 32 10 36 13 24 25 -7 7 -17 3 -30
-11z"/>
<path d="M2174 1919 c-19 -22 -19 -22 6 -14 32 10 36 13 24 25 -7 7 -17 3 -30
-11z"/>
<path d="M2395 1930 c-3 -5 1 -10 9 -10 9 0 16 5 16 10 0 6 -4 10 -9 10 -6 0
-13 -4 -16 -10z"/>
<path d="M880 1910 c-13 -24 2 -27 24 -4 20 19 20 24 1 24 -8 0 -19 -9 -25
-20z"/>
<path d="M1106 1914 c-23 -22 -20 -37 4 -24 11 6 20 17 20 25 0 19 -5 19 -24
-1z"/>
<path d="M1320 1910 c-11 -11 -20 -25 -20 -30 0 -16 38 12 43 32 6 23 2 23
-23 -2z"/>
<path d="M1536 1914 c-9 -8 -16 -22 -16 -30 0 -12 3 -12 20 -2 11 7 20 21 20
30 0 22 -4 22 -24 2z"/>
<path d="M1749 1909 c-11 -11 -18 -23 -16 -26 9 -9 40 14 43 31 3 21 -2 20
-27 -5z"/>
<path d="M1960 1910 c-13 -24 2 -27 24 -4 20 19 20 24 1 24 -8 0 -19 -9 -25
-20z"/>
<path d="M440 1714 l-25 -13 27 -1 c15 0 29 4 33 9 10 17 -10 20 -35 5z"/>
<path d="M2380 1714 l-25 -13 27 -1 c15 0 29 4 33 9 10 17 -10 20 -35 5z"/>
<path d="M652 1704 c-15 -12 -14 -13 9 -14 15 0 29 6 32 13 7 17 -19 18 -41 1z"/>
<path d="M1097 1698 c-31 -22 -36 -38 -9 -31 17 4 47 41 40 48 -2 2 -15 -6
-31 -17z"/>
<path d="M1754 1707 c-12 -6 -27 -19 -33 -30 -11 -17 -10 -18 11 -11 22 7 47
31 48 47 0 4 -1 6 -2 6 -2 -1 -13 -6 -24 -12z"/>
<path d="M2162 1703 c-15 -12 -14 -13 12 -11 16 2 31 8 33 14 5 15 -24 13 -45
-3z"/>
<path d="M864 1688 c-18 -20 -18 -21 -1 -15 10 4 22 7 27 7 4 0 10 7 14 15 8
23 -18 18 -40 -7z"/>
<path d="M1325 1700 c-3 -5 -2 -10 4 -10 5 0 13 5 16 10 3 6 2 10 -4 10 -5 0
-13 -4 -16 -10z"/>
<path d="M1529 1698 c-8 -7 -21 -21 -28 -30 -10 -14 -9 -16 8 -11 11 3 27 16
36 29 17 26 8 32 -16 12z"/>
<path d="M1941 1689 c-11 -19 -11 -21 4 -15 9 3 20 6 25 6 4 0 10 7 14 15 9
24 -27 18 -43 -6z"/>
<path d="M1291 1679 c-16 -27 -12 -30 17 -15 19 10 21 14 10 24 -11 8 -17 6
-27 -9z"/>
<path d="M2360 1500 c-23 -14 -5 -23 32 -15 29 7 30 9 13 16 -27 10 -28 10
-45 -1z"/>
<path d="M631 1483 c-14 -11 -13 -12 9 -12 14 0 34 6 44 14 19 14 19 15 -8 13
-16 -2 -36 -8 -45 -15z"/>
<path d="M890 1491 c-8 -6 -17 -8 -21 -6 -3 3 -14 -4 -24 -15 -16 -18 -16 -18
7 -13 12 4 25 9 28 13 3 4 14 12 25 18 11 6 16 11 10 12 -5 0 -17 -4 -25 -9z"/>
<path d="M1094 1485 c-17 -8 -37 -21 -45 -31 -13 -15 -12 -16 10 -9 14 4 36
18 50 31 29 27 28 28 -15 9z"/>
<path d="M1309 1484 c-15 -8 -32 -21 -39 -29 -23 -28 14 -17 50 15 36 32 32
37 -11 14z"/>
<path d="M1533 1485 c-11 -8 -23 -12 -26 -9 -3 3 -10 -4 -17 -15 -16 -30 10
-28 45 5 31 28 30 41 -2 19z"/>
<path d="M1739 1484 c-15 -8 -33 -21 -40 -30 -12 -15 -11 -16 9 -10 23 8 83
57 66 55 -5 -1 -21 -7 -35 -15z"/>
<path d="M1970 1491 c-8 -6 -17 -8 -21 -6 -3 3 -14 -4 -24 -15 -16 -18 -16
-18 6 -13 13 4 32 15 43 25 21 19 20 23 -4 9z"/>
<path d="M2141 1483 c-14 -11 -13 -12 9 -12 14 0 34 6 44 14 19 14 19 15 -8
13 -16 -2 -36 -8 -45 -15z"/>
<path d="M668 1280 c-15 -4 -29 -6 -32 -3 -2 3 -15 -2 -28 -11 l-22 -16 31 0
c18 0 35 5 38 10 3 6 15 10 26 10 10 0 19 5 19 10 0 6 -1 10 -2 9 -2 0 -15 -4
-30 -9z"/>
<path d="M1087 1271 c-52 -25 -68 -41 -39 -41 12 0 22 4 22 9 0 5 14 14 30 21
17 7 30 16 30 21 0 5 -1 9 -2 8 -2 0 -20 -9 -41 -18z"/>
<path d="M2178 1280 c-15 -4 -29 -6 -32 -3 -2 3 -15 -2 -28 -11 l-22 -16 31 0
c18 0 35 5 38 10 3 6 15 10 26 10 10 0 19 5 19 10 0 6 -1 10 -2 9 -2 0 -15 -4
-30 -9z"/>
<path d="M2330 1280 c-18 -11 15 -20 50 -13 17 3 32 9 35 13 6 9 -70 10 -85 0z"/>
<path d="M853 1269 c-41 -12 -52 -29 -19 -29 14 0 26 4 26 8 0 5 12 13 28 19
33 13 9 15 -35 2z"/>
<path d="M1304 1265 c-12 -8 -23 -12 -26 -10 -3 3 -13 -4 -23 -15 -16 -17 -16
-20 -2 -20 8 0 22 6 29 14 8 7 27 20 43 29 17 9 23 16 15 17 -9 0 -25 -7 -36
-15z"/>
<path d="M1520 1266 c-14 -8 -28 -12 -32 -10 -4 3 -12 -5 -18 -17 -11 -19 -10
-20 12 -14 12 4 25 11 28 14 3 4 16 15 30 24 29 20 15 22 -20 3z"/>
<path d="M1723 1264 c-39 -17 -51 -34 -24 -34 12 0 21 4 21 8 0 5 15 16 33 25
39 19 15 21 -30 1z"/>
<path d="M1958 1275 c-3 -3 -16 -8 -28 -10 -37 -7 -49 -25 -17 -25 15 0 27 4
27 8 0 5 12 13 28 19 15 6 20 11 11 12 -9 1 -18 -1 -21 -4z"/>
<path d="M2317 1066 l-22 -9 25 -7 c14 -4 30 -3 35 1 6 4 26 9 45 11 32 3 31
4 -13 8 -26 3 -58 1 -70 -4z"/>
<path d="M594 1053 c-16 -12 -16 -13 0 -19 10 -4 22 -2 29 5 6 6 20 11 32 11
11 0 27 5 35 10 11 7 1 9 -32 7 -26 -1 -55 -8 -64 -14z"/>
<path d="M853 1056 c-55 -15 -78 -36 -40 -36 15 0 27 5 27 10 0 6 6 10 13 10
6 1 26 7 42 15 36 16 16 17 -42 1z"/>
<path d="M1080 1053 c-91 -41 -86 -38 -62 -41 12 -2 29 4 38 12 8 9 21 16 28
16 7 0 21 7 32 15 25 19 8 18 -36 -2z"/>
<path d="M1300 1051 c-19 -11 -38 -17 -41 -15 -4 2 -15 -6 -25 -18 -19 -20
-19 -21 6 -13 14 4 27 11 30 14 3 4 20 13 38 20 18 8 35 18 38 22 8 14 -8 10
-46 -10z"/>
<path d="M1507 1050 c-27 -9 -56 -25 -65 -34 -16 -16 -15 -17 13 -10 17 4 32
10 35 14 3 4 20 15 38 24 17 9 32 19 32 21 0 3 -1 4 -2 4 -2 -1 -25 -9 -51
-19z"/>
<path d="M1715 1048 c-63 -24 -78 -38 -42 -38 15 0 27 4 27 9 0 5 18 16 40 25
22 9 40 18 40 21 0 7 -10 5 -65 -17z"/>
<path d="M1933 1056 c-55 -15 -78 -36 -40 -36 15 0 27 4 27 9 0 5 13 12 30 16
16 4 32 11 35 16 7 10 4 10 -52 -5z"/>
<path d="M2160 1063 c-53 -8 -70 -14 -70 -23 0 -13 37 -13 45 0 3 6 16 10 28
10 12 0 29 5 37 10 17 11 11 11 -40 3z"/>
<path d="M688 855 c-3 -3 -28 -7 -56 -9 -48 -4 -107 -25 -73 -26 31 0 141 24
141 32 0 9 -4 10 -12 3z"/>
<path d="M2198 855 c-3 -3 -28 -7 -56 -9 -48 -4 -107 -25 -73 -26 31 0 141 24
141 32 0 9 -4 10 -12 3z"/>
<path d="M2293 849 c-9 -3 -12 -8 -7 -12 12 -7 134 3 134 12 0 8 -105 8 -127
0z"/>
<path d="M833 836 c-54 -15 -78 -36 -41 -36 15 0 28 4 30 9 2 4 23 15 48 24
52 18 26 20 -37 3z"/>
<path d="M1071 835 c-18 -8 -37 -13 -41 -10 -4 3 -19 -4 -31 -15 -31 -25 -9
-26 45 -1 23 10 52 23 66 29 14 6 18 11 10 11 -8 0 -30 -6 -49 -14z"/>
<path d="M1290 834 c-19 -9 -44 -17 -54 -20 -34 -6 -43 -24 -13 -24 15 0 27 5
27 10 0 6 6 10 13 11 6 0 30 9 52 19 48 22 25 26 -25 4z"/>
<path d="M1510 835 c-14 -8 -35 -14 -46 -15 -12 0 -27 -7 -34 -15 -11 -13 -8
-15 13 -15 14 0 27 4 29 9 2 4 23 18 48 29 25 11 38 21 30 21 -8 0 -26 -6 -40
-14z"/>
<path d="M1703 831 c-60 -19 -90 -41 -57 -41 11 0 24 4 30 9 5 5 32 19 59 30
60 24 40 26 -32 2z"/>
<path d="M1930 840 c-14 -4 -37 -11 -52 -14 -16 -4 -28 -11 -28 -16 0 -12 47
-13 52 -1 2 4 23 15 48 24 25 8 36 15 25 15 -11 0 -31 -3 -45 -8z"/>
<path d="M659 636 c-3 -3 -28 -7 -57 -9 -30 -2 -58 -9 -65 -16 -15 -15 1 -14
87 3 69 15 95 26 59 26 -11 0 -22 -2 -24 -4z"/>
<path d="M865 629 c-16 -5 -45 -11 -64 -13 -37 -5 -68 -26 -37 -26 18 0 105
25 141 40 27 12 -1 11 -40 -1z"/>
<path d="M1065 621 c-27 -10 -55 -16 -61 -14 -6 2 -17 -3 -24 -12 -10 -12 -10
-15 0 -15 18 0 133 41 145 52 14 12 -3 9 -60 -11z"/>
<path d="M1290 620 c-25 -10 -55 -19 -66 -19 -12 -1 -27 -8 -34 -16 -11 -13
-8 -15 14 -15 14 0 26 4 26 8 0 4 24 16 53 26 28 11 56 23 62 27 15 14 -5 10
-55 -11z"/>
<path d="M1490 616 c-36 -12 -74 -27 -85 -33 -19 -12 -18 -12 7 -13 15 0 29 4
33 9 3 5 28 17 55 26 27 9 52 21 55 26 4 5 5 9 3 8 -2 -1 -32 -11 -68 -23z"/>
<path d="M1711 619 c-29 -10 -56 -17 -60 -15 -3 2 -15 -2 -26 -10 -18 -13 -18
-14 0 -14 21 0 136 39 150 52 14 12 -3 9 -64 -13z"/>
<path d="M1930 624 c-25 -7 -50 -12 -57 -10 -6 3 -19 -2 -30 -10 -17 -14 -16
-15 12 -10 47 7 119 28 130 37 13 12 -1 11 -55 -7z"/>
<path d="M2140 629 c-19 -4 -42 -6 -51 -4 -8 3 -24 -2 -35 -10 -14 -11 -15
-14 -4 -15 22 0 151 28 158 34 7 8 -26 6 -68 -5z"/>
<path d="M2270 630 c-24 -15 25 -17 95 -4 l70 12 -76 0 c-42 0 -82 -4 -89 -8z"/>
<path d="M2258 423 c-10 -2 -18 -8 -18 -13 0 -8 170 -2 179 6 2 2 -23 4 -57 4
-33 0 -66 2 -74 4 -7 2 -21 2 -30 -1z"/>
<path d="M595 413 c-22 -2 -51 -6 -65 -9 l-25 -6 23 -9 c13 -5 29 -6 35 -2 7
4 41 12 77 19 63 11 43 15 -45 7z"/>
<path d="M845 409 c-16 -5 -44 -11 -62 -13 -17 -2 -40 -9 -50 -15 -16 -9 -16
-10 5 -11 20 0 68 12 152 40 36 12 -6 11 -45 -1z"/>
<path d="M1045 403 c-33 -9 -71 -20 -85 -26 -21 -9 -22 -11 -7 -15 10 -2 26 0
35 4 9 4 46 17 82 30 75 25 62 29 -25 7z"/>
<path d="M1275 404 c-22 -9 -49 -17 -60 -18 -31 -5 -55 -17 -55 -28 0 -12 5
-10 115 31 44 16 71 30 60 30 -11 0 -38 -7 -60 -15z"/>
<path d="M1495 404 c-22 -8 -53 -17 -69 -19 -16 -2 -36 -11 -45 -19 -14 -15
-13 -16 5 -16 11 0 24 4 30 9 5 5 39 18 77 31 63 20 83 31 55 29 -7 0 -31 -7
-53 -15z"/>
<path d="M1710 405 c-19 -7 -47 -14 -61 -14 -14 -1 -34 -8 -45 -16 -18 -14
-18 -14 7 -15 14 0 29 3 33 8 4 4 37 17 74 28 37 12 58 22 47 22 -11 0 -36 -6
-55 -13z"/>
<path d="M1925 409 c-16 -5 -44 -11 -62 -13 -17 -2 -40 -9 -50 -15 -16 -9 -16
-10 5 -11 20 0 68 12 152 40 36 12 -6 11 -45 -1z"/>
<path d="M2139 416 c-3 -4 -27 -7 -114 -16 -5 0 -2 -5 8 -11 12 -7 28 -7 50 0
17 6 55 15 82 20 46 8 47 9 14 10 -20 0 -38 -1 -40 -3z"/>
<path d="M3490 2398 c0 -15 4 -29 9 -33 17 -10 20 10 5 35 l-13 25 -1 -27z"/>
<path d="M3276 2395 c-10 -26 -7 -35 9 -35 17 0 19 18 6 38 -7 11 -10 10 -15
-3z"/>
<path d="M3706 2395 c-8 -22 3 -40 16 -27 7 7 7 16 1 27 -9 16 -10 16 -17 0z"/>
<path d="M3920 2388 c0 -16 4 -28 9 -28 18 0 20 17 6 36 -14 18 -14 18 -15 -8z"/>
<path d="M3060 2383 c0 -13 5 -23 10 -23 13 0 13 11 0 30 -8 12 -10 11 -10 -7z"/>
<path d="M4140 2383 c0 -13 5 -23 10 -23 13 0 13 11 0 30 -8 12 -10 11 -10 -7z"/>
<path d="M3260 2188 c0 -8 6 -22 13 -32 12 -16 15 -17 20 -3 3 8 -3 23 -14 33
-15 14 -19 14 -19 2z"/>
<path d="M3480 2176 c0 -16 5 -26 15 -26 8 0 15 6 15 14 0 7 -7 19 -15 26 -13
11 -15 8 -15 -14z"/>
<path d="M3690 2192 c0 -18 12 -42 21 -42 14 0 10 26 -6 40 -9 8 -15 8 -15 2z"/>
<path d="M3910 2172 c0 -11 7 -22 15 -26 9 -3 15 0 15 8 0 7 -7 19 -15 26 -12
10 -15 9 -15 -8z"/>
<path d="M3050 2167 c0 -19 16 -31 24 -18 3 5 -1 14 -9 21 -12 10 -15 10 -15
-3z"/>
<path d="M4130 2161 c0 -11 4 -21 9 -21 18 0 21 18 6 30 -13 10 -15 9 -15 -9z"/>
<path d="M2836 2156 c3 -9 11 -16 16 -16 13 0 5 23 -10 28 -7 2 -10 -2 -6 -12z"/>
<path d="M4347 2154 c3 -7 9 -14 14 -14 14 0 10 17 -5 23 -10 4 -13 1 -9 -9z"/>
<path d="M3460 1977 c0 -17 26 -47 41 -47 12 0 -4 32 -25 50 -13 10 -16 10
-16 -3z"/>
<path d="M3677 1970 c3 -12 15 -26 26 -31 17 -10 19 -9 14 6 -4 9 -7 18 -7 20
0 3 -9 9 -19 14 -16 9 -18 8 -14 -9z"/>
<path d="M3251 1957 c6 -13 17 -24 24 -24 17 0 15 18 -5 34 -23 19 -31 15 -19
-10z"/>
<path d="M3890 1970 c0 -12 29 -40 41 -40 14 0 -7 36 -26 44 -8 3 -15 1 -15
-4z"/>
<path d="M3030 1961 c0 -10 22 -31 32 -31 17 0 7 28 -12 33 -11 3 -20 2 -20
-2z"/>
<path d="M4113 1955 c4 -9 7 -19 7 -21 0 -2 7 -4 15 -4 22 0 18 18 -7 31 -18
10 -20 9 -15 -6z"/>
<path d="M2826 1939 c9 -10 21 -16 25 -13 16 10 9 22 -16 27 -24 4 -25 3 -9
-14z"/>
<path d="M4336 1939 c9 -10 21 -16 25 -13 16 10 9 22 -16 27 -24 4 -25 3 -9
-14z"/>
<path d="M2610 1930 c19 -13 30 -13 30 0 0 6 -10 10 -22 10 -19 0 -20 -2 -8
-10z"/>
<path d="M4550 1930 c19 -13 30 -13 30 0 0 6 -10 10 -22 10 -19 0 -20 -2 -8
-10z"/>
<path d="M3227 1753 c3 -7 19 -21 35 -29 l29 -15 -16 24 c-18 28 -57 44 -48
20z"/>
<path d="M3446 1756 c6 -16 53 -50 60 -44 5 6 -45 58 -56 58 -5 0 -7 -6 -4
-14z"/>
<path d="M3660 1763 c0 -13 14 -27 38 -41 28 -15 29 -3 2 26 -21 22 -40 29
-40 15z"/>
<path d="M3870 1761 c0 -10 59 -56 65 -50 2 2 -2 11 -8 20 -16 21 -57 43 -57
30z"/>
<path d="M3012 1748 c5 -14 50 -40 56 -33 6 6 -20 30 -41 38 -13 5 -17 3 -15
-5z"/>
<path d="M4095 1740 c9 -10 25 -20 35 -23 16 -4 17 -2 7 13 -6 10 -21 20 -34
23 -22 4 -23 3 -8 -13z"/>
<path d="M2810 1725 c7 -8 21 -15 32 -15 17 0 18 3 8 15 -7 8 -21 15 -32 15
-17 0 -18 -3 -8 -15z"/>
<path d="M4316 1725 c10 -8 27 -15 38 -15 15 0 16 3 6 15 -7 8 -24 15 -38 15
-25 0 -25 -1 -6 -15z"/>
<path d="M2595 1715 c20 -16 37 -16 36 0 0 6 -13 11 -28 13 -27 2 -27 2 -8
-13z"/>
<path d="M4535 1715 c20 -16 37 -16 36 0 0 6 -13 11 -28 13 -27 2 -27 2 -8
-13z"/>
<path d="M3422 1550 c5 -15 55 -48 73 -49 6 0 0 8 -12 18 -12 10 -19 21 -16
25 4 3 1 6 -5 6 -5 0 -18 3 -28 7 -11 4 -15 2 -12 -7z"/>
<path d="M3639 1546 c14 -17 63 -46 77 -46 14 0 -46 49 -68 56 -21 6 -21 5 -9
-10z"/>
<path d="M3210 1541 c0 -10 18 -24 35 -27 6 -1 19 -6 30 -10 13 -5 9 2 -11 19
-32 28 -54 34 -54 18z"/>
<path d="M3865 1530 c10 -11 21 -17 26 -15 4 3 10 1 14 -5 3 -5 12 -10 18 -10
7 0 -1 11 -17 25 -36 31 -68 35 -41 5z"/>
<path d="M3000 1526 c8 -7 28 -17 45 -21 l30 -7 -27 21 c-31 24 -73 31 -48 7z"/>
<path d="M4080 1527 c18 -16 70 -39 70 -31 0 12 -46 43 -65 44 -17 0 -17 -2
-5 -13z"/>
<path d="M2784 1515 c11 -8 31 -14 45 -14 17 1 20 3 9 6 -10 2 -18 9 -18 14 0
5 -12 9 -27 9 -27 -1 -27 -1 -9 -15z"/>
<path d="M4294 1515 c11 -8 31 -14 45 -14 17 1 20 3 9 6 -10 2 -18 9 -18 14 0
5 -12 9 -27 9 -27 -1 -27 -1 -9 -15z"/>
<path d="M2576 1511 c-18 -7 -18 -8 -2 -14 10 -4 30 -7 44 -7 26 1 26 1 8 15
-22 17 -23 17 -50 6z"/>
<path d="M4516 1511 c-18 -7 -18 -8 -2 -14 10 -4 30 -7 44 -7 26 1 26 1 8 15
-22 17 -23 17 -50 6z"/>
<path d="M3195 1320 c10 -11 20 -18 23 -15 2 2 18 -3 34 -11 48 -25 43 -9 -6
20 -54 31 -77 34 -51 6z"/>
<path d="M3405 1330 c5 -9 90 -50 103 -50 3 0 -14 14 -36 30 -40 29 -80 41
-67 20z"/>
<path d="M3626 1330 c15 -15 87 -50 92 -46 2 3 -10 12 -27 21 -17 8 -31 20
-31 25 0 6 -10 10 -22 10 -15 0 -19 -3 -12 -10z"/>
<path d="M3840 1325 c7 -9 15 -13 17 -11 7 7 -7 26 -19 26 -6 0 -6 -6 2 -15z"/>
<path d="M2980 1313 c13 -9 31 -18 40 -19 8 -1 23 -5 33 -9 33 -14 17 3 -23
24 -51 26 -86 29 -50 4z"/>
<path d="M3870 1321 c0 -12 59 -45 67 -38 2 3 -5 8 -16 12 -12 3 -28 13 -36
21 -8 9 -15 11 -15 5z"/>
<path d="M4059 1312 c13 -9 29 -17 36 -18 7 -1 22 -5 34 -9 37 -11 23 4 -23
25 -54 24 -80 26 -47 2z"/>
<path d="M2763 1299 c10 -6 37 -13 60 -15 l42 -3 -35 14 c-19 7 -46 14 -60 14
-22 0 -23 -1 -7 -10z"/>
<path d="M4273 1299 c10 -6 37 -13 60 -15 l42 -3 -35 14 c-19 7 -46 14 -60 14
-22 0 -23 -1 -7 -10z"/>
<path d="M4490 1292 c0 -16 24 -21 61 -12 19 4 27 8 18 9 -9 1 -31 4 -48 7
-18 4 -31 2 -31 -4z"/>
<path d="M3395 1110 c10 -11 20 -18 23 -15 2 2 22 -5 43 -16 57 -29 47 -9 -11
24 -59 32 -80 35 -55 7z"/>
<path d="M3605 1110 c10 -11 21 -17 26 -14 5 2 26 -5 49 -16 22 -11 40 -16 40
-11 0 5 -15 15 -34 21 -19 6 -40 18 -46 26 -7 7 -22 14 -33 14 -19 0 -19 -1
-2 -20z"/>
<path d="M3177 1109 c12 -12 113 -51 113 -44 0 2 -21 15 -46 29 -49 27 -88 36
-67 15z"/>
<path d="M3816 1111 c14 -14 114 -52 114 -43 0 11 -82 52 -104 52 -13 0 -16
-3 -10 -9z"/>
<path d="M2956 1100 c6 -6 23 -13 37 -16 15 -2 38 -9 52 -14 14 -5 25 -6 25
-1 0 5 -13 12 -30 16 -16 4 -32 11 -35 16 -4 5 -18 9 -33 9 -18 0 -23 -3 -16
-10z"/>
<path d="M4040 1095 c7 -9 18 -14 24 -12 6 2 28 -2 49 -9 20 -7 37 -9 37 -4 0
4 -13 11 -30 15 -16 4 -32 11 -35 16 -4 5 -18 9 -32 9 -22 0 -24 -2 -13 -15z"/>
<path d="M2737 1090 c6 -7 26 -14 45 -16 18 -2 44 -6 56 -9 13 -3 21 -2 18 3
-5 9 -20 13 -98 28 -26 5 -31 4 -21 -6z"/>
<path d="M4247 1090 c6 -7 23 -14 37 -15 13 -2 39 -6 56 -10 21 -5 30 -4 26 3
-5 9 -20 13 -98 28 -26 5 -31 4 -21 -6z"/>
<path d="M4475 1081 l-20 -8 20 -5 c34 -10 113 -8 90 1 -37 15 -70 19 -90 12z"/>
<path d="M3150 895 c7 -8 20 -15 30 -15 10 0 34 -7 55 -16 20 -8 42 -13 48
-11 7 2 -12 12 -40 21 -29 10 -53 22 -53 27 0 5 -12 9 -26 9 -22 0 -25 -2 -14
-15z"/>
<path d="M3366 900 c6 -6 19 -12 30 -14 10 -3 36 -12 58 -21 21 -9 40 -14 43
-11 5 5 -62 36 -78 36 -5 0 -9 5 -9 10 0 6 -12 10 -27 10 -18 0 -24 -3 -17
-10z"/>
<path d="M3590 895 c7 -8 22 -15 34 -15 11 -1 32 -7 46 -15 14 -8 32 -14 40
-14 18 0 -100 59 -119 59 -11 0 -11 -3 -1 -15z"/>
<path d="M3805 890 c10 -11 21 -17 25 -15 4 3 29 -3 54 -11 26 -9 49 -14 51
-12 3 2 -18 12 -45 22 -28 10 -50 22 -50 27 0 5 -12 9 -27 9 -25 0 -26 -1 -8
-20z"/>
<path d="M2935 887 c22 -15 125 -40 133 -33 2 3 -16 10 -42 17 -25 6 -46 15
-46 20 0 5 -15 9 -32 9 -30 0 -31 -1 -13 -13z"/>
<path d="M4007 889 c11 -11 133 -42 140 -36 2 3 -17 10 -42 17 -25 7 -48 17
-51 21 -3 5 -17 9 -32 9 -18 0 -23 -3 -15 -11z"/>
<path d="M2725 881 l-20 -8 20 -6 c11 -3 47 -8 80 -11 l60 -5 -52 11 c-29 6
-53 15 -53 19 0 11 -8 10 -35 0z"/>
<path d="M4240 880 c-23 -6 -24 -6 -5 -14 11 -4 47 -9 80 -11 l60 -3 -50 10
c-27 6 -52 14 -55 18 -3 3 -16 4 -30 0z"/>
<path d="M4446 862 c-8 -14 21 -18 84 -11 42 4 46 6 19 7 -20 1 -50 5 -67 8
-16 3 -32 2 -36 -4z"/>
<path d="M3346 685 c10 -8 26 -15 34 -15 8 0 39 -9 68 -20 30 -11 51 -16 48
-11 -4 5 -29 17 -56 26 -28 9 -50 21 -50 26 0 5 -14 9 -32 9 -30 0 -31 -1 -12
-15z"/>
<path d="M3554 691 c3 -5 36 -19 73 -31 38 -11 74 -24 82 -27 8 -3 11 -1 8 4
-3 5 -31 18 -61 28 -31 11 -56 23 -56 27 0 4 -12 8 -26 8 -14 0 -23 -4 -20 -9z"/>
<path d="M3135 676 c11 -8 23 -12 26 -10 4 2 33 -5 64 -16 32 -11 60 -18 63
-15 3 2 -1 7 -9 9 -8 3 -39 14 -69 26 -30 11 -64 20 -74 20 -20 0 -20 0 -1
-14z"/>
<path d="M3784 675 c10 -8 22 -12 26 -10 4 3 34 -4 65 -15 32 -11 60 -18 62
-16 2 2 -20 12 -49 21 -29 10 -57 21 -62 26 -6 5 -21 9 -35 9 -25 -1 -25 -1
-7 -15z"/>
<path d="M2924 665 c10 -8 22 -12 26 -10 4 2 31 -2 60 -10 30 -8 56 -12 58
-10 3 3 -1 6 -9 9 -8 2 -37 11 -66 20 -28 9 -60 16 -70 16 -17 -1 -17 -1 1
-15z"/>
<path d="M4000 666 c14 -8 27 -13 31 -11 3 2 30 -2 59 -10 30 -8 56 -12 58
-10 5 5 -1 8 -80 29 -72 20 -103 21 -68 2z"/>
<path d="M2697 659 c7 -7 28 -13 48 -15 20 -1 55 -6 78 -9 63 -11 41 1 -36 19
-83 19 -106 21 -90 5z"/>
<path d="M4207 659 c7 -7 28 -13 48 -15 20 -1 55 -5 78 -8 48 -7 22 4 -56 23
-62 15 -85 15 -70 0z"/>
<path d="M4428 649 l-23 -6 25 -7 c14 -4 55 -6 90 -4 l65 3 -67 10 c-36 6 -77
7 -90 4z"/>
<path d="M3106 470 c12 -12 162 -52 177 -47 6 2 -20 11 -56 21 -37 10 -70 22
-73 27 -3 5 -17 9 -32 9 -17 0 -23 -3 -16 -10z"/>
<path d="M3327 469 c6 -6 21 -12 34 -13 13 -2 48 -11 77 -20 29 -10 56 -16 58
-13 6 5 -146 57 -168 57 -8 0 -9 -3 -1 -11z"/>
<path d="M3550 465 c7 -8 16 -13 20 -10 4 3 34 -4 65 -15 91 -31 99 -22 10 10
-93 34 -114 37 -95 15z"/>
<path d="M3756 465 c10 -8 28 -15 40 -15 11 0 41 -7 67 -16 26 -9 52 -14 59
-12 7 3 -18 13 -55 24 -37 10 -67 22 -67 26 0 5 -14 8 -32 8 -30 0 -31 -1 -12
-15z"/>
<path d="M2887 460 c6 -7 26 -14 43 -16 17 -2 56 -10 86 -18 30 -8 54 -11 54
-7 0 7 -102 36 -165 48 -24 4 -28 3 -18 -7z"/>
<path d="M3974 455 c11 -8 31 -15 45 -15 14 0 50 -7 79 -14 28 -8 52 -11 52
-6 0 4 -28 13 -62 20 -35 7 -67 17 -72 21 -6 5 -21 9 -35 9 -25 -1 -25 -1 -7
-15z"/>
<path d="M2685 450 c-19 -7 -18 -8 5 -13 58 -12 160 -23 160 -16 0 4 -27 10
-60 14 -33 4 -63 11 -66 16 -6 11 -12 10 -39 -1z"/>
<path d="M4195 450 c-19 -7 -18 -8 5 -13 58 -13 160 -23 160 -16 0 4 -29 11
-65 14 -36 4 -65 11 -65 16 0 11 -8 10 -35 -1z"/>
<path d="M4400 430 c-13 -9 -13 -10 0 -10 118 -5 180 -5 180 2 0 4 -28 8 -62
8 -35 0 -72 3 -83 5 -11 3 -27 1 -35 -5z"/>
<path d="M258 4550 c26 -11 29 -30 5 -30 -15 0 -15 -1 2 -13 22 -17 11 -41
-16 -34 -11 3 -19 1 -19 -4 0 -15 46 -10 60 6 6 8 8 20 4 27 -5 7 -8 22 -9 33
0 14 -8 21 -25 22 -25 3 -25 3 -2 -7z"/>
<path d="M236 3872 c-3 -6 2 -8 13 -5 31 8 35 -17 7 -46 -34 -35 -33 -41 7
-40 25 1 27 3 9 6 l-24 5 22 23 c12 13 20 31 18 42 -3 19 -42 30 -52 15z"/>
<path d="M240 3189 c0 -5 5 -7 10 -4 6 4 10 -10 10 -34 0 -22 -5 -42 -12 -44
-7 -3 3 -5 22 -5 19 0 27 2 18 5 -14 3 -18 15 -18 49 0 32 -4 44 -15 44 -8 0
-15 -5 -15 -11z"/>
<path d="M242 2498 c-17 -17 -15 -63 4 -79 22 -18 48 0 52 35 6 45 -29 71 -56
44z m38 -18 c11 -21 -2 -60 -20 -60 -13 0 -22 37 -15 60 3 11 10 20 15 20 5 0
14 -9 20 -20z"/>
<path d="M225 1820 c-4 -6 -1 -9 7 -8 8 2 14 -10 16 -34 2 -28 -1 -37 -15 -41
-10 -3 -2 -5 17 -5 19 0 29 2 23 5 -8 3 -13 23 -13 49 0 32 -4 44 -14 44 -8 0
-18 -5 -21 -10z"/>
<path d="M133 1773 c15 -2 37 -2 50 0 12 2 0 4 -28 4 -27 0 -38 -2 -22 -4z"/>
<path d="M220 1141 c0 -5 8 -7 19 -4 30 8 33 -13 6 -45 -32 -39 -32 -42 8 -41
23 1 26 3 10 6 l-23 4 22 29 c11 16 18 36 15 44 -7 17 -57 23 -57 7z"/>
<path d="M133 1093 c15 -2 37 -2 50 0 12 2 0 4 -28 4 -27 0 -38 -2 -22 -4z"/>
<path d="M238 452 c28 -8 30 -24 6 -32 -16 -6 -15 -7 5 -13 28 -7 23 -29 -10
-39 -22 -6 -21 -7 6 -5 29 2 30 4 30 47 0 43 -1 45 -30 47 -25 2 -26 1 -7 -5z"/>
<path d="M133 403 c15 -2 37 -2 50 0 12 2 0 4 -28 4 -27 0 -38 -2 -22 -4z"/>
<path d="M528 222 c28 -8 30 -24 6 -32 -16 -6 -15 -7 5 -13 28 -7 23 -29 -10
-39 -22 -6 -21 -7 6 -5 29 2 30 4 30 47 0 43 -1 45 -30 47 -25 2 -26 1 -7 -5z"/>
<path d="M1190 221 c0 -5 8 -7 19 -4 30 8 33 -13 6 -45 -32 -39 -32 -42 8 -41
23 1 26 3 10 6 l-23 4 22 29 c11 16 18 36 15 44 -7 17 -57 23 -57 7z"/>
<path d="M1875 220 c-4 -6 -1 -9 7 -8 8 2 14 -10 16 -34 2 -28 -1 -37 -15 -41
-10 -3 -2 -5 17 -5 19 0 29 2 23 5 -8 3 -13 23 -13 49 0 32 -4 44 -14 44 -8 0
-18 -5 -21 -10z"/>
<path d="M2522 218 c-17 -17 -15 -63 4 -79 22 -18 48 0 52 35 6 45 -29 71 -56
44z m38 -18 c11 -21 -2 -60 -20 -60 -5 0 -12 9 -15 20 -7 23 2 60 15 60 5 0
14 -9 20 -20z"/>
<path d="M3200 219 c0 -5 5 -7 10 -4 6 4 10 -10 10 -34 0 -22 -5 -42 -12 -44
-7 -3 3 -5 22 -5 19 0 27 2 18 5 -14 3 -18 15 -18 49 0 32 -4 44 -15 44 -8 0
-15 -5 -15 -11z"/>
<path d="M3876 222 c-3 -6 2 -8 13 -5 31 8 35 -17 7 -46 -34 -35 -33 -41 7
-40 25 1 27 3 9 6 l-24 5 22 23 c12 13 20 31 18 42 -3 19 -42 30 -52 15z"/>
<path d="M4578 220 c26 -11 29 -30 5 -30 -15 0 -15 -1 2 -13 22 -17 11 -41
-16 -34 -11 3 -19 1 -19 -4 0 -15 46 -10 60 6 6 8 8 20 4 27 -5 7 -8 22 -9 33
0 14 -8 21 -25 22 -25 3 -25 3 -2 -7z"/>
<path d="M423 173 c15 -2 37 -2 50 0 12 2 0 4 -28 4 -27 0 -38 -2 -22 -4z"/>
<path d="M1103 173 c15 -2 37 -2 50 0 12 2 0 4 -28 4 -27 0 -38 -2 -22 -4z"/>
<path d="M1783 173 c15 -2 37 -2 50 0 12 2 0 4 -28 4 -27 0 -38 -2 -22 -4z"/>
</g>
</svg>
