<?xml version="1.0" encoding="UTF-8" standalone="no"?>
<!DOCTYPE svg PUBLIC "-//W3C//DTD SVG 1.1//EN" "http://www.w3.org/Graphics/SVG/1.1/DTD/svg11.dtd">
<svg xmlns="http://www.w3.org/2000/svg" xmlns:xlink="http://www.w3.org/1999/xlink" version="1.1" width="114.183pt" height="85.438pt" viewBox="0 0 114.183 85.438">
<g enable-background="new">
<path transform="matrix(1,0,0,-1,57.091,42.719)" stroke-width=".79701" stroke-linecap="butt" stroke-miterlimit="10" stroke-linejoin="miter" fill="none" stroke="#000000" d="M -56.69362 0 L 56.69362 0 "/>
<path transform="matrix(1,0,0,-1,57.091,42.719)" d="M -42.5202 14.17339 L 42.5202 -14.17339 L 42.5202 14.17339 L -42.5202 -14.17339 L -42.5202 14.17339 "/>
<path transform="matrix(1,0,0,-1,57.091,42.719)" stroke-width=".3985" stroke-linecap="butt" stroke-miterlimit="10" stroke-linejoin="miter" fill="none" stroke="#000000" d="M -42.5202 14.17339 L 42.5202 -14.17339 L 42.5202 14.17339 L -42.5202 -14.17339 L -42.5202 14.17339 "/>
<path transform="matrix(1,0,0,-1,57.091,42.719)" d="M -14.17339 42.5202 L 14.17339 -42.5202 L -14.17339 -42.5202 L 14.17339 42.5202 L -14.17339 42.5202 "/>
<path transform="matrix(1,0,0,-1,57.091,42.719)" stroke-width=".3985" stroke-linecap="butt" stroke-miterlimit="10" stroke-linejoin="miter" fill="none" stroke="#000000" d="M -14.17339 42.5202 L 14.17339 -42.5202 L -14.17339 -42.5202 L 14.17339 42.5202 L -14.17339 42.5202 "/>
<path transform="matrix(1,0,0,-1,57.091,42.719)" stroke-width="1.59404" stroke-linecap="butt" stroke-miterlimit="10" stroke-linejoin="miter" fill="none" stroke="#0000ff" d="M -7.08669 -28.3468 L 5.88118 -28.3468 "/>
<path transform="matrix(1,0,0,-1,62.97218,71.0658)" stroke-width="1.27522" stroke-linecap="round" stroke-linejoin="round" fill="none" stroke="#0000ff" d="M -2.27148 3.02866 C -2.0822 1.8929 0 .18927 .56786 0 C 0 -.18927 -2.0822 -1.8929 -2.27148 -3.02866 "/>
<path transform="matrix(1,0,0,-1,57.091,42.719)" stroke-width="1.59404" stroke-linecap="butt" stroke-miterlimit="10" stroke-linejoin="miter" fill="none" stroke="#0000ff" d="M -14.17339 -14.17339 L 12.9679 -14.17339 "/>
<path transform="matrix(1,0,0,-1,70.0589,56.89239)" stroke-width="1.27522" stroke-linecap="round" stroke-linejoin="round" fill="none" stroke="#0000ff" d="M -2.27148 3.02866 C -2.0822 1.8929 0 .18927 .56786 0 C 0 -.18927 -2.0822 -1.8929 -2.27148 -3.02866 "/>
<path transform="matrix(1,0,0,-1,57.091,42.719)" stroke-width="1.59404" stroke-linecap="butt" stroke-miterlimit="10" stroke-linejoin="miter" fill="none" stroke="#0000ff" d="M -21.2601 14.17339 L 20.0546 14.17339 "/>
<path transform="matrix(1,0,0,-1,77.1456,28.545613)" stroke-width="1.27522" stroke-linecap="round" stroke-linejoin="round" fill="none" stroke="#0000ff" d="M -2.27148 3.02866 C -2.0822 1.8929 0 .18927 .56786 0 C 0 -.18927 -2.0822 -1.8929 -2.27148 -3.02866 "/>
<path transform="matrix(1,0,0,-1,57.091,42.719)" stroke-width="1.59404" stroke-linecap="butt" stroke-miterlimit="10" stroke-linejoin="miter" fill="none" stroke="#0000ff" d="M -28.3468 28.3468 L 27.1413 28.3468 "/>
<path transform="matrix(1,0,0,-1,84.2323,14.372202)" stroke-width="1.27522" stroke-linecap="round" stroke-linejoin="round" fill="none" stroke="#0000ff" d="M -2.27148 3.02866 C -2.0822 1.8929 0 .18927 .56786 0 C 0 -.18927 -2.0822 -1.8929 -2.27148 -3.02866 "/>
</g>
</svg>
