<?xml version="1.0" encoding="UTF-8" standalone="no"?>
<!DOCTYPE svg PUBLIC "-//W3C//DTD SVG 1.1//EN" "http://www.w3.org/Graphics/SVG/1.1/DTD/svg11.dtd">
<svg xmlns="http://www.w3.org/2000/svg" xmlns:xlink="http://www.w3.org/1999/xlink" version="1.1" width="114.183pt" height="85.438pt" viewBox="0 0 114.183 85.438">
<g enable-background="new">
<path transform="matrix(1,0,0,-1,57.091,42.719)" stroke-width=".79701" stroke-linecap="butt" stroke-miterlimit="10" stroke-linejoin="miter" fill="none" stroke="#000000" d="M -56.69362 0 L 56.69362 0 "/>
<path transform="matrix(1,0,0,-1,57.091,42.719)" d="M -42.5202 14.17339 L 42.5202 -14.17339 L 42.5202 14.17339 L -42.5202 -14.17339 L -42.5202 14.17339 "/>
<path transform="matrix(1,0,0,-1,57.091,42.719)" stroke-width=".3985" stroke-linecap="butt" stroke-miterlimit="10" stroke-linejoin="miter" fill="none" stroke="#000000" d="M -42.5202 14.17339 L 42.5202 -14.17339 L 42.5202 14.17339 L -42.5202 -14.17339 L -42.5202 14.17339 "/>
<path transform="matrix(1,0,0,-1,57.091,42.719)" d="M -14.17339 42.5202 L 14.17339 -42.5202 L -14.17339 -42.5202 L 14.17339 42.5202 L -14.17339 42.5202 "/>
<path transform="matrix(1,0,0,-1,57.091,42.719)" stroke-width=".3985" stroke-linecap="butt" stroke-miterlimit="10" stroke-linejoin="miter" fill="none" stroke="#000000" d="M -14.17339 42.5202 L 14.17339 -42.5202 L -14.17339 -42.5202 L 14.17339 42.5202 L -14.17339 42.5202 "/>
<path transform="matrix(1,0,0,-1,57.091,42.719)" stroke-width="1.59404" stroke-linecap="butt" stroke-miterlimit="10" stroke-linejoin="miter" fill="none" stroke="#0000ff" d="M -28.3468 -7.08669 L -28.3468 5.88118 "/>
<path transform="matrix(0,-1,-1,-0,28.7442,36.837823)" stroke-width="1.27522" stroke-linecap="round" stroke-linejoin="round" fill="none" stroke="#0000ff" d="M -2.27148 3.02866 C -2.0822 1.8929 0 .18927 .56786 0 C 0 -.18927 -2.0822 -1.8929 -2.27148 -3.02866 "/>
<path transform="matrix(1,0,0,-1,57.091,42.719)" stroke-width="1.59404" stroke-linecap="butt" stroke-miterlimit="10" stroke-linejoin="miter" fill="none" stroke="#0000ff" d="M -14.17339 -14.17339 L -14.17339 12.9679 "/>
<path transform="matrix(0,-1,-1,-0,42.91761,29.751103)" stroke-width="1.27522" stroke-linecap="round" stroke-linejoin="round" fill="none" stroke="#0000ff" d="M -2.27148 3.02866 C -2.0822 1.8929 0 .18927 .56786 0 C 0 -.18927 -2.0822 -1.8929 -2.27148 -3.02866 "/>
<path transform="matrix(1,0,0,-1,57.091,42.719)" stroke-width="1.59404" stroke-linecap="butt" stroke-miterlimit="10" stroke-linejoin="miter" fill="none" stroke="#0000ff" d="M 14.17339 -21.2601 L 14.17339 20.0546 "/>
<path transform="matrix(0,-1,-1,-0,71.26439,22.664402)" stroke-width="1.27522" stroke-linecap="round" stroke-linejoin="round" fill="none" stroke="#0000ff" d="M -2.27148 3.02866 C -2.0822 1.8929 0 .18927 .56786 0 C 0 -.18927 -2.0822 -1.8929 -2.27148 -3.02866 "/>
<path transform="matrix(1,0,0,-1,57.091,42.719)" stroke-width="1.59404" stroke-linecap="butt" stroke-miterlimit="10" stroke-linejoin="miter" fill="none" stroke="#0000ff" d="M 28.3468 -28.3468 L 28.3468 27.1413 "/>
<path transform="matrix(0,-1,-1,-0,85.4378,15.577702)" stroke-width="1.27522" stroke-linecap="round" stroke-linejoin="round" fill="none" stroke="#0000ff" d="M -2.27148 3.02866 C -2.0822 1.8929 0 .18927 .56786 0 C 0 -.18927 -2.0822 -1.8929 -2.27148 -3.02866 "/>
</g>
</svg>
