<?xml version="1.0" encoding="UTF-8" standalone="no"?>
<!DOCTYPE svg PUBLIC "-//W3C//DTD SVG 1.1//EN" "http://www.w3.org/Graphics/SVG/1.1/DTD/svg11.dtd">
<svg xmlns="http://www.w3.org/2000/svg" xmlns:xlink="http://www.w3.org/1999/xlink" version="1.1" width="67.402pt" height="64.81pt" viewBox="0 0 67.402 64.81">
<g enable-background="new">
<path transform="matrix(1,0,0,-1,13.7,52.871999)" stroke-width=".19925" stroke-linecap="butt" stroke-miterlimit="10" stroke-linejoin="miter" fill="none" stroke="#cbcbcb" d="M 0 0 L 42.5202 0 M 0 28.3468 L 42.5202 28.3468 M 0 0 L 0 42.5202 M 28.3468 0 L 28.3468 42.5202 M 42.5202 42.5202 "/>
<path transform="matrix(1,0,0,-1,13.7,52.871999)" stroke-width="1.19553" stroke-linecap="butt" stroke-miterlimit="10" stroke-linejoin="miter" fill="none" stroke="#000000" d="M 0 0 L 41.56378 0 "/>
<path transform="matrix(1,0,0,-1,55.263784,52.871999)" stroke-width=".9564" stroke-linecap="round" stroke-linejoin="round" fill="none" stroke="#000000" d="M -1.91284 2.55046 C -1.75343 1.59402 0 .15938 .4782 0 C 0 -.15938 -1.75343 -1.59402 -1.91284 -2.55046 "/>
<text xml:space="preserve" transform="matrix(1 0 -0 1 0 64.81)" font-size="4.9813" font-family="CMMI5" font-style="italic"><tspan y="-5.875" x="60.138">x</tspan></text>
<path transform="matrix(1,0,0,-1,13.7,52.871999)" stroke-width="1.19553" stroke-linecap="butt" stroke-miterlimit="10" stroke-linejoin="miter" fill="none" stroke="#000000" d="M 0 0 L 0 41.56378 "/>
<path transform="matrix(0,-1,-1,-0,13.7,11.308216)" stroke-width=".9564" stroke-linecap="round" stroke-linejoin="round" fill="none" stroke="#000000" d="M -1.91284 2.55046 C -1.75343 1.59402 0 .15938 .4782 0 C 0 -.15938 -1.75343 -1.59402 -1.91284 -2.55046 "/>
<text xml:space="preserve" transform="matrix(1 0 -0 1 -.00000047683718 64.81)" font-size="4.9813" font-family="CMMI5" font-style="italic"><tspan y="-59.344" x="5.964">y</tspan></text>
<path transform="matrix(1,0,0,-1,13.7,52.871999)" d="M 0 0 L .28589 0 L .5718 0 L .8577 .00041 L 1.14362 .00171 L 1.42952 .00345 L 1.71542 .00604 L 2.00133 .00993 L 2.28725 .0147 L 2.57315 .02118 L 2.85905 .02896 L 3.14496 .03848 L 3.43088 .05016 L 3.71678 .06357 L 4.00269 .07957 L 4.28859 .09775 L 4.57451 .11893 L 4.86041 .14273 L 5.14632 .16954 L 5.43224 .19939 L 5.71814 .23227 L 6.00404 .26903 L 6.28995 .30925 L 6.57587 .35336 L 6.86177 .40181 L 7.14767 .45415 L 7.43358 .5108 L 7.7195 .57222 L 8.0054 .63797 L 8.2913 .70892 L 8.57721 .78503 L 8.86313 .86592 L 9.14903 .95287 L 9.43494 1.045 L 9.72084 1.14276 L 10.00676 1.24655 L 10.29266 1.35686 L 10.57857 1.47278 L 10.86449 1.59563 L 11.15039 1.72495 L 11.4363 1.8612 L 11.7222 2.00438 L 12.00812 2.15446 L 12.29402 2.31233 L 12.57993 2.47713 L 12.86583 2.65013 L 13.15173 2.83095 L 13.43764 3.01953 L 13.72354 3.21634 L 14.00945 3.42137 L 14.29536 3.63547 L 14.58127 3.8578 L 14.86717 4.0892 L 15.15308 4.32968 L 15.439 4.57927 L 15.7249 4.83878 L 16.0108 5.10739 L 16.29672 5.38594 L 16.58263 5.67445 L 16.86853 5.9729 L 17.15443 6.28174 L 17.44035 6.60138 L 17.72626 6.93141 L 18.01216 7.27223 L 18.29807 7.6239 L 18.58398 7.98723 L 18.86989 8.36137 L 19.15579 8.7472 L 19.4417 9.1447 L 19.72762 9.55432 L 20.01352 9.9756 L 20.29942 10.40944 L 20.58533 10.85582 L 20.87125 11.31389 L 21.15715 11.78534 L 21.44305 12.26978 L 21.72897 12.76721 L 22.01488 13.2776 L 22.30078 13.80183 L 22.58669 14.3399 L 22.8726 14.8914 L 23.15851 15.45673 L 23.44441 16.03633 L 23.73032 16.63022 L 24.01624 17.23836 L 24.30214 17.86165 L 24.58804 18.4992 L 24.87395 19.1519 L 25.15987 19.82018 L 25.44577 20.50359 L 25.73167 21.20258 L 26.01756 21.91711 L 26.30348 22.64767 L 26.58939 23.39424 L 26.87529 24.15723 L 27.16121 24.93623 L 27.44711 25.7321 L 27.73302 26.5444 L 28.01892 27.37401 L 28.30484 28.22093 L 28.3468 28.3468 L 28.06088 28.20882 L 27.77498 28.06435 L 27.48907 27.91989 L 27.20316 27.77238 L 26.91725 27.6249 L 26.63135 27.47739 L 26.34544 27.33292 L 26.05952 27.1824 L 25.77362 27.03232 L 25.48772 26.88481 L 25.20181 26.7317 L 24.9159 26.57858 L 24.62999 26.42805 L 24.34409 26.27536 L 24.05818 26.11923 L 23.77226 25.96307 L 23.48636 25.80736 L 23.20045 25.64862 L 22.91454 25.48988 L 22.62863 25.33115 L 22.34273 25.16937 L 22.05684 25.01062 L 21.77092 24.84625 L 21.48502 24.6845 L 21.19911 24.5171 L 20.91321 24.35274 L 20.62729 24.18535 L 20.34138 24.01839 L 20.05548 23.84798 L 19.76958 23.67798 L 19.48366 23.50496 L 19.19775 23.33194 L 18.91185 23.15894 L 18.62595 22.98332 L 18.34003 22.80467 L 18.05412 22.62605 L 17.76822 22.44742 L 17.4823 22.26573 L 17.1964 22.08452 L 16.91049 21.90025 L 16.62459 21.71297 L 16.33867 21.52611 L 16.05276 21.33578 L 15.76686 21.1459 L 15.48096 20.95299 L 15.19504 20.75749 L 14.90913 20.56198 L 14.62323 20.36343 L 14.33733 20.1649 L 14.0514 19.96075 L 13.7655 19.75659 L 13.4796 19.54985 L 13.1937 19.34265 L 12.90778 19.12984 L 12.62187 18.92006 L 12.33597 18.70206 L 12.05005 18.48622 L 11.76414 18.2652 L 11.47824 18.04114 L 11.19234 17.8145 L 10.90642 17.58482 L 10.62051 17.35513 L 10.33461 17.11984 L 10.0487 16.88152 L 9.76279 16.63756 L 9.47688 16.39403 L 9.191 16.14447 L 8.90509 15.89186 L 8.61917 15.63408 L 8.33327 15.37325 L 8.04736 15.10681 L 7.76146 14.8343 L 7.47554 14.55922 L 7.18964 14.2785 L 6.90373 13.99216 L 6.61781 13.7002 L 6.33191 13.4026 L 6.046 13.09637 L 5.7601 12.78711 L 5.47418 12.46964 L 5.18828 12.14651 L 4.90237 11.81735 L 4.61647 11.47998 L 4.33055 11.13698 L 4.04465 10.78532 L 3.75874 10.43108 L 3.47284 9.9237 L 3.18692 9.50673 L 2.90102 9.07289 L 2.61511 8.6222 L 2.32921 8.1516 L 2.04329 7.6637 L 1.75739 7.05986 L 1.47148 6.46167 L 1.18556 5.81242 L .89966 5.11214 L .61375 4.17917 L .32785 3.05067 L .04193 1.09128 L 0 0 " fill="#0000ff" fill-opacity=".3"/>
<path transform="matrix(1,0,0,-1,13.7,52.871999)" stroke-width=".3985" stroke-linecap="butt" stroke-miterlimit="10" stroke-linejoin="miter" fill="none" stroke="#0000ff" d="M 0 0 L .28589 0 L .5718 0 L .8577 .00041 L 1.14362 .00171 L 1.42952 .00345 L 1.71542 .00604 L 2.00133 .00993 L 2.28725 .0147 L 2.57315 .02118 L 2.85905 .02896 L 3.14496 .03848 L 3.43088 .05016 L 3.71678 .06357 L 4.00269 .07957 L 4.28859 .09775 L 4.57451 .11893 L 4.86041 .14273 L 5.14632 .16954 L 5.43224 .19939 L 5.71814 .23227 L 6.00404 .26903 L 6.28995 .30925 L 6.57587 .35336 L 6.86177 .40181 L 7.14767 .45415 L 7.43358 .5108 L 7.7195 .57222 L 8.0054 .63797 L 8.2913 .70892 L 8.57721 .78503 L 8.86313 .86592 L 9.14903 .95287 L 9.43494 1.045 L 9.72084 1.14276 L 10.00676 1.24655 L 10.29266 1.35686 L 10.57857 1.47278 L 10.86449 1.59563 L 11.15039 1.72495 L 11.4363 1.8612 L 11.7222 2.00438 L 12.00812 2.15446 L 12.29402 2.31233 L 12.57993 2.47713 L 12.86583 2.65013 L 13.15173 2.83095 L 13.43764 3.01953 L 13.72354 3.21634 L 14.00945 3.42137 L 14.29536 3.63547 L 14.58127 3.8578 L 14.86717 4.0892 L 15.15308 4.32968 L 15.439 4.57927 L 15.7249 4.83878 L 16.0108 5.10739 L 16.29672 5.38594 L 16.58263 5.67445 L 16.86853 5.9729 L 17.15443 6.28174 L 17.44035 6.60138 L 17.72626 6.93141 L 18.01216 7.27223 L 18.29807 7.6239 L 18.58398 7.98723 L 18.86989 8.36137 L 19.15579 8.7472 L 19.4417 9.1447 L 19.72762 9.55432 L 20.01352 9.9756 L 20.29942 10.40944 L 20.58533 10.85582 L 20.87125 11.31389 L 21.15715 11.78534 L 21.44305 12.26978 L 21.72897 12.76721 L 22.01488 13.2776 L 22.30078 13.80183 L 22.58669 14.3399 L 22.8726 14.8914 L 23.15851 15.45673 L 23.44441 16.03633 L 23.73032 16.63022 L 24.01624 17.23836 L 24.30214 17.86165 L 24.58804 18.4992 L 24.87395 19.1519 L 25.15987 19.82018 L 25.44577 20.50359 L 25.73167 21.20258 L 26.01756 21.91711 L 26.30348 22.64767 L 26.58939 23.39424 L 26.87529 24.15723 L 27.16121 24.93623 L 27.44711 25.7321 L 27.73302 26.5444 L 28.01892 27.37401 L 28.30484 28.22093 L 28.3468 28.3468 L 28.06088 28.20882 L 27.77498 28.06435 L 27.48907 27.91989 L 27.20316 27.77238 L 26.91725 27.6249 L 26.63135 27.47739 L 26.34544 27.33292 L 26.05952 27.1824 L 25.77362 27.03232 L 25.48772 26.88481 L 25.20181 26.7317 L 24.9159 26.57858 L 24.62999 26.42805 L 24.34409 26.27536 L 24.05818 26.11923 L 23.77226 25.96307 L 23.48636 25.80736 L 23.20045 25.64862 L 22.91454 25.48988 L 22.62863 25.33115 L 22.34273 25.16937 L 22.05684 25.01062 L 21.77092 24.84625 L 21.48502 24.6845 L 21.19911 24.5171 L 20.91321 24.35274 L 20.62729 24.18535 L 20.34138 24.01839 L 20.05548 23.84798 L 19.76958 23.67798 L 19.48366 23.50496 L 19.19775 23.33194 L 18.91185 23.15894 L 18.62595 22.98332 L 18.34003 22.80467 L 18.05412 22.62605 L 17.76822 22.44742 L 17.4823 22.26573 L 17.1964 22.08452 L 16.91049 21.90025 L 16.62459 21.71297 L 16.33867 21.52611 L 16.05276 21.33578 L 15.76686 21.1459 L 15.48096 20.95299 L 15.19504 20.75749 L 14.90913 20.56198 L 14.62323 20.36343 L 14.33733 20.1649 L 14.0514 19.96075 L 13.7655 19.75659 L 13.4796 19.54985 L 13.1937 19.34265 L 12.90778 19.12984 L 12.62187 18.92006 L 12.33597 18.70206 L 12.05005 18.48622 L 11.76414 18.2652 L 11.47824 18.04114 L 11.19234 17.8145 L 10.90642 17.58482 L 10.62051 17.35513 L 10.33461 17.11984 L 10.0487 16.88152 L 9.76279 16.63756 L 9.47688 16.39403 L 9.191 16.14447 L 8.90509 15.89186 L 8.61917 15.63408 L 8.33327 15.37325 L 8.04736 15.10681 L 7.76146 14.8343 L 7.47554 14.55922 L 7.18964 14.2785 L 6.90373 13.99216 L 6.61781 13.7002 L 6.33191 13.4026 L 6.046 13.09637 L 5.7601 12.78711 L 5.47418 12.46964 L 5.18828 12.14651 L 4.90237 11.81735 L 4.61647 11.47998 L 4.33055 11.13698 L 4.04465 10.78532 L 3.75874 10.43108 L 3.47284 9.9237 L 3.18692 9.50673 L 2.90102 9.07289 L 2.61511 8.6222 L 2.32921 8.1516 L 2.04329 7.6637 L 1.75739 7.05986 L 1.47148 6.46167 L 1.18556 5.81242 L .89966 5.11214 L .61375 4.17917 L .32785 3.05067 L .04193 1.09128 L 0 0 "/>
<text fill="#0000ff" fill-opacity=".3" xml:space="preserve" transform="matrix(1 0 -0 1 -.0000019073487 64.81)" font-size="4.9813" font-family="CMMI5" font-style="italic"><tspan y="-44.771" x="30.815">y</tspan></text>
<text fill="#0000ff" fill-opacity=".3" xml:space="preserve" transform="matrix(1 0 -0 1 -.0000019073487 64.81)" font-size="4.9813" font-family="CMR5"><tspan y="-44.771" x="36.670003">=</tspan></text>
<text fill="#0000ff" fill-opacity=".3" xml:space="preserve" transform="matrix(1 0 -0 1 -.0000019073487 64.81)" font-size="4.9813" font-family="CMSY5" font-style="italic"><tspan y="-48.444" x="43.827005">&#x221a;</tspan></text>
<path transform="matrix(1,0,0,-1,49.293,16.226998)" stroke-width=".279" stroke-linecap="butt" stroke-miterlimit="10" stroke-linejoin="miter" fill="none" stroke="#0000ff" d="M 0 0 L 3.944 0 "/>
<text fill="#0000ff" fill-opacity=".3" xml:space="preserve" transform="matrix(1 0 -0 1 -.0000019073487 64.81)" font-size="4.9813" font-family="CMMI5" font-style="italic"><tspan y="-44.771" x="49.293">x</tspan></text>
<text fill="#0000ff" fill-opacity=".3" xml:space="preserve" transform="matrix(1 0 -0 1 -.00000023841859 64.81)" font-size="4.9813" font-family="CMMI5" font-style="italic"><tspan y="-4.289" x="3.32">y</tspan></text>
<text fill="#0000ff" fill-opacity=".3" xml:space="preserve" transform="matrix(1 0 -0 1 -.00000023841859 64.81)" font-size="4.9813" font-family="CMR5"><tspan y="-4.289" x="9.175">=</tspan></text>
<text fill="#0000ff" fill-opacity=".3" xml:space="preserve" transform="matrix(1 0 -0 1 -.00000023841859 64.81)" font-size="4.9813" font-family="CMMI5" font-style="italic"><tspan y="-4.289" x="16.332">x</tspan></text>
<text fill="#0000ff" fill-opacity=".3" xml:space="preserve" transform="matrix(1 0 -0 1 -.00000023841859 64.81)" font-size="4.9813" font-family="CMR5"><tspan y="-6.299" x="20.276001">3</tspan></text>
</g>
</svg>
