<?xml version="1.0" encoding="UTF-8" standalone="no"?>
<!DOCTYPE svg PUBLIC "-//W3C//DTD SVG 1.1//EN" "http://www.w3.org/Graphics/SVG/1.1/DTD/svg11.dtd">
<svg xmlns="http://www.w3.org/2000/svg" xmlns:xlink="http://www.w3.org/1999/xlink" version="1.1" width="159.8pt" height="87.552pt" viewBox="0 0 159.8 87.552">
<g enable-background="new">
<path transform="matrix(1,0,0,-1,.199,73.461)" stroke-width=".3985" stroke-linecap="butt" stroke-miterlimit="10" stroke-linejoin="miter" fill="none" stroke="#000000" d="M 0 0 L 141.73404 0 L 141.73404 56.69362 L 0 0 "/>
<path transform="matrix(1,0,0,-1,.199,73.461)" stroke-width="1.59404" stroke-linecap="butt" stroke-miterlimit="10" stroke-linejoin="miter" fill="none" stroke="#0000ff" d="M 42.5202 0 L 42.5202 17.00824 "/>
<text fill="#0000ff" xml:space="preserve" transform="matrix(1 0 -0 1 0 87.551998)" font-size="9.9626" font-family="CMMI10" font-style="italic"><tspan y="-6.282" x="18.612">x</tspan></text>
<text fill="#0000ff" xml:space="preserve" transform="matrix(1 0 -0 1 0 87.552)" font-size="9.9626" font-family="CMR10"><tspan y="-4.151" x="78.409 83.3903">50</tspan></text>
<text fill="#0000ff" xml:space="preserve" transform="matrix(1 0 -0 1 0 87.552)" font-size="9.9626" font-family="CMSY10" font-style="italic"><tspan y="-4.151" x="90.585">&#x2212;</tspan></text>
<text fill="#0000ff" xml:space="preserve" transform="matrix(1 0 -0 1 0 87.552)" font-size="9.9626" font-family="CMMI10" font-style="italic"><tspan y="-4.151" x="100.548">x</tspan></text>
<text fill="#0000ff" xml:space="preserve" transform="matrix(1 0 -0 1 .0000038146974 87.551998)" font-size="4.9813" font-family="CMR5"><tspan y="-20.865" x="46.239 51.982439 54.164247 57.20782 60.251398">6feet</tspan></text>
<text fill="#0000ff" xml:space="preserve" transform="matrix(1 0 -0 1 0 87.552)" font-size="9.9626" font-family="CMMI10" font-style="italic"><tspan y="-40.293" x="145.451">s</tspan></text>
<path transform="matrix(1,0,0,-1,.199,73.461)" stroke-width=".79701" stroke-linecap="butt" stroke-miterlimit="10" stroke-linejoin="miter" fill="none" stroke="#ff0000" d="M 42.5202 0 L 29.05417 0 "/>
<path transform="matrix(-1,-0,0,1,29.25317,73.461)" stroke-width=".6376" stroke-linecap="round" stroke-linejoin="round" fill="none" stroke="#ff0000" d="M -1.55415 2.0722 C -1.42464 1.29512 0 .1295 .38852 0 C 0 -.1295 -1.42464 -1.29512 -1.55415 -2.0722 "/>
<text fill="#ff0000" xml:space="preserve" transform="matrix(1 0 -0 1 0 87.552)" font-size="4.9813" font-family="CMMI5" font-style="italic"><tspan y="-22.552" x="31.818 35.50416">dx</tspan></text>
<path transform="matrix(1,0,0,-1,31.818,65.685)" stroke-width=".398" stroke-linecap="butt" stroke-miterlimit="10" stroke-linejoin="miter" fill="none" stroke="#ff0000" d="M 0 0 L 7.628 0 "/>
<text fill="#ff0000" xml:space="preserve" transform="matrix(1 0 -0 1 0 87.552)" font-size="4.9813" font-family="CMMI5" font-style="italic"><tspan y="-17.81" x="32.386 36.072164">dt</tspan></text>
<path transform="matrix(1,0,0,-1,.199,73.461)" stroke-width=".79701" stroke-linecap="butt" stroke-miterlimit="10" stroke-linejoin="miter" fill="none" stroke="#ff0000" d="M 141.73404 56.69362 L 141.73404 70.15965 "/>
<path transform="matrix(0,-1,-1,-0,141.93305,3.3013459)" stroke-width=".6376" stroke-linecap="round" stroke-linejoin="round" fill="none" stroke="#ff0000" d="M -1.55415 2.0722 C -1.42464 1.29512 0 .1295 .38852 0 C 0 -.1295 -1.42464 -1.29512 -1.55415 -2.0722 "/>
<text fill="#ff0000" xml:space="preserve" transform="matrix(1 0 -0 1 .000015258789 87.552)" font-size="6.9738" font-family="CMMI7" font-style="italic"><tspan y="-79.389" x="146.846 150.9954">dy</tspan></text>
<path transform="matrix(1,0,0,-1,146.84601,10.117004)" stroke-width=".398" stroke-linecap="butt" stroke-miterlimit="10" stroke-linejoin="miter" fill="none" stroke="#ff0000" d="M 0 0 L 8.438 0 "/>
<text fill="#ff0000" xml:space="preserve" transform="matrix(1 0 -0 1 .000015258789 87.552)" font-size="6.9738" font-family="CMMI7" font-style="italic"><tspan y="-71.509" x="147.487 151.63642">dt</tspan></text>
</g>
</svg>
